<svg width="23" height="21" viewBox="0 0 23 21" fill="none" xmlns="http://www.w3.org/2000/svg">
<path d="M11.4906 2.53394C10.0085 2.53536 8.55053 2.88624 7.24999 3.55446C5.94945 4.22269 4.8479 5.18692 4.04612 6.35894C2.91843 8.0219 2.45455 10.007 2.73698 11.9613C3.0194 13.9156 4.02983 15.7124 5.58856 17.0321C7.14729 18.3518 9.15328 19.1089 11.2498 19.1688C13.3463 19.2286 15.3975 18.5873 17.0384 17.3589C18.4667 16.278 19.5032 14.8071 20.0052 13.1491C20.5072 11.491 20.45 9.72736 19.8415 8.10116C19.2329 6.47496 18.1029 5.06625 16.6073 4.06917C15.1117 3.07208 13.324 2.5357 11.4906 2.53394ZM13.263 4.41727C14.4877 4.71534 15.6052 5.31608 16.4997 6.15717C17.3942 6.99826 18.0331 8.04907 18.3501 9.2006C16.8683 9.23984 15.4219 9.63579 14.1493 10.3506C13.5102 9.66892 12.7974 9.0517 12.0223 8.50894C12.8032 7.26807 13.2306 5.85879 13.263 4.41727ZM11.4906 4.2006C11.4876 5.39646 11.1384 6.56898 10.4802 7.59227C10.3473 7.5256 10.2232 7.4506 10.0903 7.39227C8.94914 6.82609 7.72893 6.41372 6.46556 6.16727C7.12408 5.54437 7.90701 5.04996 8.76936 4.71246C9.63171 4.37495 10.5565 4.201 11.4906 4.2006ZM5.28686 7.66727C6.67686 7.84884 8.02306 8.2548 9.26609 8.86727L9.3813 8.93394C8.72717 9.54843 7.95052 10.0355 7.09584 10.3673C6.24116 10.699 5.32525 10.8689 4.40061 10.8673C4.40554 9.74755 4.71033 8.64703 5.28686 7.66727ZM9.71807 17.3173C8.49343 17.0192 7.37591 16.4185 6.48141 15.5774C5.58692 14.7363 4.94804 13.6855 4.63104 12.5339C5.81475 12.5092 6.9809 12.2595 8.05925 11.7998C9.1376 11.34 10.1058 10.6798 10.9056 9.85894C11.5463 10.3043 12.1399 10.8066 12.6781 11.3589C11.7807 12.1113 11.0555 13.0276 10.5466 14.0519C10.0377 15.0763 9.75582 16.1872 9.71807 17.3173ZM11.4906 17.5339C11.4925 16.6184 11.6949 15.7131 12.0852 14.8744C12.4756 14.0356 13.0455 13.2815 13.7593 12.6589C13.8125 12.7256 13.8657 12.7839 13.91 12.8506C14.6527 13.92 15.2036 15.0967 15.5407 16.3339C14.3545 17.1171 12.9399 17.5362 11.4906 17.5339ZM16.9941 15.0339C16.6093 13.9314 16.073 12.8809 15.3989 11.9089L15.2128 11.7006C16.2432 11.1616 17.4014 10.875 18.5805 10.8673C18.5717 12.3855 18.0121 13.8554 16.9941 15.0339Z" fill="#5B636B"/>
</svg>
