<svg width="23" height="21" viewBox="0 0 23 21" fill="none" xmlns="http://www.w3.org/2000/svg">
<path d="M20.3531 10.0339C20.3556 9.44655 20.1929 8.869 19.8817 8.35974C19.5704 7.85048 19.1216 7.4276 18.5806 7.13392C18.5939 6.98975 18.5939 6.84476 18.5806 6.70059C18.5806 6.03755 18.3005 5.40166 17.8019 4.93282C17.3033 4.46398 16.627 4.20059 15.9219 4.20059H15.7623C15.6147 3.81585 15.369 3.47103 15.0467 3.19638C14.7244 2.92172 14.3354 2.72562 13.9137 2.62526C13.492 2.5249 13.0506 2.52335 12.6282 2.62075C12.2057 2.71816 11.8151 2.91153 11.4906 3.18392C11.1662 2.91153 10.7756 2.71816 10.3531 2.62075C9.93067 2.52335 9.48925 2.5249 9.06758 2.62526C8.64591 2.72562 8.25686 2.92172 7.93456 3.19638C7.61225 3.47103 7.36653 3.81585 7.21895 4.20059H7.05943C6.35429 4.20059 5.67803 4.46398 5.17942 4.93282C4.68081 5.40166 4.4007 6.03755 4.4007 6.70059C4.38736 6.84476 4.38736 6.98975 4.4007 7.13392C3.89772 7.40125 3.47185 7.78012 3.16017 8.23757C2.84849 8.69501 2.66043 9.21715 2.61238 9.75854C2.56433 10.2999 2.65773 10.8442 2.88446 11.3439C3.11119 11.8435 3.46437 12.2836 3.91326 12.6256C3.62282 13.135 3.47822 13.7066 3.49367 14.2844C3.50912 14.8622 3.68408 15.4263 4.00138 15.9213C4.31868 16.4164 4.76741 16.8253 5.30354 17.108C5.83967 17.3907 6.44476 17.5375 7.05943 17.5339H7.21895C7.36653 17.9187 7.61225 18.2635 7.93456 18.5381C8.25686 18.8128 8.64591 19.0089 9.06758 19.1093C9.48925 19.2096 9.93067 19.2112 10.3531 19.1138C10.7756 19.0164 11.1662 18.823 11.4906 18.5506C11.8151 18.823 12.2057 19.0164 12.6282 19.1138C13.0506 19.2112 13.492 19.2096 13.9137 19.1093C14.3354 19.0089 14.7244 18.8128 15.0467 18.5381C15.369 18.2635 15.6147 17.9187 15.7623 17.5339H15.9219C16.5328 17.5303 17.1323 17.3783 17.6623 17.0926C18.1924 16.8069 18.6349 16.3973 18.947 15.9035C19.2591 15.4096 19.4301 14.8483 19.4436 14.274C19.457 13.6997 19.3124 13.1319 19.0237 12.6256C19.4371 12.3144 19.7711 11.9201 20.0011 11.4716C20.2311 11.0231 20.3514 10.5318 20.3531 10.0339ZM10.6044 7.99225C10.4114 7.88844 10.2099 7.79927 10.0018 7.72559C9.77846 7.65486 9.53443 7.67044 9.32335 7.7689C9.11228 7.86736 8.95144 8.04062 8.87622 8.25059C8.80101 8.46055 8.81758 8.69001 8.92229 8.88848C9.02699 9.08696 9.21126 9.2382 9.43456 9.30892C9.77571 9.42489 10.0708 9.6365 10.28 9.91517C10.4892 10.1938 10.6024 10.5262 10.6044 10.8673V12.1589C10.4114 12.0551 10.2099 11.9659 10.0018 11.8923C9.77846 11.8215 9.53443 11.8371 9.32335 11.9356C9.11228 12.034 8.95144 12.2073 8.87622 12.4173C8.80101 12.6272 8.81758 12.8567 8.92229 13.0552C9.02699 13.2536 9.21126 13.4049 9.43456 13.4756C9.77571 13.5916 10.0708 13.8032 10.28 14.0818C10.4892 14.3605 10.6024 14.6928 10.6044 15.0339V16.7006C10.6044 16.9216 10.511 17.1336 10.3448 17.2898C10.1786 17.4461 9.9532 17.5339 9.71816 17.5339C9.5467 17.5329 9.37925 17.4851 9.2361 17.3963C9.09295 17.3076 8.98026 17.1817 8.91167 17.0339C9.06028 16.9519 9.20244 16.86 9.33707 16.7589C9.42669 16.6889 9.50075 16.6029 9.55504 16.506C9.60933 16.409 9.64278 16.303 9.65348 16.1939C9.66418 16.0848 9.65192 15.9747 9.61739 15.8701C9.58287 15.7654 9.52677 15.6682 9.45228 15.5839C9.3778 15.4997 9.28639 15.43 9.18328 15.379C9.08017 15.3279 8.96738 15.2965 8.85134 15.2864C8.73531 15.2763 8.6183 15.2879 8.507 15.3203C8.3957 15.3528 8.2923 15.4056 8.20268 15.4756C7.88268 15.7289 7.47772 15.8676 7.05943 15.8673C6.58933 15.8673 6.1385 15.6917 5.80609 15.3791C5.47368 15.0665 5.28694 14.6426 5.28694 14.2006C5.29118 13.8869 5.38948 13.5807 5.57054 13.3173C5.76943 13.3508 5.97112 13.3675 6.17318 13.3673C6.40823 13.3673 6.63365 13.2795 6.79985 13.1232C6.96605 12.9669 7.05943 12.7549 7.05943 12.5339C7.05943 12.3129 6.96605 12.1009 6.79985 11.9447C6.63365 11.7884 6.40823 11.7006 6.17318 11.7006C5.96384 11.7017 5.75623 11.6649 5.56168 11.5923C5.24293 11.4842 4.96382 11.2924 4.7574 11.0398C4.55098 10.7871 4.42591 10.4841 4.397 10.1666C4.36809 9.8492 4.43655 9.53061 4.59428 9.24862C4.75201 8.96663 4.99238 8.73307 5.28694 8.57559C5.41287 8.68454 5.54936 8.78218 5.69461 8.86725C5.8991 8.97776 6.1419 9.00736 6.3696 8.94953C6.5973 8.89171 6.79124 8.7512 6.90877 8.55892C7.02629 8.36664 7.05776 8.13833 6.99627 7.92423C6.93477 7.71013 6.78535 7.52776 6.58086 7.41725C6.4561 7.35254 6.35205 7.25758 6.27953 7.14225C6.1976 7.00846 6.16053 6.85452 6.17318 6.70059C6.17318 6.47957 6.26656 6.26761 6.43276 6.11133C6.59896 5.95505 6.82438 5.86725 7.05943 5.86725C7.12116 5.85916 7.1838 5.85916 7.24554 5.86725C7.29245 6.00115 7.34871 6.13199 7.41392 6.25892C7.47182 6.35441 7.54924 6.43819 7.64172 6.50542C7.73419 6.57266 7.8399 6.62203 7.95276 6.65069C8.06561 6.67935 8.18338 6.68673 8.29928 6.67241C8.41518 6.65809 8.52693 6.62235 8.62808 6.56725C8.82456 6.45609 8.96758 6.27765 9.02707 6.06942C9.08657 5.86118 9.05791 5.63937 8.94712 5.45059C8.87276 5.32276 8.83318 5.17962 8.83191 5.03392C8.83191 4.81291 8.92528 4.60095 9.09149 4.44466C9.25769 4.28838 9.48311 4.20059 9.71816 4.20059C9.9532 4.20059 10.1786 4.28838 10.3448 4.44466C10.511 4.60095 10.6044 4.81291 10.6044 5.03392V7.99225ZM17.4196 11.5923C17.2251 11.6649 17.0174 11.7017 16.8081 11.7006C16.5731 11.7006 16.3476 11.7884 16.1814 11.9447C16.0152 12.1009 15.9219 12.3129 15.9219 12.5339C15.9219 12.7549 16.0152 12.9669 16.1814 13.1232C16.3476 13.2795 16.5731 13.3673 16.8081 13.3673C17.0102 13.3675 17.2119 13.3508 17.4107 13.3173C17.5918 13.5807 17.6901 13.8869 17.6943 14.2006C17.6943 14.6426 17.5076 15.0665 17.1752 15.3791C16.8428 15.6917 16.392 15.8673 15.9219 15.8673C15.5036 15.8676 15.0986 15.7289 14.7786 15.4756C14.5976 15.3341 14.3643 15.2661 14.1299 15.2864C13.8956 15.3067 13.6794 15.4137 13.529 15.5839C13.3786 15.7541 13.3062 15.9735 13.3278 16.1939C13.3494 16.4142 13.4632 16.6175 13.6442 16.7589C13.7788 16.86 13.921 16.9519 14.0696 17.0339C14.001 17.1817 13.8883 17.3076 13.7452 17.3963C13.602 17.4851 13.4346 17.5329 13.2631 17.5339C13.0281 17.5339 12.8027 17.4461 12.6365 17.2898C12.4703 17.1336 12.3769 16.9216 12.3769 16.7006V15.0339C12.3789 14.6928 12.4921 14.3605 12.7013 14.0818C12.9105 13.8032 13.2056 13.5916 13.5467 13.4756C13.77 13.4049 13.9543 13.2536 14.059 13.0552C14.1637 12.8567 14.1803 12.6272 14.1051 12.4173C14.0298 12.2073 13.869 12.034 13.6579 11.9356C13.4469 11.8371 13.2028 11.8215 12.9795 11.8923C12.7714 11.9659 12.5699 12.0551 12.3769 12.1589V10.8673C12.3789 10.5262 12.4921 10.1938 12.7013 9.91517C12.9105 9.6365 13.2056 9.42489 13.5467 9.30892C13.6573 9.2739 13.7594 9.21875 13.8473 9.14661C13.9352 9.07447 14.0072 8.98676 14.059 8.88848C14.1108 8.79021 14.1416 8.68329 14.1495 8.57384C14.1574 8.46439 14.1423 8.35455 14.1051 8.25059C14.0678 8.14662 14.0092 8.05058 13.9324 7.96793C13.8557 7.88528 13.7624 7.81765 13.6579 7.7689C13.5534 7.72015 13.4397 7.69123 13.3233 7.6838C13.2069 7.67637 13.0901 7.69057 12.9795 7.72559C12.7714 7.79927 12.5699 7.88844 12.3769 7.99225V5.03392C12.3769 4.81291 12.4703 4.60095 12.6365 4.44466C12.8027 4.28838 13.0281 4.20059 13.2631 4.20059C13.4982 4.20059 13.7236 4.28838 13.8898 4.44466C14.056 4.60095 14.1494 4.81291 14.1494 5.03392C14.1481 5.17962 14.1085 5.32276 14.0342 5.45059C13.9752 5.5452 13.9367 5.64983 13.9208 5.75847C13.9049 5.86711 13.912 5.97763 13.9416 6.0837C13.9713 6.18976 14.0229 6.28928 14.0935 6.37655C14.1641 6.46381 14.2524 6.53712 14.3532 6.59225C14.4544 6.64735 14.5661 6.68309 14.682 6.69741C14.7979 6.71173 14.9157 6.70435 15.0285 6.67569C15.1414 6.64703 15.2471 6.59766 15.3396 6.53042C15.432 6.46319 15.5095 6.37941 15.5674 6.28392C15.6337 6.14887 15.69 6.00965 15.7357 5.86725C15.7975 5.85916 15.8601 5.85916 15.9219 5.86725C16.1569 5.86725 16.3823 5.95505 16.5485 6.11133C16.7147 6.26761 16.8081 6.47957 16.8081 6.70059C16.8067 6.86395 16.7544 7.02333 16.6574 7.15892C16.585 7.26706 16.4843 7.35598 16.365 7.41725C16.1605 7.52776 16.0111 7.71013 15.9496 7.92423C15.8881 8.13833 15.9195 8.36664 16.0371 8.55892C16.1546 8.7512 16.3485 8.89171 16.5762 8.94953C16.8039 9.00736 17.0467 8.97776 17.2512 8.86725C17.4103 8.78634 17.559 8.68847 17.6943 8.57559C17.9899 8.73028 18.2322 8.96127 18.3927 9.24128C18.5531 9.52129 18.625 9.83863 18.5999 10.1558C18.5747 10.473 18.4535 10.7768 18.2507 11.0313C18.0478 11.2859 17.7718 11.4805 17.4551 11.5923H17.4196Z" fill="#5B636B"/>
</svg>
