<svg width="23" height="21" viewBox="0 0 23 21" fill="none" xmlns="http://www.w3.org/2000/svg">
<g clip-path="url(#clip0_30_363)">
<path d="M17.6874 18.3688H16.8011V16.9797C16.7983 16.5027 16.7083 16.0297 16.5352 15.5813C16.5258 15.5575 16.5151 15.5342 16.5033 15.5113C16.36 15.1433 16.1618 14.7962 15.9149 14.4805L14.6741 12.9247C14.3299 12.4911 14.1435 11.9648 14.1424 11.4238V10.5822C14.1446 9.91995 14.4241 9.28523 14.9205 8.81548L15.5028 8.26715C16.1798 7.62729 16.6148 6.79613 16.7408 5.90132C16.7408 5.89048 16.7479 5.88048 16.7479 5.86798L16.7453 5.85715C16.7761 5.67985 16.7948 5.50087 16.8011 5.32132V3.36882H17.6874C17.9224 3.36882 18.1478 3.28102 18.314 3.12474C18.4802 2.96846 18.5736 2.7565 18.5736 2.53548C18.5736 2.31447 18.4802 2.10251 18.314 1.94623C18.1478 1.78995 17.9224 1.70215 17.6874 1.70215H5.27995C5.04491 1.70215 4.81949 1.78995 4.65328 1.94623C4.48708 2.10251 4.39371 2.31447 4.39371 2.53548C4.39371 2.7565 4.48708 2.96846 4.65328 3.12474C4.81949 3.28102 5.04491 3.36882 5.27995 3.36882H6.16619V5.32132C6.17255 5.50087 6.1912 5.67985 6.22203 5.85715L6.21937 5.86882C6.21937 5.88048 6.22557 5.89048 6.22646 5.90215C6.35246 6.79656 6.78709 7.62739 7.46365 8.26715L8.04592 8.81465C8.54284 9.28446 8.82275 9.91955 8.82492 10.5822V11.4238C8.82353 11.9645 8.63709 12.4905 8.29318 12.9238L7.05244 14.4805C6.80521 14.7962 6.60679 15.1433 6.46309 15.5113C6.45129 15.5342 6.44065 15.5575 6.43118 15.5813C6.25814 16.0297 6.16821 16.5027 6.16531 16.9797V18.3688H5.27907C5.04402 18.3688 4.8186 18.4566 4.6524 18.6129C4.48619 18.7692 4.39282 18.9811 4.39282 19.2022C4.39282 19.4232 4.48619 19.6351 4.6524 19.7914C4.8186 19.9477 5.04402 20.0355 5.27907 20.0355H17.6865C17.9215 20.0355 18.1469 19.9477 18.3131 19.7914C18.4793 19.6351 18.5727 19.4232 18.5727 19.2022C18.5727 18.9811 18.4793 18.7692 18.3131 18.6129C18.1469 18.4566 17.9215 18.3688 17.6865 18.3688H17.6874ZM7.93868 5.03548V3.36882H15.0286V5.03548H7.93868ZM8.7168 7.08882C8.59188 6.97082 8.47994 6.84128 8.38269 6.70215H14.5837C14.4865 6.84128 14.3745 6.97082 14.2496 7.08882L13.6674 7.63632C12.976 8.28252 12.5327 9.12649 12.4071 10.0355H10.5602C10.4346 9.12649 9.99132 8.28252 9.29995 7.63632L8.7168 7.08882ZM9.71117 13.9238C10.2239 13.2777 10.5278 12.5064 10.5868 11.7022H12.3796C12.4386 12.5065 12.7429 13.2779 13.2561 13.9238L14.1424 15.0355H8.82492L9.71117 13.9238ZM15.0286 18.3688H7.93868V16.9797C7.94108 16.8868 7.94907 16.7942 7.96261 16.7022H15.0038C15.0176 16.7941 15.0259 16.8868 15.0286 16.9797V18.3688Z" fill="#5B636B"/>
</g>
<defs>
<clipPath id="clip0_30_363">
<rect width="21.2698" height="20" fill="white" transform="translate(0.855713 0.867188)"/>
</clipPath>
</defs>
</svg>
