<svg width="29" height="33" viewBox="0 0 29 33" fill="none" xmlns="http://www.w3.org/2000/svg">
<path d="M10.9999 27.3706C10.5384 27.3706 10.0873 27.5205 9.70357 27.8013C9.31986 28.0821 9.02079 28.4812 8.84419 28.9482C8.66758 29.4151 8.62137 29.929 8.71141 30.4247C8.80144 30.9204 9.02367 31.3758 9.34999 31.7332C9.67631 32.0906 10.0921 32.334 10.5447 32.4326C10.9973 32.5312 11.4665 32.4806 11.8928 32.2872C12.3192 32.0937 12.6836 31.7662 12.94 31.3459C13.1964 30.9257 13.3332 30.4316 13.3332 29.9261C13.3332 29.2484 13.0874 28.5984 12.6498 28.1191C12.2122 27.6398 11.6187 27.3706 10.9999 27.3706ZM27.3332 22.2595H8.66657C8.25401 22.2595 7.85835 22.08 7.56663 21.7605C7.2749 21.441 7.11102 21.0076 7.11102 20.5558C7.11102 20.1039 7.2749 19.6706 7.56663 19.3511C7.85835 19.0316 8.25401 18.8521 8.66657 18.8521H21.8748C22.8882 18.8486 23.8733 18.4855 24.6824 17.8171C25.4915 17.1487 26.081 16.2111 26.3626 15.1448L28.8281 5.68926C28.894 5.43585 28.9054 5.16915 28.8613 4.91013C28.8172 4.65111 28.7188 4.40682 28.574 4.19646C28.4291 3.98611 28.2416 3.81543 28.0264 3.69783C27.8111 3.58023 27.5738 3.51893 27.3332 3.51874H8.26213C7.93983 2.5255 7.34564 1.66533 6.5606 1.05554C5.77556 0.445747 4.83788 0.11602 3.87546 0.111328H2.44435C2.03179 0.111328 1.63613 0.290825 1.34441 0.610331C1.05268 0.929838 0.888794 1.36318 0.888794 1.81503C0.888794 2.26688 1.05268 2.70023 1.34441 3.01973C1.63613 3.33924 2.03179 3.51874 2.44435 3.51874H3.87702C4.21481 3.51992 4.54317 3.6409 4.81293 3.86356C5.08269 4.08623 5.27935 4.3986 5.37346 4.75392L5.61457 5.68244V5.69096L8.16724 15.4736C6.97905 15.6128 5.88487 16.2458 5.11018 17.2423C4.3355 18.2387 3.93934 19.5227 4.00336 20.8296C4.06738 22.1365 4.5867 23.3667 5.45428 24.2667C6.32187 25.1666 7.47162 25.6678 8.66657 25.6669H27.3332C27.7458 25.6669 28.1415 25.4874 28.4332 25.1679C28.7249 24.8484 28.8888 24.415 28.8888 23.9632C28.8888 23.5113 28.7249 23.078 28.4332 22.7585C28.1415 22.439 27.7458 22.2595 27.3332 22.2595ZM25.2706 6.92614L23.3728 14.2078C23.2789 14.5637 23.0821 14.8766 22.812 15.0997C22.5419 15.3227 22.2131 15.4437 21.8748 15.4447H11.395L10.9983 13.925L9.17368 6.92614H25.2706ZM23.4443 27.3706C22.9829 27.3706 22.5317 27.5205 22.148 27.8013C21.7643 28.0821 21.4652 28.4812 21.2886 28.9482C21.112 29.4151 21.0658 29.929 21.1558 30.4247C21.2459 30.9204 21.4681 31.3758 21.7944 31.7332C22.1208 32.0906 22.5365 32.334 22.9891 32.4326C23.4418 32.5312 23.9109 32.4806 24.3373 32.2872C24.7636 32.0937 25.1281 31.7662 25.3844 31.3459C25.6408 30.9257 25.7777 30.4316 25.7777 29.9261C25.7777 29.2484 25.5318 28.5984 25.0943 28.1191C24.6567 27.6398 24.0632 27.3706 23.4443 27.3706Z" fill="#F2B236"/>
</svg>
