<svg width="15" height="20" viewBox="0 0 15 20" fill="none" xmlns="http://www.w3.org/2000/svg">
<path d="M13.6874 17.3688H12.8011V15.9797C12.7983 15.5027 12.7083 15.0297 12.5352 14.5813C12.5258 14.5575 12.5151 14.5342 12.5033 14.5113C12.36 14.1433 12.1618 13.7962 11.9149 13.4805L10.6741 11.9247C10.3299 11.4911 10.1435 10.9648 10.1424 10.4238V9.58215C10.1446 8.91995 10.4241 8.28523 10.9205 7.81548L11.5028 7.26715C12.1798 6.62729 12.6148 5.79613 12.7408 4.90132C12.7408 4.89048 12.7479 4.88048 12.7479 4.86798L12.7453 4.85715C12.7761 4.67985 12.7948 4.50087 12.8011 4.32132V2.36882H13.6874C13.9224 2.36882 14.1478 2.28102 14.314 2.12474C14.4802 1.96846 14.5736 1.7565 14.5736 1.53548C14.5736 1.31447 14.4802 1.10251 14.314 0.946226C14.1478 0.789946 13.9224 0.702148 13.6874 0.702148H1.27995C1.04491 0.702148 0.819486 0.789946 0.653283 0.946226C0.48708 1.10251 0.393709 1.31447 0.393709 1.53548C0.393709 1.7565 0.48708 1.96846 0.653283 2.12474C0.819486 2.28102 1.04491 2.36882 1.27995 2.36882H2.16619V4.32132C2.17255 4.50087 2.1912 4.67985 2.22203 4.85715L2.21937 4.86882C2.21937 4.88048 2.22557 4.89048 2.22646 4.90215C2.35246 5.79656 2.78709 6.62739 3.46365 7.26715L4.04592 7.81465C4.54284 8.28446 4.82275 8.91955 4.82492 9.58215V10.4238C4.82353 10.9645 4.63709 11.4905 4.29318 11.9238L3.05244 13.4805C2.80521 13.7962 2.60679 14.1433 2.46309 14.5113C2.45129 14.5342 2.44065 14.5575 2.43118 14.5813C2.25814 15.0297 2.16821 15.5027 2.16531 15.9797V17.3688H1.27907C1.04402 17.3688 0.8186 17.4566 0.652397 17.6129C0.486194 17.7692 0.392822 17.9811 0.392822 18.2022C0.392822 18.4232 0.486194 18.6351 0.652397 18.7914C0.8186 18.9477 1.04402 19.0355 1.27907 19.0355H13.6865C13.9215 19.0355 14.1469 18.9477 14.3131 18.7914C14.4793 18.6351 14.5727 18.4232 14.5727 18.2022C14.5727 17.9811 14.4793 17.7692 14.3131 17.6129C14.1469 17.4566 13.9215 17.3688 13.6865 17.3688H13.6874ZM3.93868 4.03548V2.36882H11.0286V4.03548H3.93868ZM4.7168 6.08882C4.59188 5.97082 4.47994 5.84128 4.38269 5.70215H10.5837C10.4865 5.84128 10.3745 5.97082 10.2496 6.08882L9.66736 6.63632C8.97598 7.28252 8.53266 8.12649 8.40712 9.03548H6.56019C6.43464 8.12649 5.99132 7.28252 5.29995 6.63632L4.7168 6.08882ZM5.71117 12.9238C6.22387 12.2777 6.52785 11.5064 6.58677 10.7022H8.37964C8.43863 11.5065 8.74294 12.2779 9.25614 12.9238L10.1424 14.0355H4.82492L5.71117 12.9238ZM11.0286 17.3688H3.93868V15.9797C3.94108 15.8868 3.94907 15.7942 3.96261 15.7022H11.0038C11.0176 15.7941 11.0259 15.8868 11.0286 15.9797V17.3688Z" fill="#5B636B"/>
</svg>
