<svg width="23" height="21" viewBox="0 0 23 21" fill="none" xmlns="http://www.w3.org/2000/svg">
<path d="M11.4906 2.53394C9.21865 2.54003 7.03591 3.36636 5.39326 4.84226V3.36727C5.39326 3.14625 5.29989 2.93429 5.13369 2.77801C4.96749 2.62173 4.74206 2.53394 4.50702 2.53394C4.27197 2.53394 4.04655 2.62173 3.88035 2.77801C3.71414 2.93429 3.62077 3.14625 3.62077 3.36727V7.11725C3.62077 7.33826 3.71414 7.55022 3.88035 7.7065C4.04655 7.86278 4.27197 7.95058 4.50702 7.95058H8.49513C8.73018 7.95058 8.9556 7.86278 9.1218 7.7065C9.288 7.55022 9.38138 7.33826 9.38138 7.11725C9.38138 6.89624 9.288 6.68427 9.1218 6.528C8.9556 6.37172 8.73018 6.28392 8.49513 6.28392H6.36814C7.50765 5.16422 9.02644 4.45281 10.6634 4.27199C12.3003 4.09117 13.9531 4.45224 15.3375 5.29313C16.722 6.13401 17.7517 7.40217 18.2495 8.87957C18.7473 10.357 18.6821 11.9513 18.0652 13.3884C17.4483 14.8255 16.3182 16.0156 14.8692 16.7541C13.4201 17.4926 11.7428 17.7334 10.1254 17.435C8.50809 17.1366 7.05185 16.3177 6.00707 15.119C4.9623 13.9204 4.39427 12.417 4.40067 10.8672C4.40067 10.6462 4.3073 10.4343 4.14109 10.278C3.97489 10.1217 3.74947 10.0339 3.51442 10.0339C3.27937 10.0339 3.05395 10.1217 2.88775 10.278C2.72155 10.4343 2.62817 10.6462 2.62817 10.8672C2.62817 12.5154 3.14795 14.1266 4.12177 15.497C5.09559 16.8674 6.47972 17.9355 8.09912 18.5662C9.71853 19.1969 11.5005 19.3619 13.2196 19.0404C14.9388 18.7189 16.5179 17.9252 17.7574 16.7598C18.9968 15.5943 19.8409 14.1095 20.1828 12.493C20.5248 10.8765 20.3493 9.20093 19.6785 7.67822C19.0077 6.15551 17.8718 4.85402 16.4144 3.93835C14.9569 3.02267 13.2435 2.53394 11.4906 2.53394ZM11.4906 7.53391C11.2556 7.53391 11.0302 7.62171 10.864 7.77799C10.6978 7.93427 10.6044 8.14623 10.6044 8.36724V10.8672C10.6044 11.0882 10.6978 11.3002 10.864 11.4565C11.0302 11.6128 11.2556 11.7006 11.4906 11.7006H13.2631C13.4982 11.7006 13.7236 11.6128 13.8898 11.4565C14.056 11.3002 14.1494 11.0882 14.1494 10.8672C14.1494 10.6462 14.056 10.4343 13.8898 10.278C13.7236 10.1217 13.4982 10.0339 13.2631 10.0339H12.3769V8.36724C12.3769 8.14623 12.2835 7.93427 12.1173 7.77799C11.9511 7.62171 11.7257 7.53391 11.4906 7.53391Z" fill="#5B636B"/>
</svg>
