<svg width="23" height="21" viewBox="0 0 23 21" fill="none" xmlns="http://www.w3.org/2000/svg">
<path d="M8.83188 10.0339C9.00716 10.0339 9.17851 9.98506 9.32425 9.89349C9.46999 9.80193 9.58359 9.67178 9.65066 9.5195C9.71774 9.36723 9.73529 9.19968 9.7011 9.03803C9.6669 8.87638 9.58249 8.72789 9.45855 8.61135C9.33461 8.4948 9.17669 8.41543 9.00478 8.38328C8.83286 8.35113 8.65467 8.36763 8.49273 8.4307C8.33079 8.49377 8.19238 8.60058 8.095 8.73763C7.99762 8.87467 7.94564 9.03578 7.94564 9.2006C7.94564 9.42162 8.03901 9.63358 8.20521 9.78986C8.37142 9.94614 8.59684 10.0339 8.83188 10.0339ZM11.4906 2.53394C9.73779 2.53394 8.02433 3.02268 6.56691 3.93836C5.10949 4.85403 3.97357 6.15552 3.30279 7.67824C2.63201 9.20096 2.45651 10.8765 2.79847 12.493C3.14043 14.1095 3.98449 15.5944 5.22392 16.7598C6.46336 17.9253 8.04249 18.7189 9.76164 19.0405C11.4808 19.362 13.2627 19.197 14.8821 18.5663C16.5015 17.9355 17.8856 16.8674 18.8595 15.497C19.8333 14.1266 20.353 12.5154 20.353 10.8673C20.353 9.77292 20.1238 8.68929 19.6784 7.67824C19.2331 6.66719 18.5803 5.74853 17.7573 4.97471C16.9343 4.20089 15.9574 3.58706 14.8821 3.16827C13.8069 2.74948 12.6544 2.53394 11.4906 2.53394ZM11.4906 17.5339C10.0884 17.5339 8.71758 17.1429 7.55165 16.4104C6.38571 15.6779 5.47698 14.6367 4.94036 13.4185C4.40373 12.2003 4.26333 10.8599 4.5369 9.56667C4.81046 8.27346 5.48572 7.08557 6.47726 6.15322C7.46881 5.22087 8.73212 4.58594 10.1074 4.3287C11.4827 4.07147 12.9083 4.20349 14.2038 4.70807C15.4993 5.21266 16.6066 6.06714 17.3857 7.16347C18.1647 8.25979 18.5806 9.54873 18.5806 10.8673C18.5806 12.6354 17.8336 14.3311 16.504 15.5813C15.1743 16.8316 13.371 17.5339 11.4906 17.5339ZM14.1493 11.7006H8.83188C8.59684 11.7006 8.37142 11.7884 8.20521 11.9447C8.03901 12.101 7.94564 12.3129 7.94564 12.5339C7.94564 13.418 8.31913 14.2658 8.98394 14.891C9.64875 15.5161 10.5504 15.8673 11.4906 15.8673C12.4308 15.8673 13.3325 15.5161 13.9973 14.891C14.6621 14.2658 15.0356 13.418 15.0356 12.5339C15.0356 12.3129 14.9422 12.101 14.776 11.9447C14.6098 11.7884 14.3844 11.7006 14.1493 11.7006ZM11.4906 14.2006C11.1798 14.2003 10.8745 14.1231 10.6054 13.9769C10.3363 13.8306 10.1128 13.6204 9.95741 13.3673H13.0238C12.8684 13.6204 12.6449 13.8306 12.3758 13.9769C12.1067 14.1231 11.8014 14.2003 11.4906 14.2006ZM14.1493 8.36727C13.9741 8.36727 13.8027 8.41614 13.657 8.50771C13.5112 8.59928 13.3976 8.72943 13.3306 8.8817C13.2635 9.03397 13.2459 9.20153 13.2801 9.36318C13.3143 9.52483 13.3987 9.67331 13.5227 9.78986C13.6466 9.9064 13.8045 9.98577 13.9764 10.0179C14.1484 10.0501 14.3266 10.0336 14.4885 9.9705C14.6504 9.90743 14.7888 9.80062 14.8862 9.66358C14.9836 9.52654 15.0356 9.36542 15.0356 9.2006C15.0356 8.97959 14.9422 8.76763 14.776 8.61135C14.6098 8.45507 14.3844 8.36727 14.1493 8.36727Z" fill="#5B636B"/>
</svg>
