<svg width="200" height="200" viewBox="0 0 200 200" fill="none" xmlns="http://www.w3.org/2000/svg">
<rect width="200" height="200" fill="#3E3E3E"/>
<g clip-path="url(#clip0_0_1)">
<rect width="375" height="1406" transform="translate(-88 -234)" fill="#FAFAF9"/>
<g clip-path="url(#clip1_0_1)">
<path d="M163.591 127.017C181.365 127.017 195.774 112.608 195.774 94.8342C195.774 80.4056 186.278 68.1956 173.196 64.1099C174.298 59.9382 174.887 55.5586 174.887 51.041C174.887 22.8518 152.036 0 123.846 0C105.233 0 88.9496 9.96454 80.0325 24.8486C76.101 23.1374 71.7643 22.1829 67.203 22.1829C49.4289 22.1829 35.0201 36.5916 35.0201 54.3657C35.0201 56.4518 35.2257 58.4892 35.605 60.4649C18.1102 61.4661 4.23047 75.9653 4.23047 93.7111C4.23047 112.106 19.142 127.017 37.5364 127.017H163.591Z" fill="url(#paint0_linear_0_1)"/>
<path d="M150.102 27.8018C148.015 25.4014 145.635 23.2608 143.03 21.4396C141.247 20.193 140.812 17.7369 142.059 15.9544C143.305 14.1715 145.76 13.7365 147.545 14.9831C150.677 17.1731 153.537 19.7464 156.047 22.6317C157.474 24.2735 157.301 26.7612 155.66 28.189C154.008 29.6257 151.521 29.4325 150.102 27.8018Z" fill="#C7C5CB"/>
<path d="M132.001 16.7068C130.635 16.3833 129.234 16.1391 127.836 15.9809C125.675 15.7363 124.121 13.7857 124.365 11.624C124.609 9.46221 126.562 7.90604 128.722 8.15265C130.432 8.34588 132.146 8.64468 133.817 9.0403C135.934 9.54189 137.243 11.6642 136.742 13.7813C136.242 15.8929 134.123 17.2096 132.001 16.7068Z" fill="#C7C5CB"/>
<path d="M61.9802 80.6065C66.215 80.6065 69.648 77.8476 69.648 74.4444C69.648 71.0411 66.215 68.2822 61.9802 68.2822C57.7455 68.2822 54.3125 71.0411 54.3125 74.4444C54.3125 77.8476 57.7455 80.6065 61.9802 80.6065Z" fill="#FD75BE"/>
<path d="M152.215 80.6065C156.449 80.6065 159.882 77.8476 159.882 74.4444C159.882 71.0411 156.449 68.2822 152.215 68.2822C147.98 68.2822 144.547 71.0411 144.547 74.4444C144.547 77.8476 147.98 80.6065 152.215 80.6065Z" fill="#FD75BE"/>
<path d="M75.1271 74.445C83.5139 74.445 90.3127 67.6462 90.3127 59.2594C90.3127 50.8726 83.5139 44.0737 75.1271 44.0737C66.7403 44.0737 59.9414 50.8726 59.9414 59.2594C59.9414 67.6462 66.7403 74.445 75.1271 74.445Z" fill="#D6D5D8"/>
<path d="M59.9414 60.0029C60.339 68.0456 66.9852 74.4448 75.1271 74.4448C83.2689 74.4448 89.9151 68.0456 90.3127 60.0029H59.9414Z" fill="white"/>
<path d="M66.0977 60.0029C66.4853 64.6503 70.3777 68.3022 75.1256 68.3022C79.8734 68.3022 83.7654 64.6503 84.1534 60.0029H66.0977Z" fill="#383842"/>
<path d="M139.068 74.445C147.455 74.445 154.254 67.6462 154.254 59.2594C154.254 50.8726 147.455 44.0737 139.068 44.0737C130.682 44.0737 123.883 50.8726 123.883 59.2594C123.883 67.6462 130.682 74.445 139.068 74.445Z" fill="#D6D5D8"/>
<path d="M123.883 60.0029C124.28 68.0456 130.927 74.4448 139.068 74.4448C147.21 74.4448 153.857 68.0456 154.254 60.0029H123.883Z" fill="white"/>
<path d="M130.043 60.0029C130.431 64.6503 134.323 68.3022 139.071 68.3022C143.819 68.3022 147.711 64.6503 148.099 60.0029H130.043Z" fill="#383842"/>
<path d="M112.938 75.3516C112.211 75.3516 111.482 75.0879 110.907 74.5548C108.629 72.442 105.567 72.442 103.29 74.5548C102.079 75.6763 100.189 75.6054 99.0664 74.3954C97.9445 73.1851 98.0158 71.2946 99.2258 70.1723C103.787 65.9432 110.408 65.9432 114.97 70.1723C116.18 71.2942 116.252 73.1851 115.129 74.3954C114.541 75.0301 113.74 75.3516 112.938 75.3516Z" fill="#383842"/>
<path d="M59.764 100.187C58.4632 96.196 54.1739 94.0115 50.1827 95.3115C43.4269 97.5119 36.6568 101.13 30.8548 106.932C26.2269 111.56 23.1484 117.137 21.6289 122.98C26.3556 125.554 31.7747 127.017 37.5361 127.017L57.7341 108.091C59.8875 106.073 60.6787 102.992 59.764 100.187Z" fill="#938EA3"/>
<path d="M126.118 115.109C125.853 113.198 124.971 111.426 123.606 110.062C119.793 106.248 113.459 106.675 110.244 111.006C106.622 115.885 104.491 121.305 103.715 127.017H127.775L126.118 115.109Z" fill="#938EA3"/>
<path d="M71.0415 103.997C62.3291 104.015 48.716 105.784 39.212 115.288C30.4554 124.045 29.9741 137.761 38.1379 145.925C46.3012 154.088 60.018 153.607 68.7745 144.851C78.2785 135.347 80.047 121.734 80.0654 113.021C80.0761 108.021 76.0423 103.987 71.0415 103.997Z" fill="url(#paint1_linear_0_1)"/>
<path d="M153.92 103.997C145.208 104.015 131.595 105.784 122.091 115.288C113.334 124.045 112.853 137.761 121.017 145.925C129.18 154.088 142.897 153.607 151.653 144.851C161.157 135.347 162.926 121.734 162.944 113.021C162.955 108.021 158.921 103.987 153.92 103.997Z" fill="url(#paint2_linear_0_1)"/>
<path d="M102.12 152.251C93.4068 152.269 79.7941 154.038 70.2901 163.542C61.5335 172.298 61.0523 186.015 69.216 194.179C77.3793 202.342 91.0961 201.861 99.8527 193.104C109.357 183.6 111.125 169.988 111.144 161.275C111.154 156.275 107.12 152.241 102.12 152.251Z" fill="url(#paint3_linear_0_1)"/>
<path d="M90.0929 186.529C88.4272 185.13 88.2112 182.645 89.6108 180.979C90.4997 179.922 91.3081 178.692 92.0132 177.324C93.0105 175.39 95.3862 174.632 97.3196 175.629C99.2531 176.626 100.012 179.002 99.0148 180.936C98.0419 182.822 96.9073 184.542 95.6423 186.047C94.2419 187.715 91.7563 187.927 90.0929 186.529Z" fill="#DBEEF5"/>
<path d="M98.697 170.184C96.5316 169.97 94.95 168.042 95.1639 165.877C95.2269 165.24 95.2771 164.586 95.3137 163.932C95.4344 161.76 97.2978 160.099 99.4655 160.217C101.638 160.338 103.301 162.197 103.18 164.369C103.137 165.135 103.078 165.903 103.004 166.651C102.791 168.814 100.863 170.399 98.697 170.184Z" fill="#DBEEF5"/>
</g>
</g>
<defs>
<linearGradient id="paint0_linear_0_1" x1="100.002" y1="127.017" x2="100.002" y2="0" gradientUnits="userSpaceOnUse">
<stop offset="0.0223" stop-color="#C1BFC5"/>
<stop offset="1" stop-color="#8D889D"/>
</linearGradient>
<linearGradient id="paint1_linear_0_1" x1="32.3168" y1="127.872" x2="80.0658" y2="127.872" gradientUnits="userSpaceOnUse">
<stop stop-color="#78C5E6"/>
<stop offset="0.9788" stop-color="#BBE3F4"/>
</linearGradient>
<linearGradient id="paint2_linear_0_1" x1="115.195" y1="127.872" x2="162.944" y2="127.872" gradientUnits="userSpaceOnUse">
<stop stop-color="#78C5E6"/>
<stop offset="0.9788" stop-color="#BBE3F4"/>
</linearGradient>
<linearGradient id="paint3_linear_0_1" x1="63.3949" y1="176.126" x2="111.144" y2="176.126" gradientUnits="userSpaceOnUse">
<stop stop-color="#78C5E6"/>
<stop offset="0.9788" stop-color="#BBE3F4"/>
</linearGradient>
<clipPath id="clip0_0_1">
<rect width="375" height="1406" fill="white" transform="translate(-88 -234)"/>
</clipPath>
<clipPath id="clip1_0_1">
<rect width="200" height="200" fill="white"/>
</clipPath>
</defs>
</svg>
