<svg width="79" height="79" viewBox="0 0 79 79" fill="none" xmlns="http://www.w3.org/2000/svg">
<path d="M2.59777 70.8715C8.54905 69.6151 12.3004 65.968 12.3004 65.968H24.2548V74.2918L19.5466 79H5.08989C3.36007 78.2283 1.9623 76.8908 0.899896 75.5442C-0.436966 73.8498 0.486012 71.3174 2.59777 70.8715Z" fill="url(#paint0_linear_30_866)"/>
<path d="M78.3466 52.022C77.4551 48.6332 76.6305 43.3084 76.6305 35.2056H67.6805L57.762 57.2315L62.5276 66.8784C66.0949 66.8784 68.9836 66.3391 71.3149 65.5165C76.8211 63.5736 79.8321 57.6691 78.3466 52.022Z" fill="url(#paint1_linear_30_866)"/>
<path d="M41.4235 70.411C22.0101 70.411 6.21606 54.6179 6.21606 35.2055C6.21606 15.7931 22.0102 0 41.4235 0C60.8367 0 76.6306 15.7932 76.6306 35.2055L41.4235 70.411Z" fill="url(#paint2_linear_30_866)"/>
<path d="M67.6808 79C67.6808 65.8512 57.7622 57.2314 57.7622 57.2314L26.2695 59.794C23.6066 58.8248 21.1332 57.6952 19.0166 56.6125C18.6325 56.418 18.263 56.2235 17.9048 56.0322C16.7621 55.4212 15.746 54.841 14.8869 54.3304L7.81482 58.441L6.71338 65.7973C8.01153 66.5946 9.68265 67.5703 11.6421 68.6029C14.1024 69.8994 17.0213 71.2837 20.2353 72.5185C19.809 74.4943 19.5465 76.6612 19.5465 79H67.6808Z" fill="url(#paint3_linear_30_866)"/>
<path d="M12.301 43.2234C16.7295 43.2234 20.3195 39.6334 20.3195 35.2049C20.3195 30.7764 16.7295 27.1864 12.301 27.1864C7.87248 27.1864 4.28247 30.7764 4.28247 35.2049C4.28247 39.6334 7.87248 43.2234 12.301 43.2234Z" fill="url(#paint4_radial_30_866)"/>
<path d="M70.5463 43.2234C74.9748 43.2234 78.5648 39.6334 78.5648 35.2049C78.5648 30.7764 74.9748 27.1864 70.5463 27.1864C66.1178 27.1864 62.5278 30.7764 62.5278 35.2049C62.5278 39.6334 66.1178 43.2234 70.5463 43.2234Z" fill="url(#paint5_radial_30_866)"/>
<path d="M32.062 63.2962C34.924 60.4343 38.8541 59.4839 41.893 60.6294C43.0383 63.6684 42.0881 67.5984 39.2262 70.4603C36.7838 72.9027 33.5635 73.9528 30.7831 73.4963C29.8791 73.3479 29.1744 72.6432 29.026 71.7393C28.5695 68.9589 29.6196 65.7386 32.062 63.2962Z" fill="url(#paint6_linear_30_866)"/>
<path d="M41.8932 60.6294C43.0385 63.6683 42.0883 67.5984 39.2264 70.4603C38.2963 71.3904 37.2531 72.1171 36.1647 72.637C33.9667 71.0177 32.5374 68.4129 32.5374 65.4797V62.8488C35.3483 60.3385 39.0191 59.546 41.8932 60.6294Z" fill="#8959C3"/>
<path d="M40.954 60.6293C43.993 59.484 47.923 60.4342 50.785 63.2961C53.2495 65.7607 54.2965 69.0175 53.8082 71.8151C53.6603 72.6625 52.9874 73.3354 52.1399 73.4833C49.3423 73.9717 46.0856 72.9248 43.621 70.4601C40.7589 67.5983 39.8087 63.6683 40.954 60.6293Z" fill="url(#paint7_linear_30_866)"/>
<path d="M40.954 60.6294C39.8087 63.6683 40.7589 67.5984 43.6208 70.4603C44.5509 71.3904 45.5941 72.1171 46.6825 72.637C48.8805 71.0177 50.3098 68.4129 50.3098 65.4797V62.8488C47.4991 60.3385 43.8282 59.546 40.954 60.6294Z" fill="#8959C3"/>
<path d="M46.2071 61.6727V65.4797C46.2071 68.1216 44.0655 70.2634 41.4234 70.2634C38.7815 70.2634 36.6396 68.1218 36.6396 65.4797V61.6727H46.2071Z" fill="url(#paint8_linear_30_866)"/>
<path d="M67.2501 21.7354C66.3928 20.0953 64.6035 19.1544 62.7726 19.4238C60.5155 19.756 58.181 19.9305 55.7914 19.9305C45.5206 19.9305 36.2707 16.7125 29.7931 11.5707C28.2788 10.3686 26.15 10.3308 24.5738 11.4506C17.1462 16.7282 12.3003 25.4015 12.3003 35.2056C12.3003 51.2877 25.3395 64.327 41.4234 64.327C57.5073 64.327 70.5466 51.2877 70.5466 35.2056C70.5466 30.3456 69.3558 25.7636 67.2501 21.7354Z" fill="url(#paint9_linear_30_866)"/>
<path d="M59.3575 12.859C58.177 11.8441 56.7801 10.9062 55.2048 10.0715C54.4024 9.6463 54.0966 8.65109 54.5218 7.84866C54.947 7.04622 55.9416 6.7403 56.7447 7.16567C58.5355 8.11477 60.1361 9.19134 61.5015 10.3655C62.19 10.9575 62.2682 11.9958 61.6762 12.6843C61.0863 13.3705 60.0483 13.4531 59.3575 12.859Z" fill="#FDE7CA"/>
<path d="M49.4966 7.69246C48.674 7.43941 47.8322 7.22538 46.9944 7.05621C46.1042 6.87649 45.5282 6.00922 45.7079 5.11898C45.8876 4.22874 46.7546 3.65292 47.6451 3.83248C48.5892 4.02305 49.5375 4.26414 50.4636 4.54914C51.3317 4.8162 51.8188 5.73634 51.5517 6.6044C51.2853 7.47025 50.3659 7.96015 49.4966 7.69246Z" fill="#FDE7CA"/>
<path d="M3.68267 63.8183C3.835 63.9269 4.91771 64.6934 6.71347 65.7972L14.887 54.3303C12.9955 53.2023 11.8675 52.4097 11.8335 52.3853C8.6795 50.1406 4.30019 50.8732 2.05058 54.0256C-0.202337 57.1814 0.528649 61.5655 3.68267 63.8183Z" fill="url(#paint10_linear_30_866)"/>
<path d="M61.0609 44.3186C62.9042 44.3186 64.3984 43.1178 64.3984 41.6365C64.3984 40.1553 62.9042 38.9545 61.0609 38.9545C59.2176 38.9545 57.7234 40.1553 57.7234 41.6365C57.7234 43.1178 59.2176 44.3186 61.0609 44.3186Z" fill="#FB99AC"/>
<path d="M21.7858 44.3186C23.629 44.3186 25.1233 43.1178 25.1233 41.6365C25.1233 40.1553 23.629 38.9545 21.7858 38.9545C19.9425 38.9545 18.4482 40.1553 18.4482 41.6365C18.4482 43.1178 19.9425 44.3186 21.7858 44.3186Z" fill="#FB99AC"/>
<path d="M55.3391 41.6366C58.9941 41.6366 61.957 38.6736 61.957 35.0187C61.957 31.3637 58.9941 28.4008 55.3391 28.4008C51.6841 28.4008 48.7212 31.3637 48.7212 35.0187C48.7212 38.6736 51.6841 41.6366 55.3391 41.6366Z" fill="white"/>
<path d="M27.5075 41.6366C31.1625 41.6366 34.1254 38.6736 34.1254 35.0187C34.1254 31.3637 31.1625 28.4008 27.5075 28.4008C23.8526 28.4008 20.8896 31.3637 20.8896 35.0187C20.8896 38.6736 23.8526 41.6366 27.5075 41.6366Z" fill="white"/>
<path d="M55.3391 38.963C57.5175 38.963 59.2834 37.1971 59.2834 35.0187C59.2834 32.8403 57.5175 31.0743 55.3391 31.0743C53.1607 31.0743 51.3948 32.8403 51.3948 35.0187C51.3948 37.1971 53.1607 38.963 55.3391 38.963Z" fill="#383842"/>
<path d="M27.5076 38.963C29.686 38.963 31.4519 37.1971 31.4519 35.0187C31.4519 32.8403 29.686 31.0743 27.5076 31.0743C25.3292 31.0743 23.5632 32.8403 23.5632 35.0187C23.5632 37.1971 25.3292 38.963 27.5076 38.963Z" fill="#383842"/>
<path d="M41.4233 41.5145C40.3305 41.5145 39.2377 41.1012 38.3464 40.2747C38.0277 39.9792 38.0088 39.4814 38.3044 39.1627C38.5999 38.8441 39.0978 38.8255 39.4163 39.1206C40.5979 40.2162 42.2487 40.2165 43.4304 39.1206C43.7491 38.8255 44.2468 38.8439 44.5424 39.1627C44.8378 39.4814 44.819 39.9792 44.5004 40.2747C43.6089 41.1012 42.5161 41.5145 41.4233 41.5145Z" fill="#383842"/>
<path d="M58.5995 70.2634C59.2791 70.2634 59.8303 70.8145 59.8303 71.4942V79H57.3687V71.4942C57.3685 70.8144 57.9196 70.2634 58.5995 70.2634Z" fill="#FD75BE"/>
<defs>
<linearGradient id="paint0_linear_30_866" x1="0.275608" y1="72.4841" x2="24.2548" y2="72.4841" gradientUnits="userSpaceOnUse">
<stop stop-color="#A27CCF"/>
<stop offset="0.9777" stop-color="#8959C3"/>
</linearGradient>
<linearGradient id="paint1_linear_30_866" x1="57.762" y1="51.0419" x2="78.7243" y2="51.0419" gradientUnits="userSpaceOnUse">
<stop offset="0.000558036" stop-color="#F5AA3E"/>
<stop offset="0.9777" stop-color="#FAC986"/>
</linearGradient>
<linearGradient id="paint2_linear_30_866" x1="41.4235" y1="70.411" x2="41.4235" y2="0" gradientUnits="userSpaceOnUse">
<stop offset="0.000558036" stop-color="#F5AA3E"/>
<stop offset="0.9777" stop-color="#FAC986"/>
</linearGradient>
<linearGradient id="paint3_linear_30_866" x1="37.1972" y1="79" x2="37.1972" y2="54.3304" gradientUnits="userSpaceOnUse">
<stop offset="0.0212" stop-color="#FFB1DB"/>
<stop offset="1" stop-color="#FD86C8"/>
</linearGradient>
<radialGradient id="paint4_radial_30_866" cx="0" cy="0" r="1" gradientUnits="userSpaceOnUse" gradientTransform="translate(12.301 35.2049) scale(8.0185 8.0185)">
<stop stop-color="#FDDACC"/>
<stop offset="0.9788" stop-color="#FDC8BB"/>
</radialGradient>
<radialGradient id="paint5_radial_30_866" cx="0" cy="0" r="1" gradientUnits="userSpaceOnUse" gradientTransform="translate(70.5463 35.2049) scale(8.0185 8.0185)">
<stop stop-color="#FDDACC"/>
<stop offset="0.9788" stop-color="#FDC8BB"/>
</radialGradient>
<linearGradient id="paint6_linear_30_866" x1="28.9218" y1="66.8783" x2="42.3663" y2="66.8783" gradientUnits="userSpaceOnUse">
<stop offset="0.0223" stop-color="#8959C3"/>
<stop offset="1" stop-color="#A27CCF"/>
</linearGradient>
<linearGradient id="paint7_linear_30_866" x1="40.4807" y1="66.8782" x2="53.9251" y2="66.8782" gradientUnits="userSpaceOnUse">
<stop stop-color="#A27CCF"/>
<stop offset="0.9777" stop-color="#8959C3"/>
</linearGradient>
<linearGradient id="paint8_linear_30_866" x1="41.4235" y1="70.2634" x2="41.4235" y2="61.6727" gradientUnits="userSpaceOnUse">
<stop stop-color="#A27CCF"/>
<stop offset="0.9777" stop-color="#8959C3"/>
</linearGradient>
<linearGradient id="paint9_linear_30_866" x1="41.4234" y1="64.3271" x2="41.4234" y2="10.6389" gradientUnits="userSpaceOnUse">
<stop offset="0.0212" stop-color="#FDC8BB"/>
<stop offset="1" stop-color="#FDDACC"/>
</linearGradient>
<linearGradient id="paint10_linear_30_866" x1="0.742987" y1="58.441" x2="14.887" y2="58.441" gradientUnits="userSpaceOnUse">
<stop offset="0.0212" stop-color="#FDC8BB"/>
<stop offset="1" stop-color="#FDDACC"/>
</linearGradient>
</defs>
</svg>
