<svg width="140" height="140" viewBox="0 0 140 140" fill="none" xmlns="http://www.w3.org/2000/svg">
  <g clip-path="url(#a)">
    <path d="M94.34 106.75c-2.84-2.37-5.49-5.91-5.49-10.86l-16.66-5.2-8.25 5.2c4.32 12.9 17.07 19.52 23.7 22.16a6.65 6.65 0 0 0 6.7-11.3Z" fill="url(#b)"/>
    <path d="m88.85 95.89-16.66-5.2-8.25 5.2a28.7 28.7 0 0 0 3.6 7.16h23.45a12.89 12.89 0 0 1-2.14-7.16Z" fill="#8959C3"/>
    <path d="M114.88 65.77A19.6 19.6 0 0 0 98.24 39.3a19.61 19.61 0 0 0-30.6-9.83 19.61 19.61 0 0 0-30.6 9.83 19.6 19.6 0 0 0-16.63 26.47 16.04 16.04 0 0 0 7.61 30.12h79.25a16.04 16.04 0 0 0 7.61-30.12Z" fill="url(#c)"/>
    <path d="M65.45 45.34c-2.07-.01-3.36-.47-4.16-1.03a2.65 2.65 0 0 1-1.09-2.64 19.6 19.6 0 0 1 7.45-12.2 19.6 19.6 0 0 0-3.22-1.99 23.17 23.17 0 0 0-7.87 14.3 3.7 3.7 0 0 1-1.79 2.7c-.83.47-2.05.85-3.84.86-.97 0-1.82.75-1.86 1.72a1.79 1.79 0 0 0 1.8 1.86c3.91 0 6.12-1.33 7.32-2.56 1.2 1.23 3.41 2.56 7.34 2.56 1 0 1.82-.84 1.79-1.86a1.84 1.84 0 0 0-1.87-1.72Z" fill="#FD75BE"/>
    <path d="M34.23 80.72c1.59 5.03 4.69 7.15 7.1 8.04 1.4-2.08 2.32-4.5 2.61-7.1a1.8 1.8 0 1 1 3.56.38 19.62 19.62 0 0 1-8.2 13.85H28.01c4.2 0 8.03-1.63 10.89-4.28-2.73-1.29-6.27-4.03-8.1-9.81a1.8 1.8 0 0 1 3.42-1.08Z" fill="#FD75BE"/>
    <path d="M19.44 62.24c.22 1.22.54 2.4.97 3.53a15.92 15.92 0 0 1 17.4 1.42c.7.55 1.71.47 2.35-.16a1.8 1.8 0 0 0-.16-2.68 19.56 19.56 0 0 0-5.53-3c1.67-1.33 4.05-2.4 7.46-2.66a1.79 1.79 0 1 0-.29-3.57c-5.82.46-9.29 2.88-11.32 5.28a19.73 19.73 0 0 0-10.88 1.84Z" fill="#FD75BE"/>
    <path d="M126.91 50.1h-3.64a22.03 22.03 0 0 0-2.08-5l2.58-2.57a3.1 3.1 0 0 0 0-4.37l-4.02-4.02a3.09 3.09 0 0 0-4.37 0l-2.58 2.58a22.07 22.07 0 0 0-5-2.08V31a3.1 3.1 0 0 0-3.1-3.1h-5.68a3.09 3.09 0 0 0-3.09 3.1v3.64a22.06 22.06 0 0 0-5 2.08l-2.58-2.58a3.09 3.09 0 0 0-4.37 0l-4.02 4.02a3.09 3.09 0 0 0 0 4.37l2.58 2.58a22.06 22.06 0 0 0-2.07 5h-3.65a3.09 3.09 0 0 0-3.09 3.09v5.68a3.1 3.1 0 0 0 3.1 3.1h3.64a22.06 22.06 0 0 0 2.07 5l-2.58 2.57a3.09 3.09 0 0 0 0 4.37l4.02 4.02a3.09 3.09 0 0 0 4.37 0l2.58-2.57c1.56.88 3.24 1.58 5 2.07v3.64a3.1 3.1 0 0 0 3.1 3.1h5.68a3.1 3.1 0 0 0 3.09-3.1v-3.64a22.06 22.06 0 0 0 5-2.07l2.58 2.57a3.09 3.09 0 0 0 4.37 0l4.02-4.02a3.1 3.1 0 0 0 0-4.37l-2.58-2.57a22.02 22.02 0 0 0 2.08-5h3.64a3.1 3.1 0 0 0 3.09-3.1V53.2a3.1 3.1 0 0 0-3.09-3.1Zm-25.04 17.08a11.14 11.14 0 1 1 0-22.28 11.14 11.14 0 0 1 0 22.28Z" fill="url(#d)"/>
    <path d="M117.21 51.08c-.88 0-1.72-.5-2.12-1.34a14.91 14.91 0 0 0-2.22-3.4 2.35 2.35 0 0 1 3.55-3.08 19.63 19.63 0 0 1 2.91 4.46 2.35 2.35 0 0 1-2.12 3.36Z" fill="#C7C5CB"/>
    <path d="M107.5 42.33c-.26 0-.53-.05-.78-.14-.67-.23-1.36-.42-2.06-.55a2.35 2.35 0 0 1 .89-4.62c.92.18 1.84.43 2.72.74a2.35 2.35 0 0 1-.77 4.57Z" fill="#C7C5CB"/>
  </g>
  <defs>
    <linearGradient id="b" x1="80.34" y1="90.68" x2="80.34" y2="118.53" gradientUnits="userSpaceOnUse">
      <stop offset=".02" stop-color="#8959C3"/>
      <stop offset="1" stop-color="#A27CCF"/>
    </linearGradient>
    <linearGradient id="c" x1="32.66" y1="107.16" x2="102.63" y2="37.19" gradientUnits="userSpaceOnUse">
      <stop stop-color="#FD86C8"/>
      <stop offset=".98" stop-color="#FFB1DB"/>
    </linearGradient>
    <radialGradient id="d" cx="0" cy="0" r="1" gradientUnits="userSpaceOnUse" gradientTransform="translate(101.87 56.04) scale(28.1334)">
      <stop offset=".02" stop-color="#C1BFC5"/>
      <stop offset="1" stop-color="#8D889D"/>
    </radialGradient>
    <clipPath id="a">
      <path fill="#fff" transform="translate(12 13)" d="M0 0h118v118H0z"/>
    </clipPath>
  </defs>
</svg>
