<svg width="85" height="84" viewBox="0 0 85 84" fill="none" xmlns="http://www.w3.org/2000/svg">
<path d="M0.657227 41.9431V72.4969C0.657227 78.7317 5.71154 83.786 11.9463 83.786H42.5001L46.2806 62.7142L42.5001 41.9431L21.5787 37.5316L0.657227 41.9431Z" fill="url(#paint0_radial_30_292)"/>
<path d="M73.0539 0.100243H42.5001L40.4541 21.0217L42.5001 41.9431L63.4215 45.719L84.3429 41.9431V11.3893C84.3429 5.15456 79.2886 0.100243 73.0539 0.100243V0.100243Z" fill="url(#paint1_linear_30_292)"/>
<path d="M11.9463 0.10025C5.71154 0.10025 0.657227 5.15457 0.657227 11.3893V41.9431H42.5001V0.10025H11.9463Z" fill="url(#paint2_linear_30_292)"/>
<path d="M6.92764 26.9596C8.30278 26.9596 9.41754 26.0637 9.41754 24.9586C9.41754 23.8535 8.30278 22.9577 6.92764 22.9577C5.55251 22.9577 4.43774 23.8535 4.43774 24.9586C4.43774 26.0637 5.55251 26.9596 6.92764 26.9596Z" fill="#FB99AC"/>
<path d="M36.2296 26.9596C37.6048 26.9596 38.7196 26.0637 38.7196 24.9586C38.7196 23.8535 37.6048 22.9577 36.2296 22.9577C34.8545 22.9577 33.7397 23.8535 33.7397 24.9586C33.7397 26.0637 34.8545 26.9596 36.2296 26.9596Z" fill="#FB99AC"/>
<path d="M11.1965 24.9586C13.9234 24.9586 16.1339 22.748 16.1339 20.0212C16.1339 17.2943 13.9234 15.0837 11.1965 15.0837C8.46961 15.0837 6.25903 17.2943 6.25903 20.0212C6.25903 22.748 8.46961 24.9586 11.1965 24.9586Z" fill="white"/>
<path d="M31.9609 24.9586C34.6878 24.9586 36.8984 22.748 36.8984 20.0212C36.8984 17.2943 34.6878 15.0837 31.9609 15.0837C29.234 15.0837 27.0234 17.2943 27.0234 20.0212C27.0234 22.748 29.234 24.9586 31.9609 24.9586Z" fill="white"/>
<path d="M11.1963 22.9638C12.8215 22.9638 14.139 21.6464 14.139 20.0212C14.139 18.396 12.8215 17.0785 11.1963 17.0785C9.57114 17.0785 8.25366 18.396 8.25366 20.0212C8.25366 21.6464 9.57114 22.9638 11.1963 22.9638Z" fill="#383842"/>
<path d="M31.9607 22.9638C33.5859 22.9638 34.9034 21.6464 34.9034 20.0212C34.9034 18.396 33.5859 17.0785 31.9607 17.0785C30.3355 17.0785 29.0181 18.396 29.0181 20.0212C29.0181 21.6464 30.3355 22.9638 31.9607 22.9638Z" fill="#383842"/>
<path d="M21.5783 25.1159C20.7036 25.1159 19.8288 24.7851 19.1153 24.1235C18.7777 23.8104 18.7577 23.2831 19.0706 22.9455C19.3838 22.608 19.9109 22.5881 20.2485 22.9009C21.0315 23.6269 22.1249 23.6269 22.908 22.9009C23.2452 22.5883 23.7728 22.608 24.0859 22.9455C24.3988 23.2831 24.379 23.8104 24.0412 24.1235C23.3279 24.785 22.453 25.1159 21.5783 25.1159Z" fill="#383842"/>
<path d="M42.5 41.9431V83.786H73.0538C79.2885 83.786 84.3429 78.7317 84.3429 72.4969V41.9431H42.5Z" fill="url(#paint3_linear_30_292)"/>
<path d="M73.0538 80.4519C72.1332 80.4519 71.3867 79.7054 71.3867 78.7848C71.3867 77.8643 72.1332 77.1178 73.0538 77.1178C73.5512 77.1178 74.0488 77.0351 74.5321 76.8717C75.4046 76.5767 76.3505 77.0456 76.6449 77.9178C76.9395 78.7902 76.4711 79.7361 75.5989 80.0306C74.771 80.3103 73.9146 80.4519 73.0538 80.4519Z" fill="#FDB0BF"/>
<path d="M78.3751 76.236C77.5115 75.9164 77.0709 74.9573 77.3905 74.0938C77.5244 73.7322 77.6121 73.3518 77.6514 72.9629C77.7443 72.0468 78.5608 71.3812 79.4778 71.4722C80.3937 71.5649 81.0612 72.3826 80.9685 73.2986C80.9008 73.9683 80.7489 74.6253 80.517 75.2514C80.1991 76.1104 79.2424 76.5572 78.3751 76.236Z" fill="#FDB0BF"/>
<path d="M48.7704 26.9595C50.1456 26.9595 51.2603 26.0636 51.2603 24.9585C51.2603 23.8534 50.1456 22.9576 48.7704 22.9576C47.3953 22.9576 46.2805 23.8534 46.2805 24.9585C46.2805 26.0636 47.3953 26.9595 48.7704 26.9595Z" fill="#FB99AC"/>
<path d="M78.0724 26.9595C79.4475 26.9595 80.5623 26.0636 80.5623 24.9585C80.5623 23.8534 79.4475 22.9576 78.0724 22.9576C76.6973 22.9576 75.5825 23.8534 75.5825 24.9585C75.5825 26.0636 76.6973 26.9595 78.0724 26.9595Z" fill="#FB99AC"/>
<path d="M53.0393 24.9585C55.7627 24.9585 57.9704 22.7508 57.9704 20.0274C57.9704 17.304 55.7627 15.0963 53.0393 15.0963C50.3159 15.0963 48.1082 17.304 48.1082 20.0274C48.1082 22.7508 50.3159 24.9585 53.0393 24.9585Z" fill="#D6D5D8"/>
<path d="M48.1082 20.2688C48.2372 22.8806 50.3955 24.9586 53.0393 24.9586C55.683 24.9586 57.8414 22.8806 57.9704 20.2688H48.1082Z" fill="white"/>
<path d="M50.1077 20.2688C50.2335 21.778 51.4975 22.9638 53.0393 22.9638C54.581 22.9638 55.845 21.778 55.9708 20.2688H50.1077Z" fill="#383842"/>
<path d="M73.8037 24.9585C76.5271 24.9585 78.7348 22.7508 78.7348 20.0274C78.7348 17.304 76.5271 15.0963 73.8037 15.0963C71.0803 15.0963 68.8726 17.304 68.8726 20.0274C68.8726 22.7508 71.0803 24.9585 73.8037 24.9585Z" fill="#D6D5D8"/>
<path d="M68.8723 20.2688C69.0013 22.8806 71.1597 24.9586 73.8034 24.9586C76.4472 24.9586 78.6055 22.8806 78.7346 20.2688H68.8723Z" fill="white"/>
<path d="M70.8718 20.2688C70.9977 21.778 72.2616 22.9638 73.8033 22.9638C75.345 22.9638 76.609 21.778 76.735 20.2688H70.8718Z" fill="#383842"/>
<path d="M65.3174 25.533C65.0134 25.533 64.7085 25.4227 64.4676 25.1996C63.8418 24.6195 63.0007 24.6195 62.3749 25.1996C61.8681 25.6689 61.0773 25.639 60.6079 25.1329C60.1384 24.6265 60.1683 23.8355 60.6745 23.3659C62.2661 21.8905 64.5761 21.8905 66.1676 23.3659C66.6739 23.8353 66.7039 24.6265 66.2343 25.1329C65.9883 25.3985 65.6533 25.533 65.3174 25.533Z" fill="#383842"/>
<path d="M48.7704 68.8024C50.1456 68.8024 51.2603 67.9066 51.2603 66.8015C51.2603 65.6964 50.1456 64.8005 48.7704 64.8005C47.3953 64.8005 46.2805 65.6964 46.2805 66.8015C46.2805 67.9066 47.3953 68.8024 48.7704 68.8024Z" fill="#FB99AC"/>
<path d="M78.0724 68.8024C79.4475 68.8024 80.5623 67.9066 80.5623 66.8015C80.5623 65.6964 79.4475 64.8005 78.0724 64.8005C76.6973 64.8005 75.5825 65.6964 75.5825 66.8015C75.5825 67.9066 76.6973 68.8024 78.0724 68.8024Z" fill="#FB99AC"/>
<path d="M53.0393 66.8014C55.7661 66.8014 57.9767 64.5908 57.9767 61.864C57.9767 59.1371 55.7661 56.9265 53.0393 56.9265C50.3124 56.9265 48.1018 59.1371 48.1018 61.864C48.1018 64.5908 50.3124 66.8014 53.0393 66.8014Z" fill="white"/>
<path d="M73.8037 66.8014C76.5306 66.8014 78.7411 64.5908 78.7411 61.864C78.7411 59.1371 76.5306 56.9265 73.8037 56.9265C71.0768 56.9265 68.8662 59.1371 68.8662 61.864C68.8662 64.5908 71.0768 66.8014 73.8037 66.8014Z" fill="white"/>
<path d="M54.6703 63.6029C54.2291 63.6031 53.8011 63.3688 53.5736 62.9547C53.4169 62.6695 53.1476 62.6387 53.0393 62.6387C52.9311 62.6388 52.662 62.6697 52.5053 62.9546C52.1728 63.5599 51.4123 63.7806 50.8074 63.448C50.2023 63.1154 49.9814 62.3553 50.314 61.7501C50.8603 60.7559 51.9047 60.1383 53.0393 60.1381C54.1739 60.1381 55.2181 60.7557 55.7649 61.75C56.0975 62.3551 55.8768 63.1151 55.2716 63.448C55.0804 63.553 54.874 63.6029 54.6703 63.6029Z" fill="#383842"/>
<path d="M72.1726 63.6029C71.9689 63.6029 71.7625 63.553 71.5715 63.448C70.9663 63.1153 70.7456 62.3551 71.0782 61.75C71.6247 60.7557 72.6691 60.1381 73.8036 60.1381H73.8038C74.9384 60.1383 75.9826 60.7559 76.5291 61.7501C76.8617 62.3553 76.6408 63.1153 76.0357 63.448C75.431 63.7808 74.6707 63.5601 74.3378 62.9546C74.1811 62.6697 73.912 62.6388 73.8038 62.6387C73.6955 62.6387 73.4262 62.6695 73.2695 62.9547C73.0418 63.3687 72.614 63.6029 72.1726 63.6029Z" fill="#383842"/>
<path d="M65.3669 68.4995H61.4757C60.3908 68.4995 59.5112 67.62 59.5112 66.5351C59.5112 65.4501 60.3908 64.5706 61.4757 64.5706H65.3669C66.4518 64.5706 67.3313 65.4501 67.3313 66.5351C67.3313 67.62 66.4518 68.4995 65.3669 68.4995Z" fill="#383842"/>
<path d="M6.92764 68.8024C8.30278 68.8024 9.41754 67.9066 9.41754 66.8015C9.41754 65.6964 8.30278 64.8005 6.92764 64.8005C5.55251 64.8005 4.43774 65.6964 4.43774 66.8015C4.43774 67.9066 5.55251 68.8024 6.92764 68.8024Z" fill="#FB99AC"/>
<path d="M36.2296 68.8024C37.6048 68.8024 38.7196 67.9066 38.7196 66.8015C38.7196 65.6964 37.6048 64.8005 36.2296 64.8005C34.8545 64.8005 33.7397 65.6964 33.7397 66.8015C33.7397 67.9066 34.8545 68.8024 36.2296 68.8024Z" fill="#FB99AC"/>
<path d="M11.1965 66.8014C13.9234 66.8014 16.1339 64.5908 16.1339 61.864C16.1339 59.1371 13.9234 56.9265 11.1965 56.9265C8.46961 56.9265 6.25903 59.1371 6.25903 61.864C6.25903 64.5908 8.46961 66.8014 11.1965 66.8014Z" fill="white"/>
<path d="M16.0419 62.5592C16.4157 60.9779 15.4368 59.393 13.8555 59.0192C12.2742 58.6454 10.6893 59.6243 10.3155 61.2056C9.94169 62.7869 10.9206 64.3718 12.5019 64.7456C14.0832 65.1194 15.6681 64.1405 16.0419 62.5592Z" fill="#383842"/>
<path d="M31.9609 66.8014C34.6878 66.8014 36.8984 64.5908 36.8984 61.864C36.8984 59.1371 34.6878 56.9265 31.9609 56.9265C29.234 56.9265 27.0234 59.1371 27.0234 61.864C27.0234 64.5908 29.234 66.8014 31.9609 66.8014Z" fill="white"/>
<path d="M36.0153 63.9415C37.1643 62.7925 37.1643 60.9296 36.0153 59.7806C34.8663 58.6315 33.0034 58.6315 31.8544 59.7806C30.7054 60.9296 30.7054 62.7925 31.8544 63.9415C33.0034 65.0905 34.8663 65.0905 36.0153 63.9415Z" fill="#383842"/>
<path d="M21.5786 68.4994C22.7986 68.4994 23.7877 67.2044 23.7877 65.6068C23.7877 64.0092 22.7986 62.7141 21.5786 62.7141C20.3585 62.7141 19.3694 64.0092 19.3694 65.6068C19.3694 67.2044 20.3585 68.4994 21.5786 68.4994Z" fill="#383842"/>
<path d="M79.3419 13.0564C78.4216 13.0564 77.6754 12.3107 77.6749 11.3903C77.6747 10.9754 77.62 10.5655 77.5123 10.1719C77.2695 9.28367 77.7926 8.36697 78.6806 8.12408C79.569 7.88169 80.4855 8.40431 80.7283 9.29251C80.9141 9.97183 81.0085 10.677 81.009 11.3883C81.0095 12.309 80.2635 13.0557 79.3429 13.0564C79.3426 13.0564 79.3423 13.0564 79.3419 13.0564Z" fill="#D3C1E7"/>
<path d="M75.036 7.2172C74.4177 6.92413 73.7319 6.76909 73.0524 6.76859C72.1319 6.76793 71.3861 6.02092 71.3867 5.10021C71.3874 4.18 72.1336 3.4345 73.0538 3.4345H73.0551C74.2244 3.43534 75.403 3.70156 76.4639 4.20418C77.2957 4.59843 77.6506 5.59249 77.2565 6.42452C76.8641 7.25237 75.8722 7.61312 75.036 7.2172Z" fill="#D3C1E7"/>
<defs>
<radialGradient id="paint0_radial_30_292" cx="0" cy="0" r="1" gradientUnits="userSpaceOnUse" gradientTransform="translate(23.4689 60.6589) scale(22.9701 22.9701)">
<stop offset="0.0223" stop-color="#F7F0A9"/>
<stop offset="0.9994" stop-color="#F4E46A"/>
</radialGradient>
<linearGradient id="paint1_linear_30_292" x1="40.4541" y1="22.9096" x2="84.3429" y2="22.9096" gradientUnits="userSpaceOnUse">
<stop stop-color="#A27CCF"/>
<stop offset="0.9777" stop-color="#8959C3"/>
</linearGradient>
<linearGradient id="paint2_linear_30_292" x1="0.657227" y1="21.0217" x2="42.5001" y2="21.0217" gradientUnits="userSpaceOnUse">
<stop offset="0.0206" stop-color="#77E4D3"/>
<stop offset="1" stop-color="#01C2A0"/>
</linearGradient>
<linearGradient id="paint3_linear_30_292" x1="63.4214" y1="83.786" x2="63.4214" y2="41.9431" gradientUnits="userSpaceOnUse">
<stop stop-color="#FD869C"/>
<stop offset="0.9788" stop-color="#F3385D"/>
</linearGradient>
</defs>
</svg>
