<svg width="86" height="68" viewBox="0 0 86 68" fill="none" xmlns="http://www.w3.org/2000/svg">
<path d="M60.0604 59.0154C58.013 57.3041 56.0987 54.7487 56.0987 51.1763L44.0774 47.422L38.125 51.1763C41.2417 60.4879 50.4458 65.2609 55.2204 67.1678C56.9508 67.859 58.9238 67.4834 60.2823 66.208C62.387 64.2315 62.2757 60.8672 60.0604 59.0154Z" fill="url(#paint0_linear_30_176)"/>
<path d="M56.0987 51.1763L44.0774 47.422L38.125 51.1763C38.764 53.0853 39.6616 54.8004 40.7214 56.3422H57.6464C56.7263 54.9315 56.0987 53.2206 56.0987 51.1763Z" fill="#8959C3"/>
<path d="M74.8809 29.4475C75.4712 27.8901 75.7969 26.2024 75.7969 24.4381C75.7969 17.0404 70.1157 10.9732 62.8789 10.3524C61.1007 4.57536 55.7218 0.376244 49.3616 0.376244C46.1442 0.376244 43.1795 1.45256 40.8031 3.26214C38.4268 1.45256 35.4619 0.376244 32.2447 0.376244C25.8843 0.376244 20.5056 4.57552 18.7274 10.3524C11.4906 10.9732 5.80937 17.0404 5.80937 24.4381C5.80937 26.2024 6.13513 27.8901 6.72544 29.4475C3.11442 31.4053 0.657227 35.2298 0.657227 39.6168C0.657227 45.9914 5.8421 51.1763 12.2167 51.1763H69.3892C75.7639 51.1763 80.9487 45.9914 80.9487 39.6168C80.9486 35.2298 78.4915 31.4053 74.8809 29.4475Z" fill="url(#paint1_linear_30_176)"/>
<path d="M39.2203 14.7099C37.7272 14.7022 36.7952 14.3676 36.2145 13.9679C35.6046 13.5481 35.3053 12.7945 35.433 12.0649C36.0589 8.48834 38.0289 5.37471 40.8032 3.26193C40.0809 2.71198 39.3046 2.23004 38.4828 1.82542C35.4738 4.40811 33.3902 8.03981 32.8047 12.1475C32.6899 12.953 32.2177 13.6753 31.5131 14.0824C30.9154 14.4278 30.0353 14.7022 28.7461 14.7095C28.0441 14.7136 27.4299 15.2478 27.4024 15.9495C27.3736 16.6863 27.9625 17.2927 28.6929 17.2927C31.5235 17.2927 33.1163 16.3302 33.9829 15.4455C34.8494 16.33 36.4423 17.2927 39.2729 17.2927C40.0029 17.2927 40.5915 16.6868 40.5634 15.9505C40.5363 15.2491 39.9224 14.7134 39.2203 14.7099Z" fill="#FD75BE"/>
<path d="M16.6931 40.2339C17.84 43.8607 20.0765 45.3889 21.823 46.033C22.8266 44.5349 23.4917 42.792 23.7021 40.9124C23.7817 40.2018 24.4106 39.6838 25.1217 39.7589C25.8353 39.8342 26.3498 40.4769 26.2704 41.19C25.8119 45.3099 23.5746 48.8992 20.3482 51.1761H12.2166C15.2456 51.1761 18.0046 50.003 20.0677 48.0893C18.0994 47.1591 15.5493 45.1827 14.2303 41.0126C14.0154 40.3326 14.3922 39.6068 15.0723 39.3918C15.7526 39.1772 16.4779 39.554 16.6931 40.2339Z" fill="#FD75BE"/>
<path d="M6.02686 26.8995C6.18134 27.7795 6.41587 28.6314 6.72501 29.4475C8.35941 28.5612 10.2302 28.0573 12.2166 28.0573C14.8728 28.0573 17.3215 28.9594 19.2737 30.4721C19.7846 30.8679 20.5123 30.8136 20.9693 30.3566C21.5167 29.8092 21.4689 28.9002 20.8567 28.4264C19.6639 27.5029 18.3194 26.7661 16.8672 26.2594C18.0695 25.303 19.789 24.5351 22.2484 24.3391C22.9595 24.2824 23.4899 23.6601 23.4333 22.9492C23.3765 22.2383 22.7589 21.705 22.0432 21.7644C17.8409 22.0993 15.3396 23.8446 13.8729 25.5738C13.3294 25.5102 12.7769 25.4752 12.2163 25.4752C9.99636 25.4751 7.89646 25.9879 6.02686 26.8995Z" fill="#FD75BE"/>
<path d="M83.5568 18.1502H80.9273C80.5749 16.8763 80.0692 15.6662 79.4311 14.5408L81.2912 12.6807C82.1618 11.8101 82.1618 10.3987 81.2912 9.5281L78.3915 6.62847C77.5209 5.75785 76.1095 5.75785 75.2389 6.62847L73.3788 8.48858C72.2535 7.85046 71.0434 7.34477 69.7695 6.99239V4.36273C69.7695 3.13159 68.7715 2.13345 67.5402 2.13345H63.4394C62.2083 2.13345 61.2102 3.13142 61.2102 4.36273V6.99222C59.9363 7.3446 58.7262 7.85029 57.6008 8.48841L55.7407 6.6283C54.8701 5.75768 53.4587 5.75768 52.5881 6.6283L49.6885 9.52793C48.8178 10.3985 48.8178 11.8099 49.6885 12.6806L51.5486 14.5407C50.9104 15.666 50.4048 16.8761 50.0524 18.15H47.4229C46.1917 18.15 45.1936 19.148 45.1936 20.3793V24.48C45.1936 25.7112 46.1916 26.7093 47.4229 26.7093H50.0524C50.4048 27.9832 50.9104 29.1933 51.5486 30.3186L49.6885 32.1787C48.8178 33.0494 48.8178 34.4608 49.6885 35.3314L52.5881 38.231C53.4587 39.1016 54.8701 39.1016 55.7407 38.231L57.6008 36.3709C58.7262 37.009 59.9363 37.5147 61.2102 37.8671V40.4966C61.2102 41.7277 62.2081 42.7259 63.4394 42.7259H67.5402C68.7713 42.7259 69.7695 41.7279 69.7695 40.4966V37.8671C71.0434 37.5147 72.2535 37.009 73.3788 36.3709L75.2389 38.231C76.1095 39.1016 77.5209 39.1016 78.3915 38.231L81.2912 35.3314C82.1618 34.4608 82.1618 33.0494 81.2912 32.1787L79.4311 30.3186C80.0692 29.1933 80.5749 27.9832 80.9273 26.7093H83.5568C84.7879 26.7093 85.786 25.7113 85.786 24.48V20.3793C85.786 19.1481 84.7881 18.1502 83.5568 18.1502ZM65.4898 30.4667C61.0511 30.4667 57.4528 26.8684 57.4528 22.4297C57.4528 17.9909 61.0511 14.3926 65.4898 14.3926C69.9285 14.3926 73.5268 17.9909 73.5268 22.4297C73.5268 26.8684 69.9285 30.4667 65.4898 30.4667Z" fill="url(#paint2_radial_30_176)"/>
<defs>
<linearGradient id="paint0_linear_30_176" x1="49.9592" y1="47.422" x2="49.9592" y2="67.5095" gradientUnits="userSpaceOnUse">
<stop offset="0.0223" stop-color="#8959C3"/>
<stop offset="1" stop-color="#A27CCF"/>
</linearGradient>
<linearGradient id="paint1_linear_30_176" x1="15.5644" y1="59.3049" x2="66.0416" y2="8.82773" gradientUnits="userSpaceOnUse">
<stop stop-color="#FD86C8"/>
<stop offset="0.9788" stop-color="#FFB1DB"/>
</linearGradient>
<radialGradient id="paint2_radial_30_176" cx="0" cy="0" r="1" gradientUnits="userSpaceOnUse" gradientTransform="translate(65.4898 22.4297) scale(20.2962 20.2962)">
<stop offset="0.0223" stop-color="#C1BFC5"/>
<stop offset="1" stop-color="#8D889D"/>
</radialGradient>
</defs>
</svg>
