<svg width="140" height="140" viewBox="0 0 140 140" fill="none" xmlns="http://www.w3.org/2000/svg">
  <g clip-path="url(#a)">
    <path d="M12 71v42.35C12 122 19 129 27.65 129H70l5.24-29.2L70 71l-29-6.11L12 71Z" fill="url(#b)"/>
    <path d="M112.35 13H70l-2.84 29L70 71l29 5.23L128 71V28.65C128 20 121 13 112.35 13Z" fill="url(#c)"/>
    <path d="M27.65 13C19 13 12 20 12 28.65V71h58V13H27.65Z" fill="url(#d)"/>
    <path d="M20.7 50.23c1.9 0 3.44-1.24 3.44-2.77s-1.54-2.78-3.45-2.78c-1.9 0-3.45 1.25-3.45 2.78 0 1.53 1.55 2.77 3.45 2.77Z" fill="#FB99AC"/>
    <path d="M61.3 50.23c1.91 0 3.46-1.24 3.46-2.77s-1.55-2.78-3.45-2.78c-1.9 0-3.45 1.25-3.45 2.78 0 1.53 1.54 2.77 3.45 2.77Z" fill="#FB99AC"/>
    <path d="M26.6 47.46a6.84 6.84 0 1 0 0-13.7 6.84 6.84 0 0 0 0 13.7Z" fill="#fff"/>
    <path d="M55.4 47.46a6.84 6.84 0 1 0 0-13.7 6.84 6.84 0 0 0 0 13.7Z" fill="#fff"/>
    <path d="M26.6 44.7a4.08 4.08 0 1 0 0-8.17 4.08 4.08 0 0 0 0 8.16Z" fill="#383842"/>
    <path d="M55.4 44.7a4.08 4.08 0 1 0 0-8.17 4.08 4.08 0 0 0 0 8.16Z" fill="#383842"/>
    <path d="M41 47.68a5 5 0 0 1-3.41-1.38 1.16 1.16 0 0 1 1.57-1.7 2.61 2.61 0 0 0 3.68 0 1.16 1.16 0 0 1 1.57 1.7A5 5 0 0 1 41 47.68Z" fill="#383842"/>
    <path d="M70 71v58h42.35c8.64 0 15.65-7 15.65-15.65V71H70Z" fill="url(#e)"/>
    <path d="M112.35 124.38a2.31 2.31 0 1 1 0-4.62 6.4 6.4 0 0 0 2.05-.34 2.31 2.31 0 1 1 1.48 4.38 11.2 11.2 0 0 1-3.53.58Z" fill="#FDB0BF"/>
    <path d="M119.73 118.53a2.31 2.31 0 0 1-1.37-2.97c.19-.5.31-1.02.36-1.56a2.31 2.31 0 1 1 4.6.46 11 11 0 0 1-.62 2.71 2.31 2.31 0 0 1-2.97 1.36Z" fill="#FDB0BF"/>
    <path d="M78.7 50.23c1.9 0 3.44-1.24 3.44-2.77s-1.54-2.78-3.45-2.78c-1.9 0-3.45 1.25-3.45 2.78 0 1.53 1.55 2.77 3.45 2.77Z" fill="#FB99AC"/>
    <path d="M119.3 50.23c1.91 0 3.46-1.24 3.46-2.77s-1.55-2.78-3.45-2.78c-1.9 0-3.45 1.25-3.45 2.78 0 1.53 1.54 2.77 3.45 2.77Z" fill="#FB99AC"/>
    <path d="M84.6 47.46a6.84 6.84 0 1 0 0-13.67 6.84 6.84 0 0 0 0 13.67Z" fill="#D6D5D8"/>
    <path d="M77.77 40.96a6.84 6.84 0 0 0 13.67 0H77.77Z" fill="#fff"/>
    <path d="M80.54 40.96a4.08 4.08 0 0 0 8.13 0h-8.13Z" fill="#383842"/>
    <path d="M113.4 47.46a6.83 6.83 0 1 0 0-13.67 6.83 6.83 0 0 0 0 13.67Z" fill="#D6D5D8"/>
    <path d="M106.56 40.96a6.84 6.84 0 0 0 13.67 0h-13.67Z" fill="#fff"/>
    <path d="M109.33 40.96a4.08 4.08 0 0 0 8.12 0h-8.12Z" fill="#383842"/>
    <path d="M101.63 48.25c-.42 0-.85-.15-1.18-.46-.87-.8-2.03-.8-2.9 0a1.73 1.73 0 0 1-2.36-2.54 5.5 5.5 0 0 1 7.62 0 1.73 1.73 0 0 1-1.18 3Z" fill="#383842"/>
    <path d="M78.7 108.23c1.9 0 3.44-1.24 3.44-2.77s-1.54-2.78-3.45-2.78c-1.9 0-3.45 1.24-3.45 2.78 0 1.53 1.55 2.77 3.45 2.77Z" fill="#FB99AC"/>
    <path d="M119.3 108.23c1.91 0 3.46-1.24 3.46-2.77s-1.55-2.78-3.45-2.78c-1.9 0-3.45 1.24-3.45 2.78 0 1.53 1.54 2.77 3.45 2.77Z" fill="#FB99AC"/>
    <path d="M84.6 105.46a6.84 6.84 0 1 0 0-13.7 6.84 6.84 0 0 0 0 13.7Z" fill="#fff"/>
    <path d="M113.4 105.46a6.84 6.84 0 1 0 0-13.7 6.84 6.84 0 0 0 0 13.7Z" fill="#fff"/>
    <path d="M86.87 101.02c-.61 0-1.2-.32-1.52-.9a.83.83 0 0 0-.74-.43.83.83 0 0 0-.74.44 1.73 1.73 0 1 1-3.04-1.67 4.31 4.31 0 0 1 7.56 0 1.73 1.73 0 0 1-1.52 2.56Z" fill="#383842"/>
    <path d="M111.13 101.02a1.73 1.73 0 0 1-1.52-2.56 4.31 4.31 0 0 1 7.56 0 1.73 1.73 0 1 1-3.04 1.67.83.83 0 0 0-.74-.44.83.83 0 0 0-.74.44c-.32.57-.9.9-1.52.9Z" fill="#383842"/>
    <path d="M101.7 107.81h-5.4a2.72 2.72 0 1 1 0-5.45h5.4a2.72 2.72 0 1 1 0 5.45Z" fill="#383842"/>
    <path d="M20.7 108.23c1.9 0 3.44-1.24 3.44-2.77s-1.54-2.78-3.45-2.78c-1.9 0-3.45 1.24-3.45 2.78 0 1.53 1.55 2.77 3.45 2.77Z" fill="#FB99AC"/>
    <path d="M61.3 108.23c1.91 0 3.46-1.24 3.46-2.77s-1.55-2.78-3.45-2.78c-1.9 0-3.45 1.24-3.45 2.78 0 1.53 1.54 2.77 3.45 2.77Z" fill="#FB99AC"/>
    <path d="M26.6 105.46a6.84 6.84 0 1 0 0-13.7 6.84 6.84 0 0 0 0 13.7Z" fill="#fff"/>
    <path d="M33.33 99.58a4.08 4.08 0 1 0-7.94-1.88 4.08 4.08 0 0 0 7.94 1.88Z" fill="#383842"/>
    <path d="M55.4 105.46a6.84 6.84 0 1 0 0-13.7 6.84 6.84 0 0 0 0 13.7Z" fill="#fff"/>
    <path d="M61.01 101.5a4.08 4.08 0 1 0-5.77-5.77 4.08 4.08 0 0 0 5.77 5.76Z" fill="#383842"/>
    <path d="M41 107.81c1.7 0 3.06-1.8 3.06-4 0-2.22-1.37-4.02-3.06-4.02-1.7 0-3.06 1.8-3.06 4.01 0 2.22 1.37 4.01 3.06 4.01Z" fill="#383842"/>
    <path d="M121.07 30.96a2.31 2.31 0 0 1-2.31-2.31c0-.58-.08-1.14-.23-1.69a2.31 2.31 0 1 1 4.46-1.22 11 11 0 0 1 .39 2.9 2.31 2.31 0 0 1-2.31 2.32Z" fill="#D3C1E7"/>
    <path d="M115.1 22.87a6.4 6.4 0 0 0-2.75-.63 2.31 2.31 0 0 1 0-4.62c1.62 0 3.26.37 4.73 1.07a2.31 2.31 0 1 1-1.98 4.18Z" fill="#D3C1E7"/>
  </g>
  <defs>
    <linearGradient id="c" x1="67.16" y1="44.62" x2="128" y2="44.62" gradientUnits="userSpaceOnUse">
      <stop stop-color="#A27CCF"/>
      <stop offset=".98" stop-color="#8959C3"/>
    </linearGradient>
    <linearGradient id="d" x1="12" y1="42" x2="70" y2="42" gradientUnits="userSpaceOnUse">
      <stop offset=".02" stop-color="#77E4D3"/>
      <stop offset="1" stop-color="#01C2A0"/>
    </linearGradient>
    <linearGradient id="e" x1="99" y1="129" x2="99" y2="71" gradientUnits="userSpaceOnUse">
      <stop stop-color="#FD869C"/>
      <stop offset=".98" stop-color="#F3385D"/>
    </linearGradient>
    <radialGradient id="b" cx="0" cy="0" r="1" gradientUnits="userSpaceOnUse" gradientTransform="translate(43.62 96.94) scale(31.8397)">
      <stop offset=".02" stop-color="#F7F0A9"/>
      <stop offset="1" stop-color="#F4E46A"/>
    </radialGradient>
    <clipPath id="a">
      <path fill="#fff" transform="translate(12 13)" d="M0 0h116v116H0z"/>
    </clipPath>
  </defs>
</svg>
