<svg width="82" height="83" viewBox="0 0 82 83" fill="none" xmlns="http://www.w3.org/2000/svg">
<g clip-path="url(#clip0_30_195)">
<path d="M64.5098 36.5786C74.1142 36.5786 81.9001 28.7927 81.9001 19.1882C81.9001 9.58379 74.1142 1.79785 64.5098 1.79785C54.9053 1.79785 47.1194 9.58379 47.1194 19.1882C47.1194 28.7927 54.9053 36.5786 64.5098 36.5786Z" fill="url(#paint0_linear_30_195)"/>
<path d="M17.769 36.5786C27.3735 36.5786 35.1594 28.7927 35.1594 19.1882C35.1594 9.58379 27.3735 1.79785 17.769 1.79785C8.1646 1.79785 0.378662 9.58379 0.378662 19.1882C0.378662 28.7927 8.1646 36.5786 17.769 36.5786Z" fill="url(#paint1_linear_30_195)"/>
<path d="M6.1281 21.2937C7.22076 21.2937 8.10653 20.5819 8.10653 19.7038C8.10653 18.8258 7.22076 18.114 6.1281 18.114C5.03544 18.114 4.14966 18.8258 4.14966 19.7038C4.14966 20.5819 5.03544 21.2937 6.1281 21.2937Z" fill="#FD75BE"/>
<path d="M29.4098 21.2937C30.5025 21.2937 31.3883 20.5819 31.3883 19.7038C31.3883 18.8258 30.5025 18.114 29.4098 18.114C28.3172 18.114 27.4314 18.8258 27.4314 19.7038C27.4314 20.5819 28.3172 21.2937 29.4098 21.2937Z" fill="#FD75BE"/>
<path d="M9.52002 19.7039C11.6867 19.7039 13.4431 17.9474 13.4431 15.7808C13.4431 13.6141 11.6867 11.8577 9.52002 11.8577C7.35335 11.8577 5.59692 13.6141 5.59692 15.7808C5.59692 17.9474 7.35335 19.7039 9.52002 19.7039Z" fill="white"/>
<path d="M26.0181 19.7039C28.1847 19.7039 29.9412 17.9474 29.9412 15.7808C29.9412 13.6141 28.1847 11.8577 26.0181 11.8577C23.8514 11.8577 22.095 13.6141 22.095 15.7808C22.095 17.9474 23.8514 19.7039 26.0181 19.7039Z" fill="white"/>
<path d="M10.8157 17.387C10.3859 17.387 9.96901 17.1588 9.74734 16.7554C9.69814 16.6661 9.62181 16.6208 9.51983 16.6208C9.41784 16.6208 9.34136 16.6661 9.29231 16.7554C8.96834 17.3449 8.2275 17.5601 7.63834 17.2361C7.04885 16.912 6.83368 16.1715 7.15765 15.582C7.63119 14.7202 8.53637 14.1849 9.51983 14.1849C10.5033 14.1849 11.4085 14.7202 11.882 15.582C12.206 16.1715 11.9908 16.912 11.4013 17.2361C11.2152 17.3384 11.0142 17.387 10.8157 17.387Z" fill="#383842"/>
<path d="M27.3142 17.387C26.8844 17.387 26.4675 17.159 26.2458 16.7556C26.1966 16.6663 26.1201 16.621 26.0182 16.621C25.9163 16.621 25.8397 16.6663 25.7906 16.7556C25.4667 17.3449 24.726 17.5601 24.1365 17.2361C23.547 16.912 23.332 16.1715 23.656 15.582C24.1298 14.7203 25.0349 14.1849 26.0182 14.1849C27.0016 14.1849 27.9066 14.7202 28.3805 15.582C28.7045 16.1713 28.4895 16.912 27.9 17.2361C27.7139 17.3383 27.5127 17.387 27.3142 17.387Z" fill="#383842"/>
<path d="M19.3149 21.053H16.2233C15.3613 21.053 14.6624 20.3542 14.6624 19.4921C14.6624 18.6301 15.3611 17.9312 16.2233 17.9312H19.3149C20.1769 17.9312 20.8758 18.6299 20.8758 19.4921C20.8758 20.3542 20.1771 21.053 19.3149 21.053Z" fill="#383842"/>
<path d="M58.1343 31.7739C59.1277 30.7808 59.2472 29.1999 58.3915 28.0859C55.5977 24.4485 51.6796 21.7173 47.1628 20.4128C47.4111 23.9814 48.7359 27.2532 50.8147 29.9057L54.7117 32.2071C55.8179 32.8603 57.2259 32.682 58.1343 31.7739Z" fill="#8959C3"/>
<path d="M41.1394 58.694C50.7438 58.694 58.5298 50.9081 58.5298 41.3036C58.5298 31.6992 50.7438 23.9133 41.1394 23.9133C31.535 23.9133 23.749 31.6992 23.749 41.3036C23.749 50.9081 31.535 58.694 41.1394 58.694Z" fill="url(#paint2_linear_30_195)"/>
<path d="M42.9453 30.3758C42.4222 30.2811 41.8868 30.2238 41.3538 30.2053C40.4643 30.1745 39.7681 29.4281 39.7991 28.5385C39.8299 27.6489 40.5698 26.9566 41.4659 26.9837C42.1533 27.0076 42.8443 27.0817 43.5192 27.2038C44.3951 27.3623 44.9767 28.2009 44.8182 29.0768C44.6594 29.9552 43.8188 30.534 42.9453 30.3758Z" fill="#ADEDE3"/>
<path d="M49.5402 34.2478C48.9199 33.4949 48.2024 32.8522 47.4078 32.3374C46.6607 31.8535 46.4474 30.8556 46.9312 30.1084C47.4151 29.3614 48.4131 29.1478 49.1602 29.6319C50.2324 30.3263 51.1973 31.1896 52.0279 32.1977C52.5939 32.8847 52.496 33.9006 51.809 34.4665C51.1252 35.0302 50.1088 34.9378 49.5402 34.2478Z" fill="#ADEDE3"/>
<path d="M34.5055 49.5561C33.5661 48.4239 31.8475 48.363 30.8072 49.4033C30.0619 50.1486 29.8602 51.2795 30.302 52.2364L32.1198 56.1745C34.1622 57.416 36.4807 58.2486 38.9617 58.5586C38.1909 55.1954 36.6384 52.1268 34.5055 49.5561Z" fill="#01AB8B"/>
<path d="M17.769 80.8093C27.3735 80.8093 35.1594 73.0234 35.1594 63.4189C35.1594 53.8145 27.3735 46.0286 17.769 46.0286C8.1646 46.0286 0.378662 53.8145 0.378662 63.4189C0.378662 73.0234 8.1646 80.8093 17.769 80.8093Z" fill="url(#paint3_linear_30_195)"/>
<path d="M29.4811 46.0286C30.5754 46.0286 31.4625 45.3157 31.4625 44.4363C31.4625 43.5569 30.5754 42.8441 29.4811 42.8441C28.3868 42.8441 27.4998 43.5569 27.4998 44.4363C27.4998 45.3157 28.3868 46.0286 29.4811 46.0286Z" fill="#FB99AC"/>
<path d="M52.7975 46.0286C53.8918 46.0286 54.7789 45.3157 54.7789 44.4363C54.7789 43.5569 53.8918 42.8441 52.7975 42.8441C51.7032 42.8441 50.8162 43.5569 50.8162 44.4363C50.8162 45.3157 51.7032 46.0286 52.7975 46.0286Z" fill="#FB99AC"/>
<path d="M32.8779 44.4363C35.0478 44.4363 36.8069 42.6773 36.8069 40.5074C36.8069 38.3375 35.0478 36.5784 32.8779 36.5784C30.708 36.5784 28.949 38.3375 28.949 40.5074C28.949 42.6773 30.708 44.4363 32.8779 44.4363Z" fill="white"/>
<path d="M49.4009 44.4363C51.5708 44.4363 53.3298 42.6773 53.3298 40.5074C53.3298 38.3375 51.5708 36.5784 49.4009 36.5784C47.231 36.5784 45.4719 38.3375 45.4719 40.5074C45.4719 42.6773 47.231 44.4363 49.4009 44.4363Z" fill="white"/>
<path d="M32.8781 42.8491C34.1714 42.8491 35.2198 41.8007 35.2198 40.5074C35.2198 39.2141 34.1714 38.1656 32.8781 38.1656C31.5848 38.1656 30.5364 39.2141 30.5364 40.5074C30.5364 41.8007 31.5848 42.8491 32.8781 42.8491Z" fill="#383842"/>
<path d="M49.4008 42.8491C50.6941 42.8491 51.7425 41.8007 51.7425 40.5074C51.7425 39.2141 50.6941 38.1656 49.4008 38.1656C48.1075 38.1656 47.0591 39.2141 47.0591 40.5074C47.0591 41.8007 48.1075 42.8491 49.4008 42.8491Z" fill="#383842"/>
<path d="M41.1394 44.7109C40.4074 44.7109 39.6754 44.434 39.0783 43.8804C38.7495 43.5756 38.73 43.0618 39.0348 42.7329C39.3399 42.4041 39.8534 42.3846 40.1823 42.6896C40.7547 43.2203 41.524 43.2203 42.0964 42.6896C42.4254 42.3848 42.9389 42.4041 43.2439 42.7329C43.5487 43.0618 43.5294 43.5754 43.2004 43.8804C42.6034 44.4342 41.8715 44.7109 41.1394 44.7109Z" fill="#383842"/>
<path d="M6.1281 67.2352C7.22076 67.2352 8.10653 66.5234 8.10653 65.6454C8.10653 64.7673 7.22076 64.0556 6.1281 64.0556C5.03544 64.0556 4.14966 64.7673 4.14966 65.6454C4.14966 66.5234 5.03544 67.2352 6.1281 67.2352Z" fill="#FB99AC"/>
<path d="M29.4098 67.2352C30.5025 67.2352 31.3883 66.5234 31.3883 65.6454C31.3883 64.7673 30.5025 64.0556 29.4098 64.0556C28.3172 64.0556 27.4314 64.7673 27.4314 65.6454C27.4314 66.5234 28.3172 67.2352 29.4098 67.2352Z" fill="#FB99AC"/>
<path d="M17.769 66.9947C16.915 66.9947 16.0612 66.7092 15.3486 66.1384C14.6878 65.609 14.5811 64.644 15.1107 63.9832C15.6401 63.3223 16.605 63.2159 17.2658 63.7453C17.562 63.9828 17.9759 63.9828 18.2721 63.7453C18.9328 63.2159 19.8977 63.3225 20.4273 63.9832C20.9567 64.644 20.8501 65.609 20.1894 66.1384C19.4769 66.7092 18.6231 66.9947 17.769 66.9947Z" fill="#383842"/>
<path d="M13.4346 61.4603C13.3034 59.4541 11.633 57.8523 9.62322 57.8006C7.40964 57.744 5.59717 59.5215 5.59717 61.7223C5.59717 61.834 5.60188 61.9446 5.61097 62.0539C5.66684 62.7174 6.38672 63.1128 6.98173 62.8139C7.10645 62.7513 7.23799 62.695 7.37261 62.6417L7.36937 62.6406L9.5201 61.4155L11.6708 62.6406L11.6676 62.6417C11.8021 62.6948 11.9334 62.751 12.0578 62.8135C12.6597 63.1158 13.3773 62.7073 13.4309 62.036C13.4456 61.8478 13.4473 61.6555 13.4346 61.4603Z" fill="white"/>
<path d="M9.52002 62.2477C10.3049 62.2477 11.0397 62.3911 11.6708 62.6407C11.7914 62.3587 11.8582 62.0487 11.8582 61.7224C11.8582 60.4311 10.8114 59.3843 9.52002 59.3843C8.22867 59.3843 7.18188 60.4311 7.18188 61.7224C7.18188 62.0487 7.24863 62.3587 7.36929 62.6407C8.00035 62.391 8.73518 62.2477 9.52002 62.2477Z" fill="#383842"/>
<path d="M29.9326 61.4603C29.8014 59.4541 28.131 57.8523 26.1213 57.8006C23.9075 57.744 22.0952 59.5215 22.0952 61.7223C22.0952 61.834 22.0999 61.9446 22.1092 62.0539C22.165 62.7174 22.8848 63.1128 23.4799 62.8139C23.6047 62.7513 23.7362 62.695 23.871 62.6417L23.8676 62.6406L26.0183 61.5071L28.169 62.6406L28.1656 62.6417C28.3001 62.6948 28.4315 62.751 28.5559 62.8135C29.1577 63.1158 29.8753 62.7073 29.9287 62.036C29.9438 61.8478 29.9453 61.6555 29.9326 61.4603Z" fill="white"/>
<path d="M26.0181 62.2477C26.8029 62.2477 27.5377 62.3911 28.1688 62.6407C28.2895 62.3587 28.3562 62.0487 28.3562 61.7224C28.3562 60.4311 27.3094 59.3843 26.0181 59.3843C24.7267 59.3843 23.6799 60.4311 23.6799 61.7224C23.6799 62.0487 23.7467 62.3587 23.8673 62.6407C24.4984 62.391 25.2332 62.2477 26.0181 62.2477Z" fill="#383842"/>
<path d="M64.5098 80.8093C74.1142 80.8093 81.9001 73.0234 81.9001 63.4189C81.9001 53.8145 74.1142 46.0286 64.5098 46.0286C54.9053 46.0286 47.1194 53.8145 47.1194 63.4189C47.1194 73.0234 54.9053 80.8093 64.5098 80.8093Z" fill="url(#paint4_linear_30_195)"/>
<path d="M64.8875 77.5935C64.868 77.5935 64.8486 77.5933 64.8292 77.5933C63.9389 77.5889 63.221 76.8637 63.2254 75.9736C63.2297 75.0861 63.9506 74.3698 64.837 74.3698C64.8542 74.3696 64.8706 74.37 64.8873 74.37C65.4493 74.37 66.0219 74.3138 66.59 74.203C67.4624 74.0325 68.3101 74.6028 68.4804 75.4765C68.6508 76.3502 68.0806 77.1966 67.2069 77.3669C66.4362 77.5171 65.6562 77.5935 64.8875 77.5935Z" fill="#BDE5F6"/>
<path d="M70.3647 74.4627C69.8676 73.7241 70.0634 72.7227 70.802 72.2257C71.6476 71.6565 72.4324 70.9768 73.1351 70.2051C73.7346 69.5471 74.754 69.4993 75.412 70.0984C76.0702 70.6978 76.1179 71.7171 75.5187 72.3753C74.6424 73.3376 73.6611 74.1871 72.6016 74.9C71.8697 75.3932 70.8658 75.2074 70.3647 74.4627Z" fill="#BDE5F6"/>
<path d="M53.1301 66.8232C54.2227 66.8232 55.1085 66.1114 55.1085 65.2333C55.1085 64.3553 54.2227 63.6435 53.1301 63.6435C52.0374 63.6435 51.1516 64.3553 51.1516 65.2333C51.1516 66.1114 52.0374 66.8232 53.1301 66.8232Z" fill="#FB99AC"/>
<path d="M76.4118 66.8232C77.5045 66.8232 78.3902 66.1114 78.3902 65.2333C78.3902 64.3553 77.5045 63.6435 76.4118 63.6435C75.3191 63.6435 74.4333 64.3553 74.4333 65.2333C74.4333 66.1114 75.3191 66.8232 76.4118 66.8232Z" fill="#FB99AC"/>
<path d="M56.5216 65.2334C58.6855 65.2334 60.4396 63.4792 60.4396 61.3153C60.4396 59.1514 58.6855 57.3972 56.5216 57.3972C54.3577 57.3972 52.6035 59.1514 52.6035 61.3153C52.6035 63.4792 54.3577 65.2334 56.5216 65.2334Z" fill="#CBCBCB"/>
<path d="M52.6035 61.5071C52.7061 63.5824 54.421 65.2332 56.5216 65.2332C58.6221 65.2332 60.337 63.5822 60.4396 61.5071H52.6035Z" fill="white"/>
<path d="M54.1924 61.5071C54.2924 62.7063 55.2967 63.6485 56.5216 63.6485C57.7465 63.6485 58.7508 62.7063 58.8508 61.5071H54.1924Z" fill="#383842"/>
<path d="M73.0199 65.2334C75.1837 65.2334 76.9379 63.4792 76.9379 61.3153C76.9379 59.1514 75.1837 57.3972 73.0199 57.3972C70.856 57.3972 69.1018 59.1514 69.1018 61.3153C69.1018 63.4792 70.856 65.2334 73.0199 65.2334Z" fill="#CBCBCB"/>
<path d="M69.1018 61.5071C69.2044 63.5824 70.9193 65.2332 73.0199 65.2332C75.1204 65.2332 76.8353 63.5822 76.9379 61.5071H69.1018Z" fill="white"/>
<path d="M70.6907 61.5071C70.7907 62.7063 71.7949 63.6485 73.0199 63.6485C74.2448 63.6485 75.249 62.7063 75.3491 61.5071H70.6907Z" fill="#383842"/>
<path d="M63.2642 65.9141C62.9368 65.9141 62.6107 65.783 62.3707 65.5242C61.9134 65.0308 61.9425 64.2603 62.4358 63.803C63.7889 62.5487 65.753 62.5488 67.1058 63.803C67.599 64.2603 67.6282 65.031 67.1707 65.5242C66.7136 66.0174 65.9429 66.0466 65.4494 65.5893C65.0374 65.207 64.5044 65.2069 64.0918 65.5893C63.8576 65.8068 63.5604 65.9141 63.2642 65.9141Z" fill="#383842"/>
<path d="M52.8688 21.1954C53.9615 21.1954 54.8473 20.4836 54.8473 19.6056C54.8473 18.7276 53.9615 18.0158 52.8688 18.0158C51.7762 18.0158 50.8904 18.7276 50.8904 19.6056C50.8904 20.4836 51.7762 21.1954 52.8688 21.1954Z" fill="#FB99AC"/>
<path d="M76.1506 21.1954C77.2432 21.1954 78.129 20.4836 78.129 19.6056C78.129 18.7276 77.2432 18.0158 76.1506 18.0158C75.0579 18.0158 74.1721 18.7276 74.1721 19.6056C74.1721 20.4836 75.0579 21.1954 76.1506 21.1954Z" fill="#FB99AC"/>
<path d="M56.2607 19.6057C58.4274 19.6057 60.1839 17.8493 60.1839 15.6826C60.1839 13.516 58.4274 11.7595 56.2607 11.7595C54.0941 11.7595 52.3376 13.516 52.3376 15.6826C52.3376 17.8493 54.0941 19.6057 56.2607 19.6057Z" fill="white"/>
<path d="M56.3215 17.3399C57.2345 16.4269 57.2345 14.9467 56.3215 14.0338C55.4085 13.1208 53.9283 13.1208 53.0154 14.0338C52.1024 14.9467 52.1024 16.4269 53.0154 17.3399C53.9283 18.2529 55.4085 18.2529 56.3215 17.3399Z" fill="#383842"/>
<path d="M72.7588 19.6057C74.9255 19.6057 76.6819 17.8493 76.6819 15.6826C76.6819 13.516 74.9255 11.7595 72.7588 11.7595C70.5921 11.7595 68.8357 13.516 68.8357 15.6826C68.8357 17.8493 70.5921 19.6057 72.7588 19.6057Z" fill="white"/>
<path d="M73.4625 16.2417C73.7595 14.9853 72.9818 13.7259 71.7253 13.4289C70.4689 13.1319 69.2095 13.9097 68.9125 15.1662C68.6155 16.4226 69.3933 17.6819 70.6498 17.9789C71.9062 18.276 73.1655 17.4982 73.4625 16.2417Z" fill="#383842"/>
<path d="M65.5151 16.6353H63.5044C63.106 16.6353 62.7549 16.8971 62.6426 17.2792C62.2885 18.4832 61.8821 20.9547 64.5097 20.9547C67.1374 20.9547 66.7308 18.4832 66.3769 17.2792C66.2646 16.8971 65.9135 16.6353 65.5151 16.6353Z" fill="#383842"/>
</g>
<defs>
<linearGradient id="paint0_linear_30_195" x1="64.5098" y1="36.5786" x2="64.5098" y2="1.79785" gradientUnits="userSpaceOnUse">
<stop offset="0.0223" stop-color="#8959C3"/>
<stop offset="1" stop-color="#A27CCF"/>
</linearGradient>
<linearGradient id="paint1_linear_30_195" x1="17.769" y1="1.79785" x2="17.769" y2="36.5786" gradientUnits="userSpaceOnUse">
<stop offset="0.0212" stop-color="#FFB1DB"/>
<stop offset="1" stop-color="#FD86C8"/>
</linearGradient>
<linearGradient id="paint2_linear_30_195" x1="41.1394" y1="58.694" x2="41.1394" y2="23.9133" gradientUnits="userSpaceOnUse">
<stop offset="0.0206" stop-color="#77E4D3"/>
<stop offset="1" stop-color="#01C2A0"/>
</linearGradient>
<linearGradient id="paint3_linear_30_195" x1="17.769" y1="80.8095" x2="17.769" y2="46.0286" gradientUnits="userSpaceOnUse">
<stop offset="0.0223" stop-color="#F7F0A9"/>
<stop offset="0.9994" stop-color="#F4E46A"/>
</linearGradient>
<linearGradient id="paint4_linear_30_195" x1="64.5098" y1="80.8095" x2="64.5098" y2="46.0286" gradientUnits="userSpaceOnUse">
<stop offset="0.000558036" stop-color="#5BD4FB"/>
<stop offset="0.9777" stop-color="#A2E4FD"/>
</linearGradient>
<clipPath id="clip0_30_195">
<rect width="81.5214" height="81.5214" fill="white" transform="translate(0.378662 0.542847)"/>
</clipPath>
</defs>
</svg>
