<svg width="140" height="140" viewBox="0 0 140 140" fill="none" xmlns="http://www.w3.org/2000/svg">
  <g clip-path="url(#a)">
    <path d="m98.93 137.64 6.1 2.36c0-19.63-15.36-30.78-15.36-30.78H51.33s-14.91 10.83-15.35 29.94l9.64-2.72L47.2 140h46.6l5.13-2.36Z" fill="url(#b)"/>
    <path d="M22.64 74.56c0-13.38 5.52-25.5 14.4-34.19-.95-.81-1.75-1.7-2.43-2.6A10.5 10.5 0 0 1 45.18 21.2c9.4 1.88 24.4 2.5 35.17 2.69a37.26 37.26 0 0 1 35.42 27.88c1.6 6.16 2.6 13.66 2.6 22.78H22.63Z" fill="url(#c)"/>
    <path d="M30.9 84.94a10.38 10.38 0 1 0 0-20.75 10.38 10.38 0 0 0 0 20.75Z" fill="url(#d)"/>
    <path d="M110.1 84.94a10.38 10.38 0 1 0 0-20.75 10.38 10.38 0 0 0 0 20.75Z" fill="url(#e)"/>
    <path d="M110.1 74.57A39.6 39.6 0 1 1 42.15 46.9a8.47 8.47 0 0 1 9.2-1.92c23.21 9.24 27.28.86 45.62 3.21a8.49 8.49 0 0 1 5.86 3.48 39.41 39.41 0 0 1 7.27 22.89Z" fill="url(#f)"/>
    <path d="M87.98 34.6a27.84 27.84 0 0 0-6.5-1.21 2.36 2.36 0 0 1 .3-4.71c2.59.17 5.14.64 7.6 1.41a2.36 2.36 0 0 1-1.4 4.5Z" fill="#F3CAC0"/>
    <path d="M97.39 39.63a21.58 21.58 0 0 0-2.53-1.8 2.36 2.36 0 0 1 2.43-4.04 27.9 27.9 0 0 1 3.09 2.18 2.36 2.36 0 0 1-3 3.66Z" fill="#F3CAC0"/>
    <path d="M43.44 86.9c2.54 0 4.6-1.65 4.6-3.69s-2.06-3.7-4.6-3.7c-2.54 0-4.6 1.66-4.6 3.7s2.06 3.7 4.6 3.7Z" fill="#FB99AC"/>
    <path d="M97.56 86.9c2.53 0 4.6-1.65 4.6-3.69s-2.06-3.7-4.6-3.7c-2.54 0-4.6 1.66-4.6 3.7s2.06 3.7 4.6 3.7Z" fill="#FB99AC"/>
    <path d="M51.33 83.21a9.12 9.12 0 1 0 0-18.23 9.12 9.12 0 0 0 0 18.23Z" fill="#fff"/>
    <path d="M89.67 83.21a9.12 9.12 0 1 0 0-18.23 9.12 9.12 0 0 0 0 18.23Z" fill="#fff"/>
    <path d="M51.33 79.53a5.43 5.43 0 1 0 0-10.87 5.43 5.43 0 0 0 0 10.87Z" fill="#383842"/>
    <path d="M89.67 79.53a5.43 5.43 0 1 0 0-10.87 5.43 5.43 0 0 0 0 10.87Z" fill="#383842"/>
    <path d="M70.5 83.15a6.32 6.32 0 0 1-4.3-1.74 1.19 1.19 0 0 1 1.6-1.74 3.84 3.84 0 0 0 5.4 0 1.19 1.19 0 0 1 1.6 1.74 6.32 6.32 0 0 1-4.3 1.74Z" fill="#383842"/>
    <path d="M70.5 95.75c-4.5 0-8 3.9-7.51 8.39l1.43 12.93h12.16l1.43-12.93c.5-4.48-3-8.4-7.51-8.4Z" fill="url(#g)"/>
    <path d="m63.26 106.58 1.16 10.49h12.16l1.16-10.5a46.8 46.8 0 0 0-14.48 0Z" fill="#D86743"/>
    <path d="M36 118.13a7.56 7.56 0 1 0-7.76 12.86l11.81 5.45 6.28-10.41-10.34-7.9Z" fill="url(#h)"/>
    <path d="M105 118.13a7.56 7.56 0 1 1 7.76 12.86l-11.81 5.45-6.28-10.41 10.34-7.9Z" fill="url(#i)"/>
    <path d="m28.99 131.34 11.06 5.1 6.28-10.41-8.6-6.58a46.64 46.64 0 0 0-8.74 11.89Z" fill="#D86743"/>
    <path d="M112.01 131.34a46.64 46.64 0 0 0-8.74-11.89l-8.6 6.58 6.28 10.41 11.06-5.1Z" fill="#D86743"/>
    <path d="M47.2 140a26.56 26.56 0 0 1 23.3-13.84c10.04 0 18.79 5.6 23.3 13.84h14.22a39.67 39.67 0 0 0-37.52-26.9A39.67 39.67 0 0 0 32.98 140H47.2Z" fill="url(#j)"/>
    <path d="M45.64 134.44a2.56 2.56 0 1 0-1.94-4.74 2.56 2.56 0 0 0 1.94 4.74Z" fill="#EEDE2C"/>
    <path d="M98.82 132.98a2.56 2.56 0 1 0-4.74-1.94 2.56 2.56 0 0 0 4.74 1.94Z" fill="#EEDE2C"/>
    <path d="M70.5 122.18a2.56 2.56 0 1 0 0-5.11 2.56 2.56 0 0 0 0 5.11Z" fill="#EEDE2C"/>
  </g>
  <defs>
    <linearGradient id="b" x1="70.51" y1="109.22" x2="70.51" y2="140" gradientUnits="userSpaceOnUse">
      <stop stop-color="#78C5E6"/>
      <stop offset=".98" stop-color="#BBE3F4"/>
    </linearGradient>
    <linearGradient id="c" x1="22.64" y1="47.78" x2="118.36" y2="47.78" gradientUnits="userSpaceOnUse">
      <stop stop-color="#D66743"/>
      <stop offset=".98" stop-color="#E79580"/>
    </linearGradient>
    <linearGradient id="d" x1="20.52" y1="74.56" x2="41.27" y2="74.56" gradientUnits="userSpaceOnUse">
      <stop offset=".02" stop-color="#FDC8BB"/>
      <stop offset="1" stop-color="#FDDACC"/>
    </linearGradient>
    <linearGradient id="e" x1="99.73" y1="74.56" x2="120.48" y2="74.56" gradientUnits="userSpaceOnUse">
      <stop offset=".02" stop-color="#FDC8BB"/>
      <stop offset="1" stop-color="#FDDACC"/>
    </linearGradient>
    <linearGradient id="f" x1="30.9" y1="79.28" x2="110.1" y2="79.28" gradientUnits="userSpaceOnUse">
      <stop offset=".02" stop-color="#FDC8BB"/>
      <stop offset="1" stop-color="#FDDACC"/>
    </linearGradient>
    <linearGradient id="g" x1="70.5" y1="117.07" x2="70.5" y2="95.75" gradientUnits="userSpaceOnUse">
      <stop stop-color="#D66743"/>
      <stop offset=".98" stop-color="#E79580"/>
    </linearGradient>
    <linearGradient id="h" x1="35.09" y1="136.44" x2="35.09" y2="116.57" gradientUnits="userSpaceOnUse">
      <stop stop-color="#D66743"/>
      <stop offset=".98" stop-color="#E79580"/>
    </linearGradient>
    <linearGradient id="i" x1="105.91" y1="136.44" x2="105.91" y2="116.57" gradientUnits="userSpaceOnUse">
      <stop stop-color="#D66743"/>
      <stop offset=".98" stop-color="#E79580"/>
    </linearGradient>
    <linearGradient id="j" x1="70.5" y1="140" x2="70.5" y2="113.09" gradientUnits="userSpaceOnUse">
      <stop stop-color="#D66743"/>
      <stop offset=".98" stop-color="#E79580"/>
    </linearGradient>
    <clipPath id="a">
      <path fill="#fff" transform="translate(11 21)" d="M0 0h119v119H0z"/>
    </clipPath>
  </defs>
</svg>
