<svg width="140" height="140" viewBox="0 0 140 140" fill="none" xmlns="http://www.w3.org/2000/svg">
  <g clip-path="url(#a)">
    <path d="M101.9 65.95a24.1 24.1 0 1 0 0-48.21 24.1 24.1 0 0 0 0 48.21Z" fill="url(#b)"/>
    <path d="M37.1 65.95a24.1 24.1 0 1 0 0-48.21 24.1 24.1 0 0 0 0 48.21Z" fill="url(#c)"/>
    <path d="M20.97 44.76c1.51 0 2.74-.98 2.74-2.2 0-1.22-1.23-2.2-2.74-2.2-1.52 0-2.74.98-2.74 2.2 0 1.22 1.22 2.2 2.74 2.2Z" fill="#FD75BE"/>
    <path d="M53.24 44.76c1.52 0 2.74-.98 2.74-2.2 0-1.22-1.22-2.2-2.74-2.2-1.51 0-2.74.98-2.74 2.2 0 1.22 1.23 2.2 2.74 2.2Z" fill="#FD75BE"/>
    <path d="M25.67 42.56a5.44 5.44 0 1 0 0-10.88 5.44 5.44 0 0 0 0 10.88Z" fill="#fff"/>
    <path d="M48.54 42.56a5.44 5.44 0 1 0 0-10.88 5.44 5.44 0 0 0 0 10.88Z" fill="#fff"/>
    <path d="M27.47 39.35c-.6 0-1.18-.32-1.48-.88a.34.34 0 0 0-.32-.18.34.34 0 0 0-.31.18 1.69 1.69 0 1 1-2.96-1.62 3.74 3.74 0 0 1 6.55 0 1.69 1.69 0 0 1-1.48 2.5Z" fill="#383842"/>
    <path d="M50.34 39.35c-.6 0-1.18-.32-1.48-.88a.34.34 0 0 0-.32-.18.34.34 0 0 0-.32.18 1.69 1.69 0 0 1-2.95-1.62 3.74 3.74 0 0 1 6.54 0 1.69 1.69 0 0 1-1.47 2.5Z" fill="#383842"/>
    <path d="M39.25 44.43h-4.29a2.16 2.16 0 1 1 0-4.33h4.29a2.16 2.16 0 0 1 0 4.33Z" fill="#383842"/>
    <path d="M93.06 59.3a3.89 3.89 0 0 0 .35-5.12 30.24 30.24 0 0 0-15.56-10.64A23.99 23.99 0 0 0 82.9 56.7l5.4 3.2a3.9 3.9 0 0 0 4.75-.6Z" fill="#8959C3"/>
    <path d="M69.5 96.6a24.1 24.1 0 1 0 0-48.2 24.1 24.1 0 0 0 0 48.2Z" fill="url(#d)"/>
    <path d="M72 57.35c-.72-.13-1.46-.2-2.2-.23a2.23 2.23 0 1 1 .15-4.47c.96.03 1.91.14 2.85.3a2.23 2.23 0 0 1-.8 4.4Z" fill="#ADEDE3"/>
    <path d="M81.14 62.72a12.98 12.98 0 0 0-2.95-2.65 2.23 2.23 0 1 1 2.43-3.75 17.4 17.4 0 0 1 3.97 3.56 2.23 2.23 0 0 1-3.45 2.84Z" fill="#ADEDE3"/>
    <path d="M60.3 83.94a3.49 3.49 0 0 0-5.83 3.72L57 93.1a23.95 23.95 0 0 0 9.48 3.3 30.06 30.06 0 0 0-6.18-12.47Z" fill="#01AB8B"/>
    <path d="M37.1 127.26a24.1 24.1 0 1 0 0-48.21 24.1 24.1 0 0 0 0 48.21Z" fill="url(#e)"/>
    <path d="M53.34 79.05c1.52 0 2.75-.99 2.75-2.2 0-1.23-1.23-2.21-2.75-2.21s-2.75.98-2.75 2.2c0 1.22 1.23 2.2 2.75 2.2Z" fill="#FB99AC"/>
    <path d="M85.66 79.05c1.52 0 2.75-.99 2.75-2.2 0-1.23-1.23-2.21-2.75-2.21s-2.75.98-2.75 2.2c0 1.22 1.23 2.2 2.75 2.2Z" fill="#FB99AC"/>
    <path d="M58.05 76.84a5.45 5.45 0 1 0 0-10.89 5.45 5.45 0 0 0 0 10.9Z" fill="#fff"/>
    <path d="M80.95 76.84a5.45 5.45 0 1 0 0-10.89 5.45 5.45 0 0 0 0 10.9Z" fill="#fff"/>
    <path d="M58.05 74.64a3.25 3.25 0 1 0 0-6.49 3.25 3.25 0 0 0 0 6.5Z" fill="#383842"/>
    <path d="M80.95 74.64a3.25 3.25 0 1 0 0-6.49 3.25 3.25 0 0 0 0 6.5Z" fill="#383842"/>
    <path d="M69.5 77.22a4.19 4.19 0 0 1-2.86-1.15 1.13 1.13 0 1 1 1.53-1.65c.8.74 1.86.74 2.66 0a1.13 1.13 0 0 1 1.53 1.65 4.19 4.19 0 0 1-2.86 1.15Z" fill="#383842"/>
    <path d="M20.97 108.44c1.51 0 2.74-.98 2.74-2.2 0-1.22-1.23-2.2-2.74-2.2-1.52 0-2.74.98-2.74 2.2 0 1.22 1.22 2.2 2.74 2.2Z" fill="#FB99AC"/>
    <path d="M53.24 108.44c1.52 0 2.74-.98 2.74-2.2 0-1.22-1.22-2.2-2.74-2.2-1.51 0-2.74.98-2.74 2.2 0 1.22 1.23 2.2 2.74 2.2Z" fill="#FB99AC"/>
    <path d="M37.1 108.11c-1.18 0-2.36-.4-3.35-1.19a2.12 2.12 0 1 1 2.66-3.31c.4.33.98.33 1.4 0a2.13 2.13 0 0 1 2.65 3.31 5.35 5.35 0 0 1-3.35 1.2Z" fill="#383842"/>
    <path d="M31.1 100.44a5.44 5.44 0 1 0-10.84.82 1.32 1.32 0 0 0 1.9 1.06c.17-.09.35-.17.53-.24l2.98-1.7 2.98 1.7c.18.07.37.15.54.24.83.42 1.83-.15 1.9-1.08.02-.26.02-.53 0-.8Z" fill="#fff"/>
    <path d="M25.67 101.53c1.09 0 2.1.2 2.98.55a3.24 3.24 0 1 0-5.96 0c.87-.35 1.9-.55 2.98-.55Z" fill="#383842"/>
    <path d="M53.97 100.44a5.44 5.44 0 1 0-10.84.82 1.31 1.31 0 0 0 1.9 1.06c.16-.09.35-.17.53-.24l2.98-1.58 2.98 1.58.54.24c.83.42 1.83-.15 1.9-1.08.02-.26.02-.53 0-.8Z" fill="#fff"/>
    <path d="M48.54 101.53c1.09 0 2.1.2 2.98.55a3.24 3.24 0 1 0-5.96 0c.87-.35 1.9-.55 2.98-.55Z" fill="#383842"/>
    <path d="M101.9 127.26a24.1 24.1 0 1 0 0-48.21 24.1 24.1 0 0 0 0 48.21Z" fill="url(#f)"/>
    <path d="M102.42 122.8h-.08a2.23 2.23 0 0 1 0-4.47h.08c.78 0 1.57-.07 2.36-.23a2.24 2.24 0 0 1 .85 4.39c-1.06.2-2.15.31-3.21.31Z" fill="#BDE5F6"/>
    <path d="M110.01 118.46a2.23 2.23 0 0 1 .6-3.1 17.9 17.9 0 0 0 3.24-2.8 2.23 2.23 0 0 1 3.3 3.01 22.36 22.36 0 0 1-4.04 3.5c-1.01.68-2.4.43-3.1-.6Z" fill="#BDE5F6"/>
    <path d="M86.12 107.87c1.52 0 2.74-.98 2.74-2.2 0-1.22-1.22-2.2-2.74-2.2-1.51 0-2.74.98-2.74 2.2 0 1.22 1.23 2.2 2.74 2.2Z" fill="#FB99AC"/>
    <path d="M118.4 107.87c1.5 0 2.73-.98 2.73-2.2 0-1.22-1.22-2.2-2.74-2.2-1.51 0-2.74.98-2.74 2.2 0 1.22 1.23 2.2 2.74 2.2Z" fill="#FB99AC"/>
    <path d="M90.82 105.67a5.43 5.43 0 1 0 0-10.86 5.43 5.43 0 0 0 0 10.86Z" fill="#CBCBCB"/>
    <path d="M85.4 100.5a5.44 5.44 0 0 0 10.85 0H85.4Z" fill="#fff"/>
    <path d="M87.6 100.5a3.24 3.24 0 0 0 6.45 0H87.6Z" fill="#383842"/>
    <path d="M113.7 105.67a5.43 5.43 0 1 0 0-10.86 5.43 5.43 0 0 0 0 10.86Z" fill="#CBCBCB"/>
    <path d="M108.26 100.5a5.44 5.44 0 0 0 10.86 0h-10.86Z" fill="#fff"/>
    <path d="M110.46 100.5a3.24 3.24 0 0 0 6.46 0h-6.46Z" fill="#383842"/>
    <path d="M100.17 106.61a1.68 1.68 0 0 1-1.15-2.92 4.67 4.67 0 0 1 6.47 0 1.69 1.69 0 1 1-2.3 2.47 1.31 1.31 0 0 0-1.88 0c-.32.3-.73.45-1.14.45Z" fill="#383842"/>
    <path d="M85.76 44.63c1.51 0 2.74-.99 2.74-2.2 0-1.22-1.23-2.21-2.74-2.21-1.52 0-2.74.99-2.74 2.2 0 1.22 1.22 2.2 2.74 2.2Z" fill="#FB99AC"/>
    <path d="M118.03 44.63c1.52 0 2.74-.99 2.74-2.2 0-1.22-1.22-2.21-2.74-2.21-1.51 0-2.74.99-2.74 2.2 0 1.22 1.23 2.2 2.74 2.2Z" fill="#FB99AC"/>
    <path d="M90.46 42.42a5.44 5.44 0 1 0 0-10.87 5.44 5.44 0 0 0 0 10.87Z" fill="#fff"/>
    <path d="M90.54 39.28a3.24 3.24 0 1 0-4.58-4.58 3.24 3.24 0 0 0 4.58 4.58Z" fill="#383842"/>
    <path d="M113.33 42.42a5.44 5.44 0 1 0 0-10.87 5.44 5.44 0 0 0 0 10.87Z" fill="#fff"/>
    <path d="M114.3 37.76a3.24 3.24 0 1 0-6.3-1.5 3.24 3.24 0 0 0 6.3 1.5Z" fill="#383842"/>
    <path d="M103.29 38.3h-2.79c-.55 0-1.04.37-1.2.9-.48 1.67-1.05 5.1 2.6 5.1 3.64 0 3.07-3.43 2.58-5.1-.15-.53-.64-.9-1.2-.9Z" fill="#383842"/>
  </g>
  <defs>
    <linearGradient id="b" x1="101.89" y1="65.95" x2="101.89" y2="17.74" gradientUnits="userSpaceOnUse">
      <stop offset=".02" stop-color="#8959C3"/>
      <stop offset="1" stop-color="#A27CCF"/>
    </linearGradient>
    <linearGradient id="c" x1="37.11" y1="17.74" x2="37.11" y2="65.95" gradientUnits="userSpaceOnUse">
      <stop offset=".02" stop-color="#FFB1DB"/>
      <stop offset="1" stop-color="#FD86C8"/>
    </linearGradient>
    <linearGradient id="d" x1="69.5" y1="96.61" x2="69.5" y2="48.39" gradientUnits="userSpaceOnUse">
      <stop offset=".02" stop-color="#77E4D3"/>
      <stop offset="1" stop-color="#01C2A0"/>
    </linearGradient>
    <linearGradient id="e" x1="37.11" y1="127.26" x2="37.11" y2="79.05" gradientUnits="userSpaceOnUse">
      <stop offset=".02" stop-color="#F7F0A9"/>
      <stop offset="1" stop-color="#F4E46A"/>
    </linearGradient>
    <linearGradient id="f" x1="101.89" y1="127.26" x2="101.89" y2="79.05" gradientUnits="userSpaceOnUse">
      <stop offset="0" stop-color="#5BD4FB"/>
      <stop offset=".98" stop-color="#A2E4FD"/>
    </linearGradient>
    <clipPath id="a">
      <path fill="#fff" transform="translate(13 16)" d="M0 0h113v113H0z"/>
    </clipPath>
  </defs>
</svg>
