<svg width="73" height="87" viewBox="0 0 73 87" fill="none" xmlns="http://www.w3.org/2000/svg">
<path d="M57.3697 85.0196L61.7688 86.7215C61.7688 72.5595 50.6924 64.519 50.6924 64.519H23.0292C23.0292 64.519 12.2711 72.3291 11.9602 86.112L18.9111 84.1551L20.0546 86.7215H53.6671L57.3697 85.0196Z" fill="url(#paint0_linear_30_256)"/>
<path d="M2.33057 39.5147C2.33057 29.859 6.31592 21.118 12.7261 14.8455C12.0393 14.2586 11.4587 13.6234 10.9679 12.9681C8.31253 9.42225 9.30289 4.35385 13.0642 2.0135C14.7137 0.987058 16.692 0.640922 18.5971 1.02212C25.3798 2.37913 36.1986 2.82497 43.9695 2.96195C56.0345 3.17452 66.4978 11.3968 69.5219 23.0786C70.672 27.5216 71.3906 32.9315 71.3906 39.5147H2.33057Z" fill="url(#paint1_linear_30_256)"/>
<path d="M8.2893 46.9995C12.4231 46.9995 15.7741 43.6485 15.7741 39.5147C15.7741 35.3809 12.4231 32.0298 8.2893 32.0298C4.15553 32.0298 0.804443 35.3809 0.804443 39.5147C0.804443 43.6485 4.15553 46.9995 8.2893 46.9995Z" fill="url(#paint2_linear_30_256)"/>
<path d="M65.4319 46.9995C69.5656 46.9995 72.9167 43.6485 72.9167 39.5147C72.9167 35.3809 69.5656 32.0298 65.4319 32.0298C61.2981 32.0298 57.947 35.3809 57.947 39.5147C57.947 43.6485 61.2981 46.9995 65.4319 46.9995Z" fill="url(#paint3_linear_30_256)"/>
<path d="M65.4317 39.5152C65.4317 55.2938 52.641 68.0863 36.8607 68.0863C21.0803 68.0863 8.28955 55.2938 8.28955 39.5152C8.28955 31.7511 11.3851 24.711 16.4104 19.5628C18.1295 17.8016 20.7547 17.2722 23.0414 18.182C39.7922 24.8468 42.7236 18.8024 55.9568 20.4965C57.6516 20.7135 59.1931 21.6119 60.1817 23.0055C63.489 27.6682 65.4317 33.3648 65.4317 39.5152Z" fill="url(#paint4_linear_30_256)"/>
<path d="M49.4688 10.6808C47.9509 10.206 46.3741 9.91275 44.7823 9.80928C43.8441 9.74823 43.133 8.93813 43.1941 7.99993C43.2551 7.06174 44.0644 6.35185 45.0034 6.41154C46.8649 6.53262 48.7092 6.87568 50.4854 7.43114C51.3827 7.71177 51.8826 8.66673 51.6019 9.56422C51.3221 10.4588 50.3685 10.9623 49.4688 10.6808Z" fill="#F3CAC0"/>
<path d="M56.2594 14.3092C55.673 13.8295 55.0589 13.3956 54.434 13.0197C53.6283 12.5349 53.368 11.4888 53.8529 10.6831C54.3373 9.87728 55.3836 9.61717 56.1893 10.102C56.9537 10.562 57.7026 11.0908 58.4154 11.6736C59.1431 12.2689 59.2505 13.3416 58.6552 14.0694C58.058 14.7995 56.9852 14.9029 56.2594 14.3092Z" fill="#F3CAC0"/>
<path d="M17.3419 48.4197C19.1739 48.4197 20.659 47.2262 20.659 45.7539C20.659 44.2816 19.1739 43.0881 17.3419 43.0881C15.5098 43.0881 14.0247 44.2816 14.0247 45.7539C14.0247 47.2262 15.5098 48.4197 17.3419 48.4197Z" fill="#FB99AC"/>
<path d="M56.3795 48.4197C58.2115 48.4197 59.6966 47.2262 59.6966 45.7539C59.6966 44.2816 58.2115 43.0881 56.3795 43.0881C54.5474 43.0881 53.0623 44.2816 53.0623 45.7539C53.0623 47.2262 54.5474 48.4197 56.3795 48.4197Z" fill="#FB99AC"/>
<path d="M23.0289 45.754C26.6618 45.754 29.6068 42.809 29.6068 39.1761C29.6068 35.5432 26.6618 32.5981 23.0289 32.5981C19.396 32.5981 16.4509 35.5432 16.4509 39.1761C16.4509 42.809 19.396 45.754 23.0289 45.754Z" fill="white"/>
<path d="M50.6922 45.754C54.3251 45.754 57.2702 42.809 57.2702 39.1761C57.2702 35.5432 54.3251 32.5981 50.6922 32.5981C47.0593 32.5981 44.1143 35.5432 44.1143 39.1761C44.1143 42.809 47.0593 45.754 50.6922 45.754Z" fill="white"/>
<path d="M23.029 43.0964C25.1942 43.0964 26.9494 41.3412 26.9494 39.1761C26.9494 37.0109 25.1942 35.2557 23.029 35.2557C20.8639 35.2557 19.1086 37.0109 19.1086 39.1761C19.1086 41.3412 20.8639 43.0964 23.029 43.0964Z" fill="#383842"/>
<path d="M50.6921 43.0964C52.8573 43.0964 54.6125 41.3412 54.6125 39.1761C54.6125 37.0109 52.8573 35.2557 50.6921 35.2557C48.5269 35.2557 46.7717 37.0109 46.7717 39.1761C46.7717 41.3412 48.5269 43.0964 50.6921 43.0964Z" fill="#383842"/>
<path d="M36.8606 45.7059C35.7568 45.7059 34.6531 45.2885 33.7525 44.4536C33.4062 44.1326 33.3857 43.5915 33.7067 43.2452C34.0279 42.8989 34.5691 42.8783 34.9151 43.1995C36.0604 44.2615 37.6604 44.2615 38.8057 43.1995C39.1518 42.8787 39.6929 42.8989 40.0141 43.2452C40.3351 43.5915 40.3147 44.1324 39.9683 44.4536C39.068 45.2885 37.9643 45.7059 36.8606 45.7059Z" fill="#383842"/>
<path d="M36.8607 54.795C33.6117 54.795 31.0838 57.6183 31.4412 60.8474L32.4738 70.1772H41.2476L42.2802 60.8474C42.6376 57.6183 40.1097 54.795 36.8607 54.795Z" fill="url(#paint5_linear_30_256)"/>
<path d="M31.6357 62.6077L32.4736 70.1772H41.2474L42.0852 62.6077C40.3759 62.3401 38.6305 62.201 36.8605 62.201C35.0904 62.201 33.345 62.3401 31.6357 62.6077Z" fill="#D86743"/>
<path d="M11.9654 70.9403C9.38412 68.9676 5.6611 69.6756 3.98429 72.4584C2.30747 75.2412 3.42096 78.8636 6.37116 80.224L14.8953 84.1549L19.4236 76.6399L11.9654 70.9403Z" fill="url(#paint6_linear_30_256)"/>
<path d="M61.7558 70.9403C64.3371 68.9676 68.0601 69.6756 69.7369 72.4584C71.4137 75.2412 70.3002 78.8636 67.35 80.224L58.8259 84.1549L54.2976 76.6399L61.7558 70.9403Z" fill="url(#paint7_linear_30_256)"/>
<path d="M6.9126 80.4737L14.8954 84.155L19.4238 76.64L13.2166 71.8964C10.7035 74.3732 8.56615 77.2588 6.9126 80.4737Z" fill="#D86743"/>
<path d="M66.8088 80.4738C65.1554 77.2589 63.018 74.3733 60.5048 71.8963L54.2976 76.64L58.8259 84.1549L66.8088 80.4738Z" fill="#D86743"/>
<path d="M20.0544 86.7215C23.3067 80.7771 29.6206 76.7367 36.8607 76.7367C44.1008 76.7367 50.4146 80.7773 53.6668 86.7215H63.9265C60.1007 75.4454 49.4129 67.3086 36.8605 67.3086C24.3081 67.3086 13.6203 75.4454 9.79468 86.7215H20.0544Z" fill="url(#paint8_linear_30_256)"/>
<path d="M18.9285 82.7121C19.8723 82.3259 20.3242 81.2476 19.938 80.3038C19.5517 79.3601 18.4735 78.9081 17.5297 79.2944C16.5859 79.6807 16.1339 80.7589 16.5202 81.7027C16.9065 82.6465 17.9847 83.0984 18.9285 82.7121Z" fill="#EEDE2C"/>
<path d="M57.2881 81.6573C57.6743 80.7135 57.2224 79.6352 56.2786 79.249C55.3348 78.8627 54.2566 79.3146 53.8703 80.2584C53.484 81.2022 53.936 82.2804 54.8798 82.6667C55.8236 83.053 56.9018 82.601 57.2881 81.6573Z" fill="#EEDE2C"/>
<path d="M36.8606 73.8681C37.8798 73.8681 38.706 73.0419 38.706 72.0227C38.706 71.0035 37.8798 70.1772 36.8606 70.1772C35.8414 70.1772 35.0151 71.0035 35.0151 72.0227C35.0151 73.0419 35.8414 73.8681 36.8606 73.8681Z" fill="#EEDE2C"/>
<defs>
<linearGradient id="paint0_linear_30_256" x1="36.8646" y1="64.519" x2="36.8646" y2="86.7215" gradientUnits="userSpaceOnUse">
<stop stop-color="#78C5E6"/>
<stop offset="0.9788" stop-color="#BBE3F4"/>
</linearGradient>
<linearGradient id="paint1_linear_30_256" x1="2.33057" y1="20.193" x2="71.3906" y2="20.193" gradientUnits="userSpaceOnUse">
<stop stop-color="#D66743"/>
<stop offset="0.9788" stop-color="#E79580"/>
</linearGradient>
<linearGradient id="paint2_linear_30_256" x1="0.804443" y1="39.5147" x2="15.7741" y2="39.5147" gradientUnits="userSpaceOnUse">
<stop offset="0.0212" stop-color="#FDC8BB"/>
<stop offset="1" stop-color="#FDDACC"/>
</linearGradient>
<linearGradient id="paint3_linear_30_256" x1="57.947" y1="39.5147" x2="72.9167" y2="39.5147" gradientUnits="userSpaceOnUse">
<stop offset="0.0212" stop-color="#FDC8BB"/>
<stop offset="1" stop-color="#FDDACC"/>
</linearGradient>
<linearGradient id="paint4_linear_30_256" x1="8.28955" y1="42.915" x2="65.4318" y2="42.915" gradientUnits="userSpaceOnUse">
<stop offset="0.0212" stop-color="#FDC8BB"/>
<stop offset="1" stop-color="#FDDACC"/>
</linearGradient>
<linearGradient id="paint5_linear_30_256" x1="36.8607" y1="70.1772" x2="36.8607" y2="54.795" gradientUnits="userSpaceOnUse">
<stop stop-color="#D66743"/>
<stop offset="0.9788" stop-color="#E79580"/>
</linearGradient>
<linearGradient id="paint6_linear_30_256" x1="11.3121" y1="84.1549" x2="11.3121" y2="69.8193" gradientUnits="userSpaceOnUse">
<stop stop-color="#D66743"/>
<stop offset="0.9788" stop-color="#E79580"/>
</linearGradient>
<linearGradient id="paint7_linear_30_256" x1="62.4092" y1="84.1549" x2="62.4092" y2="69.8193" gradientUnits="userSpaceOnUse">
<stop stop-color="#D66743"/>
<stop offset="0.9788" stop-color="#E79580"/>
</linearGradient>
<linearGradient id="paint8_linear_30_256" x1="36.8605" y1="86.7215" x2="36.8605" y2="67.3086" gradientUnits="userSpaceOnUse">
<stop stop-color="#D66743"/>
<stop offset="0.9788" stop-color="#E79580"/>
</linearGradient>
</defs>
</svg>
