<svg viewBox="0 0 18 23" fill="none" xmlns="http://www.w3.org/2000/svg">
<path d="M5.46826 7.39506L5.46626 7.39606L5.46326 7.39806L5.46826 7.39506ZM15.4223 7.20806C15.3527 7.14094 15.2755 7.0822 15.1923 7.03306C15.0744 6.96368 14.9436 6.91921 14.8079 6.90239C14.6722 6.88557 14.5344 6.89677 14.4032 6.93529C14.272 6.97381 14.1501 7.03884 14.045 7.12635C13.9399 7.21386 13.8539 7.32199 13.7923 7.44406C13.4479 8.12298 12.9728 8.7272 12.3943 9.22206C12.483 8.72361 12.5278 8.21834 12.5283 7.71206C12.5302 6.1722 12.124 4.65933 11.3511 3.32748C10.5782 1.99564 9.46618 0.89239 8.12826 0.130058C7.98083 0.0462871 7.81451 0.00138359 7.64495 -0.000431011C7.47538 -0.00224561 7.30815 0.0390883 7.15895 0.119685C7.00976 0.200282 6.88351 0.317495 6.79207 0.460304C6.70064 0.603113 6.64702 0.766828 6.63626 0.936058C6.58027 1.88416 6.3324 2.81102 5.90766 3.66051C5.48292 4.50999 4.89015 5.26441 4.16526 5.87806L3.93526 6.06506C3.17688 6.5753 2.50561 7.20436 1.94726 7.92806C1.07954 9.02117 0.478451 10.3014 0.191678 11.6673C-0.0950947 13.0332 -0.0596659 14.4471 0.295155 15.7969C0.649976 17.1467 1.31443 18.3952 2.23581 19.4435C3.15719 20.4918 4.31016 21.311 5.60326 21.8361C5.75508 21.8979 5.91976 21.9214 6.08281 21.9046C6.24586 21.8878 6.40228 21.8311 6.5383 21.7397C6.67431 21.6482 6.78576 21.5247 6.86283 21.38C6.9399 21.2354 6.98023 21.074 6.98026 20.9101C6.97943 20.8041 6.96257 20.6989 6.93026 20.5981C6.70652 19.7571 6.64208 18.8817 6.74026 18.0171C7.68674 19.8016 9.20581 21.2161 11.0533 22.0331C11.2787 22.1338 11.5334 22.1474 11.7683 22.0711C13.2277 21.5999 14.5425 20.7634 15.5877 19.6411C16.6328 18.5187 17.3737 17.1478 17.7398 15.6585C18.1059 14.1692 18.0852 12.611 17.6796 11.132C17.274 9.65296 16.4969 8.30221 15.4223 7.20806ZM11.5173 20.0391C10.6456 19.5974 9.87656 18.9771 9.26029 18.2187C8.64401 17.4603 8.19426 16.5807 7.94026 15.6371C7.86261 15.3193 7.80252 14.9975 7.76026 14.6731C7.73181 14.4665 7.63949 14.274 7.49622 14.1225C7.35296 13.971 7.16592 13.868 6.96126 13.8281C6.89834 13.8158 6.83436 13.8098 6.77026 13.8101C6.59456 13.8099 6.42191 13.856 6.26971 13.9438C6.1175 14.0316 5.99111 14.1579 5.90326 14.3101C5.07371 15.7413 4.65664 17.3743 4.69826 19.0281C3.96842 18.4608 3.35844 17.7542 2.90368 16.9494C2.44892 16.1447 2.15842 15.2576 2.04904 14.3397C1.93965 13.4218 2.01354 12.4913 2.26643 11.6022C2.51932 10.7131 2.94618 9.88299 3.52226 9.16006C3.95968 8.5919 4.48736 8.09936 5.08426 7.70206C5.11038 7.68531 5.13543 7.66694 5.15926 7.64706C5.15926 7.64706 5.45526 7.40206 5.46526 7.39706C6.89046 6.1921 7.90423 4.57253 8.36526 2.76406C9.45469 3.77143 10.181 5.11032 10.4315 6.57282C10.6819 8.03533 10.4424 9.53961 9.75026 10.8521C9.65866 11.0272 9.62103 11.2256 9.64213 11.4222C9.66323 11.6187 9.74212 11.8046 9.86882 11.9564C9.99552 12.1081 10.1644 12.2189 10.354 12.2747C10.5436 12.3306 10.7456 12.3289 10.9343 12.2701C12.466 11.7897 13.8138 10.8516 14.7963 9.58206C15.387 10.4543 15.7732 11.4486 15.9261 12.4909C16.0791 13.5331 15.9948 14.5965 15.6796 15.6017C15.3644 16.6068 14.8264 17.5279 14.1057 18.2962C13.385 19.0645 12.5002 19.6603 11.5173 20.0391Z" fill="url(#paint0_linear_118_553)"/>
<defs>
<linearGradient id="paint0_linear_118_553" x1="8.99995" y1="-0.000488281" x2="8.99995" y2="22.1199" gradientUnits="userSpaceOnUse">
<stop stop-color="white"/>
<stop offset="1" stop-color="#FFD88C"/>
</linearGradient>
</defs>
</svg>
