<svg width="95" height="11" viewBox="0 0 95 11" fill="none" xmlns="http://www.w3.org/2000/svg">
<path d="M9.93555 0.361816V10.3999H7.68115V2.18018H4.84229L4.65674 5.67773C4.53923 7.36003 4.21452 8.56917 3.68262 9.30518C3.1569 10.035 2.34977 10.3999 1.26123 10.3999H0.56543L0.556152 8.52588L1.02002 8.47949C1.51481 8.41146 1.87354 8.11149 2.09619 7.57959C2.32503 7.0415 2.47038 6.06429 2.53223 4.64795L2.71777 0.361816H9.93555ZM15.9966 5.28809C15.9966 4.30469 16.1914 3.42025 16.5811 2.63477C16.9707 1.8431 17.5181 1.23698 18.2232 0.816406C18.9283 0.389648 19.7385 0.17627 20.6538 0.17627C22.0083 0.17627 23.1062 0.612305 23.9473 1.48438C24.7946 2.35645 25.2523 3.51302 25.3204 4.9541L25.3296 5.48291C25.3296 6.47249 25.1379 7.35693 24.7544 8.13623C24.3772 8.91553 23.8329 9.51855 23.1216 9.94531C22.4165 10.3721 21.6001 10.5854 20.6724 10.5854C19.2561 10.5854 18.1211 10.1154 17.2676 9.17529C16.4203 8.229 15.9966 6.97038 15.9966 5.39941V5.28809ZM18.251 5.48291C18.251 6.51579 18.4644 7.32601 18.8912 7.91357C19.3179 8.49495 19.9117 8.78564 20.6724 8.78564C21.4331 8.78564 22.0238 8.48877 22.4444 7.89502C22.8711 7.30127 23.0845 6.43229 23.0845 5.28809C23.0845 4.27376 22.8649 3.46973 22.4258 2.87598C21.9929 2.28223 21.4022 1.98535 20.6538 1.98535C19.9178 1.98535 19.3334 2.27913 18.9004 2.8667C18.4675 3.44808 18.251 4.32015 18.251 5.48291ZM38.0054 2.18018H33.6451V10.3999H31.4V0.361816H38.0054V2.18018ZM42.7584 5.28809C42.7584 4.30469 42.9532 3.42025 43.3429 2.63477C43.7325 1.8431 44.2799 1.23698 44.985 0.816406C45.6901 0.389648 46.5003 0.17627 47.4156 0.17627C48.7701 0.17627 49.868 0.612305 50.7091 1.48438C51.5564 2.35645 52.0141 3.51302 52.0821 4.9541L52.0914 5.48291C52.0914 6.47249 51.8997 7.35693 51.5162 8.13623C51.139 8.91553 50.5947 9.51855 49.8834 9.94531C49.1783 10.3721 48.3619 10.5854 47.4342 10.5854C46.0179 10.5854 44.8829 10.1154 44.0294 9.17529C43.1821 8.229 42.7584 6.97038 42.7584 5.39941V5.28809ZM45.0128 5.48291C45.0128 6.51579 45.2262 7.32601 45.653 7.91357C46.0797 8.49495 46.6735 8.78564 47.4342 8.78564C48.1949 8.78564 48.7856 8.48877 49.2062 7.89502C49.6329 7.30127 49.8463 6.43229 49.8463 5.28809C49.8463 4.27376 49.6267 3.46973 49.1876 2.87598C48.7547 2.28223 48.164 1.98535 47.4156 1.98535C46.6796 1.98535 46.0952 2.27913 45.6622 2.8667C45.2293 3.44808 45.0128 4.32015 45.0128 5.48291ZM65.7043 2.15234H62.4479V10.3999H60.1935V2.15234H56.9743V0.361816H65.7043V2.15234ZM77.5637 0.361816H79.8088V10.3999H77.5637V3.70166L73.6301 10.3999H71.385V0.361816H73.6301V7.06006L77.5637 0.361816ZM94.8039 10.3999H92.5496V2.18018H88.6345V10.3999H86.3801V0.361816H94.8039V10.3999Z" fill="white"/>
</svg>
