<svg width="40" height="40" viewBox="0 0 40 40" fill="none" xmlns="http://www.w3.org/2000/svg">
<path d="M19.9998 10.4C18.1011 10.4 16.245 10.963 14.6663 12.0179C13.0876 13.0728 11.8571 14.5721 11.1305 16.3262C10.4039 18.0804 10.2138 20.0106 10.5842 21.8729C10.9546 23.7351 11.8689 25.4456 13.2115 26.7882C14.5541 28.1308 16.2647 29.0451 18.1269 29.4155C19.9891 29.786 21.9193 29.5958 23.6735 28.8692C25.4277 28.1426 26.927 26.9122 27.9819 25.3335C29.0367 23.7548 29.5998 21.8987 29.5998 20C29.5969 17.4548 28.5846 15.0147 26.7848 13.2149C24.9851 11.4152 22.545 10.4029 19.9998 10.4ZM19.9998 26.4C18.734 26.4 17.4966 26.0246 16.4441 25.3214C15.3916 24.6182 14.5713 23.6186 14.0869 22.4492C13.6025 21.2797 13.4758 19.9929 13.7227 18.7514C13.9697 17.5099 14.5792 16.3696 15.4743 15.4745C16.3693 14.5795 17.5097 13.9699 18.7512 13.723C19.9927 13.476 21.2795 13.6028 22.4489 14.0872C23.6184 14.5716 24.6179 15.3919 25.3212 16.4444C26.0244 17.4968 26.3998 18.7342 26.3998 20C26.3979 21.6968 25.723 23.3236 24.5231 24.5234C23.3233 25.7232 21.6966 26.3981 19.9998 26.4ZM28.7998 0H11.1998C8.23037 0.00338778 5.38358 1.18447 3.2839 3.28415C1.18423 5.38382 0.00314364 8.23062 -0.000244141 11.2V28.8C0.00314364 31.7694 1.18423 34.6162 3.2839 36.7159C5.38358 38.8155 8.23037 39.9966 11.1998 40H28.7998C31.7691 39.9966 34.6159 38.8155 36.7156 36.7159C38.8153 34.6162 39.9964 31.7694 39.9998 28.8V11.2C39.9964 8.23062 38.8153 5.38382 36.7156 3.28415C34.6159 1.18447 31.7691 0.00338778 28.7998 0ZM36.7998 28.8C36.7974 30.921 35.9538 32.9544 34.454 34.4542C32.9542 35.954 30.9208 36.7976 28.7998 36.8H11.1998C9.07876 36.7976 7.04531 35.954 5.54553 34.4542C4.04576 32.9544 3.20214 30.921 3.19976 28.8V11.2C3.20214 9.079 4.04576 7.04555 5.54553 5.54578C7.04531 4.046 9.07876 3.20238 11.1998 3.2H28.7998C30.9208 3.20238 32.9542 4.046 34.454 5.54578C35.9538 7.04555 36.7974 9.079 36.7998 11.2V28.8ZM32.7998 9.6C32.7998 10.0747 32.659 10.5387 32.3953 10.9334C32.1316 11.328 31.7567 11.6357 31.3182 11.8173C30.8797 11.999 30.3971 12.0465 29.9315 11.9539C29.466 11.8613 29.0383 11.6327 28.7027 11.2971C28.3671 10.9614 28.1385 10.5338 28.0459 10.0682C27.9533 9.60266 28.0008 9.1201 28.1824 8.68156C28.3641 8.24302 28.6717 7.86819 29.0664 7.60447C29.4611 7.34076 29.9251 7.2 30.3998 7.2C31.0363 7.2 31.6467 7.45286 32.0968 7.90294C32.5469 8.35303 32.7998 8.96348 32.7998 9.6Z" fill="white"/>
</svg>
