<svg width="210" height="59" viewBox="0 0 210 59" fill="none" xmlns="http://www.w3.org/2000/svg">
<path d="M38.0183 55C37.8983 55 37.7963 54.958 37.7123 54.874C37.6283 54.79 37.5863 54.688 37.5863 54.568V44.65H33.6803V46.918C33.6803 48.898 33.5423 50.464 33.2663 51.616C33.0023 52.756 32.5463 53.596 31.8983 54.136C31.2503 54.664 30.3503 54.946 29.1983 54.982C29.0783 54.994 28.9703 54.958 28.8743 54.874C28.7903 54.79 28.7483 54.682 28.7483 54.55V53.2C28.7483 53.08 28.7843 52.984 28.8563 52.912C28.9283 52.84 29.0303 52.792 29.1623 52.768C29.8703 52.648 30.3923 52.09 30.7283 51.094C31.0763 50.086 31.2503 48.586 31.2503 46.594V42.832C31.2503 42.7 31.2923 42.598 31.3763 42.526C31.4603 42.442 31.5623 42.4 31.6823 42.4H39.6383C39.7703 42.4 39.8783 42.442 39.9623 42.526C40.0463 42.61 40.0883 42.718 40.0883 42.85V54.568C40.0883 54.7 40.0463 54.808 39.9623 54.892C39.8783 54.964 39.7703 55 39.6383 55H38.0183ZM45.405 55.18C44.793 55.18 44.229 55.06 43.713 54.82C43.209 54.568 42.807 54.232 42.507 53.812C42.219 53.392 42.075 52.93 42.075 52.426C42.075 51.61 42.405 50.95 43.065 50.446C43.725 49.942 44.631 49.6 45.783 49.42L48.249 49.06V48.682C48.249 48.154 48.117 47.758 47.853 47.494C47.589 47.23 47.163 47.098 46.575 47.098C46.179 47.098 45.855 47.176 45.603 47.332C45.363 47.476 45.171 47.62 45.027 47.764C44.883 47.92 44.787 48.022 44.739 48.07C44.691 48.214 44.601 48.286 44.469 48.286H43.083C42.975 48.286 42.879 48.25 42.795 48.178C42.723 48.106 42.687 48.01 42.687 47.89C42.699 47.59 42.843 47.248 43.119 46.864C43.407 46.48 43.845 46.15 44.433 45.874C45.021 45.598 45.741 45.46 46.593 45.46C48.009 45.46 49.041 45.778 49.689 46.414C50.337 47.05 50.661 47.884 50.661 48.916V54.568C50.661 54.688 50.619 54.79 50.535 54.874C50.463 54.958 50.361 55 50.229 55H48.771C48.651 55 48.549 54.958 48.465 54.874C48.381 54.79 48.339 54.688 48.339 54.568V53.866C48.075 54.25 47.697 54.568 47.205 54.82C46.725 55.06 46.125 55.18 45.405 55.18ZM46.017 53.47C46.677 53.47 47.217 53.254 47.637 52.822C48.057 52.39 48.267 51.76 48.267 50.932V50.554L46.467 50.842C45.771 50.95 45.243 51.124 44.883 51.364C44.535 51.604 44.361 51.898 44.361 52.246C44.361 52.63 44.523 52.93 44.847 53.146C45.171 53.362 45.561 53.47 46.017 53.47ZM61.7002 50.104C61.7122 50.236 61.7182 50.44 61.7182 50.716C61.7182 50.98 61.7122 51.172 61.7002 51.292C61.6402 52.492 61.2262 53.44 60.4582 54.136C59.7022 54.832 58.6162 55.18 57.2002 55.18C55.7122 55.18 54.6022 54.796 53.8702 54.028C53.1502 53.248 52.7602 52.102 52.7002 50.59L52.6822 49.51L52.7002 48.43C52.7362 46.726 53.0002 45.448 53.4922 44.596C53.9842 43.732 54.6982 43.108 55.6342 42.724C56.5702 42.328 58.0822 41.878 60.1702 41.374L60.2602 41.356C60.3562 41.356 60.4462 41.392 60.5302 41.464C60.6142 41.524 60.6622 41.608 60.6742 41.716L60.9082 42.904L60.9262 43.012C60.9262 43.108 60.8962 43.192 60.8362 43.264C60.7762 43.324 60.6982 43.366 60.6022 43.39L60.0262 43.516C58.5982 43.84 57.5722 44.116 56.9482 44.344C56.3362 44.56 55.8682 44.896 55.5442 45.352C55.2202 45.808 55.0342 46.492 54.9862 47.404C55.2742 47.044 55.6522 46.756 56.1202 46.54C56.6002 46.324 57.1042 46.216 57.6322 46.216C58.8922 46.216 59.8702 46.564 60.5662 47.26C61.2622 47.956 61.6402 48.904 61.7002 50.104ZM59.2522 51.202C59.2642 51.118 59.2702 50.962 59.2702 50.734C59.2702 50.482 59.2642 50.302 59.2522 50.194C59.2282 49.45 59.0482 48.88 58.7122 48.484C58.3762 48.076 57.9202 47.872 57.3442 47.872C56.6842 47.872 56.1622 48.076 55.7782 48.484C55.3942 48.88 55.1902 49.45 55.1662 50.194L55.1482 50.734L55.1662 51.202C55.1902 51.958 55.3762 52.534 55.7242 52.93C56.0722 53.326 56.5642 53.524 57.2002 53.524C57.8362 53.524 58.3282 53.332 58.6762 52.948C59.0362 52.552 59.2282 51.97 59.2522 51.202ZM67.8505 55.18C66.4465 55.18 65.3605 54.82 64.5925 54.1C63.8245 53.368 63.4105 52.372 63.3505 51.112L63.3325 50.32L63.3505 49.528C63.4105 48.28 63.8305 47.29 64.6105 46.558C65.3905 45.826 66.4705 45.46 67.8505 45.46C69.2305 45.46 70.3105 45.826 71.0905 46.558C71.8705 47.29 72.2905 48.28 72.3505 49.528C72.3625 49.672 72.3685 49.936 72.3685 50.32C72.3685 50.704 72.3625 50.968 72.3505 51.112C72.2905 52.372 71.8765 53.368 71.1085 54.1C70.3405 54.82 69.2545 55.18 67.8505 55.18ZM67.8505 53.398C68.4865 53.398 68.9785 53.2 69.3265 52.804C69.6745 52.396 69.8665 51.802 69.9025 51.022C69.9145 50.902 69.9205 50.668 69.9205 50.32C69.9205 49.972 69.9145 49.738 69.9025 49.618C69.8665 48.838 69.6745 48.25 69.3265 47.854C68.9785 47.446 68.4865 47.242 67.8505 47.242C67.2145 47.242 66.7225 47.446 66.3745 47.854C66.0265 48.25 65.8345 48.838 65.7985 49.618L65.7805 50.32L65.7985 51.022C65.8345 51.802 66.0265 52.396 66.3745 52.804C66.7225 53.2 67.2145 53.398 67.8505 53.398ZM74.8128 58.42C74.6928 58.42 74.5908 58.378 74.5068 58.294C74.4228 58.222 74.3808 58.12 74.3808 57.988V46.072C74.3808 45.94 74.4228 45.838 74.5068 45.766C74.5908 45.682 74.6928 45.64 74.8128 45.64H76.2348C76.3668 45.64 76.4688 45.682 76.5408 45.766C76.6248 45.838 76.6668 45.94 76.6668 46.072V46.792C77.3388 45.904 78.2988 45.46 79.5468 45.46C80.7588 45.46 81.6888 45.844 82.3368 46.612C82.9848 47.368 83.3328 48.394 83.3808 49.69C83.3928 49.834 83.3988 50.044 83.3988 50.32C83.3988 50.608 83.3928 50.824 83.3808 50.968C83.3328 52.228 82.9848 53.248 82.3368 54.028C81.6888 54.796 80.7588 55.18 79.5468 55.18C78.3348 55.18 77.4108 54.754 76.7748 53.902V57.988C76.7748 58.12 76.7328 58.222 76.6488 58.294C76.5768 58.378 76.4748 58.42 76.3428 58.42H74.8128ZM78.8808 53.254C80.1768 53.254 80.8668 52.456 80.9508 50.86C80.9628 50.74 80.9688 50.56 80.9688 50.32C80.9688 50.08 80.9628 49.9 80.9508 49.78C80.8668 48.184 80.1768 47.386 78.8808 47.386C78.1848 47.386 77.6688 47.608 77.3328 48.052C76.9968 48.496 76.8108 49.042 76.7748 49.69L76.7568 50.374L76.7748 51.076C76.7988 51.676 76.9848 52.192 77.3328 52.624C77.6928 53.044 78.2088 53.254 78.8808 53.254ZM88.1374 55.18C87.5254 55.18 86.9614 55.06 86.4454 54.82C85.9414 54.568 85.5394 54.232 85.2394 53.812C84.9514 53.392 84.8074 52.93 84.8074 52.426C84.8074 51.61 85.1374 50.95 85.7974 50.446C86.4574 49.942 87.3634 49.6 88.5154 49.42L90.9814 49.06V48.682C90.9814 48.154 90.8494 47.758 90.5854 47.494C90.3214 47.23 89.8954 47.098 89.3074 47.098C88.9114 47.098 88.5874 47.176 88.3354 47.332C88.0954 47.476 87.9034 47.62 87.7594 47.764C87.6154 47.92 87.5194 48.022 87.4714 48.07C87.4234 48.214 87.3334 48.286 87.2014 48.286H85.8154C85.7074 48.286 85.6114 48.25 85.5274 48.178C85.4554 48.106 85.4194 48.01 85.4194 47.89C85.4314 47.59 85.5754 47.248 85.8514 46.864C86.1394 46.48 86.5774 46.15 87.1654 45.874C87.7534 45.598 88.4734 45.46 89.3254 45.46C90.7414 45.46 91.7734 45.778 92.4214 46.414C93.0694 47.05 93.3934 47.884 93.3934 48.916V54.568C93.3934 54.688 93.3514 54.79 93.2674 54.874C93.1954 54.958 93.0934 55 92.9614 55H91.5034C91.3834 55 91.2814 54.958 91.1974 54.874C91.1134 54.79 91.0714 54.688 91.0714 54.568V53.866C90.8074 54.25 90.4294 54.568 89.9374 54.82C89.4574 55.06 88.8574 55.18 88.1374 55.18ZM88.7494 53.47C89.4094 53.47 89.9494 53.254 90.3694 52.822C90.7894 52.39 90.9994 51.76 90.9994 50.932V50.554L89.1994 50.842C88.5034 50.95 87.9754 51.124 87.6154 51.364C87.2674 51.604 87.0934 51.898 87.0934 52.246C87.0934 52.63 87.2554 52.93 87.5794 53.146C87.9034 53.362 88.2934 53.47 88.7494 53.47ZM98.5646 55C98.4446 55 98.3426 54.958 98.2586 54.874C98.1746 54.79 98.1326 54.688 98.1326 54.568V47.548H95.1986C95.0786 47.548 94.9766 47.506 94.8926 47.422C94.8086 47.338 94.7666 47.23 94.7666 47.098V46.072C94.7666 45.94 94.8086 45.838 94.8926 45.766C94.9766 45.682 95.0786 45.64 95.1986 45.64H103.371C103.503 45.64 103.611 45.682 103.695 45.766C103.779 45.85 103.821 45.952 103.821 46.072V47.098C103.821 47.218 103.779 47.326 103.695 47.422C103.611 47.506 103.503 47.548 103.371 47.548H100.455V54.568C100.455 54.688 100.413 54.79 100.329 54.874C100.257 54.958 100.155 55 100.023 55H98.5646ZM109.388 55.18C107.984 55.18 106.898 54.82 106.13 54.1C105.362 53.368 104.948 52.372 104.888 51.112L104.87 50.32L104.888 49.528C104.948 48.28 105.368 47.29 106.148 46.558C106.928 45.826 108.008 45.46 109.388 45.46C110.768 45.46 111.848 45.826 112.628 46.558C113.408 47.29 113.828 48.28 113.888 49.528C113.9 49.672 113.906 49.936 113.906 50.32C113.906 50.704 113.9 50.968 113.888 51.112C113.828 52.372 113.414 53.368 112.646 54.1C111.878 54.82 110.792 55.18 109.388 55.18ZM109.388 53.398C110.024 53.398 110.516 53.2 110.864 52.804C111.212 52.396 111.404 51.802 111.44 51.022C111.452 50.902 111.458 50.668 111.458 50.32C111.458 49.972 111.452 49.738 111.44 49.618C111.404 48.838 111.212 48.25 110.864 47.854C110.516 47.446 110.024 47.242 109.388 47.242C108.752 47.242 108.26 47.446 107.912 47.854C107.564 48.25 107.372 48.838 107.336 49.618L107.318 50.32L107.336 51.022C107.372 51.802 107.564 52.396 107.912 52.804C108.26 53.2 108.752 53.398 109.388 53.398ZM116.35 58.42C116.23 58.42 116.128 58.378 116.044 58.294C115.96 58.222 115.918 58.12 115.918 57.988V46.072C115.918 45.94 115.96 45.838 116.044 45.766C116.128 45.682 116.23 45.64 116.35 45.64H117.772C117.904 45.64 118.006 45.682 118.078 45.766C118.162 45.838 118.204 45.94 118.204 46.072V46.792C118.876 45.904 119.836 45.46 121.084 45.46C122.296 45.46 123.226 45.844 123.874 46.612C124.522 47.368 124.87 48.394 124.918 49.69C124.93 49.834 124.936 50.044 124.936 50.32C124.936 50.608 124.93 50.824 124.918 50.968C124.87 52.228 124.522 53.248 123.874 54.028C123.226 54.796 122.296 55.18 121.084 55.18C119.872 55.18 118.948 54.754 118.312 53.902V57.988C118.312 58.12 118.27 58.222 118.186 58.294C118.114 58.378 118.012 58.42 117.88 58.42H116.35ZM120.418 53.254C121.714 53.254 122.404 52.456 122.488 50.86C122.5 50.74 122.506 50.56 122.506 50.32C122.506 50.08 122.5 49.9 122.488 49.78C122.404 48.184 121.714 47.386 120.418 47.386C119.722 47.386 119.206 47.608 118.87 48.052C118.534 48.496 118.348 49.042 118.312 49.69L118.294 50.374L118.312 51.076C118.336 51.676 118.522 52.192 118.87 52.624C119.23 53.044 119.746 53.254 120.418 53.254ZM135.489 45.64C135.597 45.64 135.693 45.682 135.777 45.766C135.861 45.838 135.903 45.928 135.903 46.036V54.568C135.903 54.688 135.861 54.79 135.777 54.874C135.693 54.958 135.591 55 135.471 55H133.977C133.857 55 133.755 54.958 133.671 54.874C133.587 54.79 133.545 54.688 133.545 54.568V48.79L129.225 54.712C129.117 54.904 128.955 55 128.739 55H127.371C127.263 55 127.167 54.964 127.083 54.892C126.999 54.808 126.957 54.706 126.957 54.586V46.072C126.957 45.952 126.999 45.85 127.083 45.766C127.167 45.682 127.269 45.64 127.389 45.64H128.883C129.015 45.64 129.117 45.682 129.189 45.766C129.273 45.838 129.315 45.94 129.315 46.072V51.868L133.635 45.928C133.767 45.736 133.929 45.64 134.121 45.64H135.489ZM145.641 45.64C145.773 45.64 145.875 45.682 145.947 45.766C146.031 45.838 146.073 45.94 146.073 46.072V54.568C146.073 54.688 146.031 54.79 145.947 54.874C145.875 54.958 145.773 55 145.641 55H144.111C143.991 55 143.889 54.958 143.805 54.874C143.721 54.79 143.679 54.688 143.679 54.568V51.814H142.077L140.295 54.73C140.187 54.91 140.037 55 139.845 55H138.351C138.243 55 138.153 54.964 138.081 54.892C138.009 54.82 137.973 54.736 137.973 54.64C137.973 54.532 138.009 54.436 138.081 54.352L139.971 51.382C139.407 51.142 138.981 50.794 138.693 50.338C138.405 49.87 138.261 49.318 138.261 48.682C138.261 47.674 138.573 46.918 139.197 46.414C139.833 45.898 140.757 45.64 141.969 45.64H145.641ZM143.715 47.35H142.023C141.459 47.35 141.045 47.452 140.781 47.656C140.529 47.86 140.403 48.202 140.403 48.682C140.403 49.126 140.529 49.474 140.781 49.726C141.033 49.978 141.411 50.104 141.915 50.104H143.715V47.35ZM161.153 45.64C161.261 45.64 161.357 45.682 161.441 45.766C161.525 45.838 161.567 45.928 161.567 46.036V54.568C161.567 54.688 161.525 54.79 161.441 54.874C161.357 54.958 161.255 55 161.135 55H159.641C159.521 55 159.419 54.958 159.335 54.874C159.251 54.79 159.209 54.688 159.209 54.568V48.79L154.889 54.712C154.781 54.904 154.619 55 154.403 55H153.035C152.927 55 152.831 54.964 152.747 54.892C152.663 54.808 152.621 54.706 152.621 54.586V46.072C152.621 45.952 152.663 45.85 152.747 45.766C152.831 45.682 152.933 45.64 153.053 45.64H154.547C154.679 45.64 154.781 45.682 154.853 45.766C154.937 45.838 154.979 45.94 154.979 46.072V51.868L159.299 45.928C159.431 45.736 159.593 45.64 159.785 45.64H161.153ZM164.267 55C164.147 55 164.045 54.958 163.961 54.874C163.877 54.79 163.835 54.688 163.835 54.568V46.072C163.835 45.952 163.877 45.85 163.961 45.766C164.045 45.682 164.147 45.64 164.267 45.64H169.973C170.105 45.64 170.207 45.682 170.279 45.766C170.363 45.838 170.405 45.94 170.405 46.072V47.098C170.405 47.23 170.363 47.338 170.279 47.422C170.195 47.506 170.093 47.548 169.973 47.548H166.193V54.568C166.193 54.688 166.151 54.79 166.067 54.874C165.995 54.958 165.893 55 165.761 55H164.267ZM172.301 58.42C172.181 58.42 172.079 58.378 171.995 58.294C171.911 58.222 171.869 58.12 171.869 57.988V46.072C171.869 45.94 171.911 45.838 171.995 45.766C172.079 45.682 172.181 45.64 172.301 45.64H173.723C173.855 45.64 173.957 45.682 174.029 45.766C174.113 45.838 174.155 45.94 174.155 46.072V46.792C174.827 45.904 175.787 45.46 177.035 45.46C178.247 45.46 179.177 45.844 179.825 46.612C180.473 47.368 180.821 48.394 180.869 49.69C180.881 49.834 180.887 50.044 180.887 50.32C180.887 50.608 180.881 50.824 180.869 50.968C180.821 52.228 180.473 53.248 179.825 54.028C179.177 54.796 178.247 55.18 177.035 55.18C175.823 55.18 174.899 54.754 174.263 53.902V57.988C174.263 58.12 174.221 58.222 174.137 58.294C174.065 58.378 173.963 58.42 173.831 58.42H172.301ZM176.369 53.254C177.665 53.254 178.355 52.456 178.439 50.86C178.451 50.74 178.457 50.56 178.457 50.32C178.457 50.08 178.451 49.9 178.439 49.78C178.355 48.184 177.665 47.386 176.369 47.386C175.673 47.386 175.157 47.608 174.821 48.052C174.485 48.496 174.299 49.042 174.263 49.69L174.245 50.374L174.263 51.076C174.287 51.676 174.473 52.192 174.821 52.624C175.181 53.044 175.697 53.254 176.369 53.254Z" fill="#FAFAF9"/>
<g clip-path="url(#clip0_314_2624)">
<path d="M59.9526 25.0866C59.7556 24.7698 59.4892 24.6114 59.15 24.6114C58.734 24.6114 58.3802 24.7956 58.0956 25.1639C57.0011 26.5304 55.6585 27.6169 54.0715 28.4162C52.4809 29.2192 51.0763 29.6206 49.8504 29.6206C48.2342 29.6206 47.4279 28.965 47.4279 27.6501C47.4279 26.4936 47.9424 25.3296 48.9712 24.1584C50 22.9871 51.7767 21.418 54.305 19.4438C55.2426 18.7072 55.7096 17.7348 55.7096 16.5267C55.7096 16 55.5783 15.6059 55.3192 15.3444C55.0602 15.0829 54.7063 14.9503 54.2649 14.9503C53.9256 14.9503 53.3783 15.1087 52.6231 15.4254C52.5173 15.4512 52.2911 15.5322 51.9409 15.6611C51.5907 15.7937 51.193 15.9116 50.7479 16.0147C50.3065 16.1215 49.8614 16.1731 49.4199 16.1731C48.5079 16.1731 47.8366 16.0221 47.4097 15.7201C46.9792 15.418 46.6217 14.9503 46.3371 14.3204C45.8701 13.2413 45.0493 12.7035 43.8745 12.7035C42.2328 12.7035 41.1638 13.5838 40.6713 15.3481C40.124 17.3186 39.595 18.9061 39.0879 20.0994C38.5808 21.2965 38.0409 22.3794 37.4681 23.3554C36.9026 24.3315 36.0562 25.4659 34.958 26.7403C34.4144 27.2891 33.9146 27.7274 33.4659 28.0479C32.645 28.6262 31.8059 28.9171 30.9449 28.9171C30.0328 28.9171 29.3251 28.6409 28.8143 28.0884C28.3072 27.5359 28.0518 26.7072 28.0518 25.6022C28.0518 24.6556 28.1831 23.5249 28.4422 22.2099L30.8245 10.9282C31.266 8.98343 31.5396 7.09024 31.6454 5.24862L35.5928 5.76059C35.7497 5.78637 35.9686 5.80111 36.2568 5.80111C37.0376 5.80111 37.625 5.59853 38.0153 5.18969C38.4057 4.78085 38.6027 4.18416 38.6027 3.39595C38.6027 2.86925 38.4276 2.40516 38.0773 1.99632C37.7271 1.58748 37.147 1.3186 36.3371 1.186C31.4374 0.394107 26.4356 0 21.3316 0C16.4101 0 12.3896 0.316759 9.27764 0.946593C6.16563 1.57643 3.84166 2.5709 2.30208 3.92634C0.769792 5.27808 0 7.07551 0 9.30755C0 10.361 0.167822 11.3002 0.507114 12.1289C0.846406 12.9576 1.27326 13.5948 1.79497 14.0405C2.08318 14.302 2.44436 14.4346 2.88946 14.4346C3.51332 14.4346 4.10799 14.2173 4.66618 13.7827C5.22437 13.3481 5.50529 12.8692 5.50529 12.3425C5.50529 12.0552 5.43962 11.8158 5.30828 11.6317C4.86684 10.9466 4.64429 10.1473 4.64429 9.22652C4.64429 8.09576 5.18424 7.20074 6.26414 6.54512C7.34404 5.8895 9.09522 5.41436 11.5177 5.12707L11.1273 7.02026C10.737 8.93923 10.3466 10.9392 9.95622 13.0166C9.56585 15.0939 9.20102 17.2228 8.86173 19.407C8.70485 20.5893 8.48231 21.9853 8.19774 23.5875C7.93871 25.1934 7.70887 26.7219 7.51551 28.1842C7.3185 29.6427 7.22364 30.6888 7.22364 31.3186C7.22364 32.0037 7.45713 32.5562 7.92776 32.9761C8.39839 33.396 9.06239 33.6059 9.91974 33.6059C10.726 33.6059 11.4155 33.4033 11.992 32.9945C12.5648 32.5856 12.8785 32.0037 12.9296 31.2376C13.0354 29.7901 13.2433 27.8932 13.5534 25.5396C13.8672 23.186 14.1664 21.116 14.4509 19.326C15.2827 14.4088 16.1693 9.55801 17.1069 4.7698C17.7308 4.74401 18.7486 4.72928 20.1532 4.72928C22.4991 4.72928 24.5275 4.7698 26.2495 4.84715C26.1437 6.18785 25.7278 8.67403 24.9982 12.302L23.5534 19.5212C22.9332 22.6262 22.6195 24.8766 22.6195 26.2689C22.6195 28.5046 23.2324 30.2873 24.4546 31.6133C25.6768 32.9429 27.3988 33.6059 29.6133 33.6059C31.0981 33.6059 32.4991 33.2265 33.8125 32.4604C35.1259 31.698 36.4502 30.4899 37.7782 28.8324C37.8183 28.7845 37.8475 28.7256 37.884 28.6703C38.1941 28.3315 38.4933 27.9963 38.7742 27.6685C39.595 26.7109 40.4743 25.4659 41.4119 23.9411C42.4517 22.2578 43.3017 19.9448 43.9511 16.9982C44.2904 17.8932 44.7647 18.5635 45.3776 19.0092C45.9905 19.4549 46.7129 19.6796 47.5447 19.6796C48.2488 19.6796 48.8325 19.5875 49.3032 19.4033C47.1142 20.9282 45.4396 22.3683 44.2831 23.7238C43.1229 25.0792 42.5429 26.6483 42.5429 28.4383C42.5429 30.2799 43.1229 31.6648 44.2831 32.6004C45.4433 33.5322 47.1288 34 49.3433 34C51.193 34 53.0427 33.547 54.8924 32.6409C56.7421 31.7348 58.278 30.4641 59.5038 28.8361C59.9964 28.1805 60.2444 27.3628 60.2444 26.3904C60.2444 25.8343 60.1459 25.3996 59.9526 25.0866Z" fill="white"/>
<path d="M75.2682 25.4805C75.4652 25.7972 75.5601 26.2282 75.5601 26.7807C75.5601 27.8341 75.312 28.6481 74.8194 29.2263C73.8563 30.4087 72.4955 31.5026 70.737 32.5007C68.9785 33.4989 67.096 33.9998 65.0931 33.9998C62.3568 33.9998 60.2335 33.2521 58.7231 31.753C57.2127 30.254 56.4575 28.2024 56.4575 25.5984C56.4575 23.7825 56.8333 22.0956 57.5921 20.5302C58.3473 18.9648 59.3944 17.7236 60.737 16.8028C62.0796 15.882 63.5936 15.4216 65.2901 15.4216C66.8005 15.4216 68.0117 15.8746 68.9238 16.7807C69.8359 17.6867 70.2919 18.917 70.2919 20.4676C70.2919 22.2834 69.6461 23.8414 68.3583 25.1416C67.0704 26.4418 64.8888 27.4768 61.8132 28.2392C62.4626 29.4473 63.7031 30.0551 65.5236 30.0551C66.6947 30.0551 68.0299 29.6425 69.5294 28.8138C71.0252 27.9851 72.324 26.9022 73.4185 25.5615C73.7323 25.1932 74.0825 25.009 74.4729 25.009C74.8049 25.0053 75.0712 25.1637 75.2682 25.4805ZM59.7775 12.1287C59.3068 11.6683 59.0734 10.9538 59.0734 9.97773C59.0734 8.928 59.3543 8.10296 59.9125 7.51364C60.4707 6.92064 61.2222 6.62598 62.1598 6.62598C62.9916 6.62598 63.6447 6.85802 64.1117 7.31474C64.5786 7.77515 64.8158 8.49338 64.8158 9.46576C64.8158 10.5192 64.5349 11.3405 63.9767 11.9298C63.4148 12.5228 62.6669 12.8175 61.7293 12.8175C60.8939 12.8175 60.2445 12.5891 59.7775 12.1287ZM62.1781 20.9832C61.5141 22.114 61.1821 23.4805 61.1821 25.0864V25.1637C62.718 24.7954 63.9293 24.2429 64.8158 23.5063C65.7023 22.7696 66.1438 21.9151 66.1438 20.9427C66.1438 20.4418 66.0088 20.044 65.7352 19.7383C65.4615 19.4363 65.0894 19.2853 64.6224 19.2853C63.6556 19.289 62.8421 19.8525 62.1781 20.9832ZM67.9023 12.1287C67.4353 11.6683 67.1981 10.9538 67.1981 9.97773C67.1981 8.928 67.4791 8.10296 68.0372 7.51364C68.5954 6.92064 69.347 6.62598 70.2846 6.62598C71.1164 6.62598 71.7695 6.85802 72.2364 7.31474C72.7071 7.77515 72.9406 8.49338 72.9406 9.46576C72.9406 10.5192 72.6596 11.3405 72.1015 11.9298C71.5396 12.5228 70.7917 12.8175 69.8541 12.8175C69.0223 12.8175 68.3729 12.5891 67.9023 12.1287Z" fill="white"/>
<path d="M96.2456 25.4806C96.4389 25.7974 96.5374 26.2283 96.5374 26.7808C96.5374 27.8342 96.2893 28.6482 95.7968 29.2265C94.9358 30.2504 94.1879 31.0755 93.5495 31.6906C92.911 32.3093 92.1303 32.8471 91.2036 33.3075C90.2806 33.7679 89.2299 33.9963 88.0588 33.9963C86.5228 33.9963 85.4283 33.3848 84.7753 32.162C84.1259 30.9392 83.7975 29.0939 83.7975 26.6187C83.7975 25.3848 83.8486 24.1878 83.9544 23.0276H83.8778C82.8344 26.5266 81.5538 29.2191 80.0288 31.1123C78.5038 33.0055 76.7673 33.9521 74.8118 33.9521C73.4838 33.9521 72.4404 33.4659 71.6852 32.4935C70.93 31.5211 70.5505 30.2983 70.5505 28.825C70.5505 27.5101 70.8497 26.4456 71.448 25.6316C72.0463 24.8176 72.8927 24.4088 73.9872 24.4088C74.4834 24.4088 74.8519 24.5156 75.1 24.7255C75.3481 24.9355 75.4466 25.2265 75.3918 25.5948C75.1839 26.8581 75.0781 27.7237 75.0781 28.1988C75.0781 29.1454 75.3116 29.6206 75.7822 29.6206C76.0412 29.6206 76.3368 29.4217 76.6615 29.0276C76.9862 28.6335 77.5407 27.6721 78.3214 26.1473C78.9197 24.9907 79.54 23.6906 80.1784 22.243C80.8169 20.7992 81.3422 19.5101 81.7618 18.3793C82.1777 17.2743 82.6593 16.5193 83.2065 16.1104C83.7538 15.7016 84.5345 15.499 85.5524 15.499C86.5411 15.499 87.2707 15.6979 87.7414 16.092C88.2083 16.4861 88.4455 17.1307 88.4455 18.0257L88.3689 20.9429C88.2631 23.1528 88.212 24.744 88.212 25.7163C88.212 28.4788 88.7702 29.8563 89.8902 29.8563C90.3608 29.8563 90.8205 29.6316 91.2766 29.1859C91.7326 28.7403 92.4404 27.9226 93.4072 26.7403L94.3849 25.558C94.6987 25.1896 95.0489 25.0055 95.4393 25.0055C95.7822 25.0055 96.0522 25.1638 96.2456 25.4806Z" fill="white"/>
<path d="M94.5277 32.4235C94.1228 31.3738 93.9221 29.6905 93.9221 27.3738C93.9221 23.9557 94.4037 20.7071 95.3668 17.6316C95.6003 16.8692 95.9834 16.3093 96.5197 15.9557C97.0524 15.6021 97.8039 15.4217 98.7671 15.4217C99.2888 15.4217 99.6536 15.488 99.8616 15.6205C100.07 15.7531 100.175 16.0036 100.175 16.3682C100.175 16.7881 99.982 17.7347 99.5879 19.208C99.5369 19.3922 99.4238 19.8121 99.2559 20.4714C99.0845 21.1307 98.9312 21.8968 98.789 22.7771C98.6467 23.6574 98.5482 24.6261 98.4971 25.6758C99.4347 21.9962 100.62 19.3664 102.054 17.7863C103.488 16.2099 105.217 15.418 107.249 15.418C108.603 15.418 109.665 15.8452 110.434 16.6997C111.201 17.5542 111.587 18.6519 111.587 19.9926C111.587 21.0975 111.346 22.0294 110.865 22.7918C110.383 23.5542 109.752 23.9373 108.971 23.9373C108.475 23.9373 108.078 23.8194 107.778 23.5837C107.479 23.348 107.33 23.0202 107.33 22.5966C107.33 22.4124 107.355 22.2025 107.406 21.9668C107.457 21.731 107.497 21.5579 107.523 21.4548C107.654 21.0607 107.72 20.6924 107.72 20.3498C107.72 19.639 107.381 19.2854 106.706 19.2854C106.184 19.2854 105.677 19.5542 105.181 20.092C104.685 20.6298 104.287 21.3554 103.988 22.2614C103.689 23.1675 103.539 24.1473 103.539 25.2007C103.539 26.6187 103.864 27.7568 104.517 28.6113C105.166 29.4659 106.104 29.8931 107.33 29.8931C108.293 29.8931 109.154 29.5727 109.909 28.9281C110.664 28.2835 111.708 27.1601 113.036 25.5542C113.349 25.1859 113.7 25.0018 114.09 25.0018C114.429 25.0018 114.696 25.1601 114.893 25.4769C115.09 25.7937 115.184 26.2246 115.184 26.7771C115.184 27.8305 114.936 28.6445 114.444 29.2228C113.273 30.6445 112.098 31.7937 110.927 32.674C109.756 33.5542 108.428 33.9962 106.943 33.9962C105.717 33.9962 104.604 33.7274 103.601 33.1859C102.598 32.6482 101.784 31.9962 101.16 31.2338C100.536 30.4714 100.132 29.7347 99.9491 29.0239C99.898 29.2338 99.701 29.9705 99.3617 31.2338C99.0735 32.2872 98.7415 33.0091 98.3658 33.4032C97.9863 33.7973 97.4099 33.9962 96.6255 33.9962C95.6259 33.9999 94.9327 33.4732 94.5277 32.4235Z" fill="white"/>
<path d="M172.711 25.4808C172.908 25.7975 173.003 26.2285 173.003 26.7809C173.003 27.8344 172.754 28.6484 172.258 29.2266C171.062 30.6189 169.828 31.7644 168.566 32.6594C167.304 33.5544 165.863 34.0001 164.25 34.0001C162.999 34.0001 162.076 33.5065 161.478 32.5194C160.879 31.5323 160.591 30.1732 160.617 28.4384C160.175 30.2285 159.511 31.6023 158.625 32.56C157.738 33.5213 156.789 34.0001 155.772 34.0001C153.4 34.0001 152.214 32.5784 152.214 29.7386C152.214 29.2377 152.255 28.7147 152.331 28.1622C151.55 30.0554 150.715 31.5029 149.832 32.501C148.946 33.4992 147.917 34.0001 146.746 34.0001C145.575 34.0001 144.615 33.455 143.874 32.3647C143.134 31.2745 142.762 29.9117 142.762 28.2837C142.762 26.3132 142.893 24.5047 143.152 22.862C143.411 21.2193 143.842 19.4771 144.44 17.6355C144.699 16.8472 145.064 16.28 145.534 15.9412C146.001 15.5986 146.746 15.4292 147.76 15.4292C148.333 15.4292 148.73 15.5213 148.953 15.7054C149.175 15.8896 149.285 16.1658 149.285 16.5342C149.285 16.7441 149.143 17.455 148.854 18.6631C148.595 19.6355 148.384 20.5158 148.231 21.3077C147.709 24.0701 147.45 25.908 147.45 26.8288C147.45 27.3813 147.515 27.7681 147.647 27.9927C147.778 28.2174 147.986 28.3279 148.271 28.3279C149.132 28.3279 149.971 27.3482 150.792 25.3887C151.613 23.4292 152.503 20.8472 153.469 17.6391C153.703 16.8509 153.977 16.3169 154.29 16.0406C154.604 15.7644 155.177 15.6281 156.009 15.6281C156.687 15.6281 157.154 15.7386 157.417 15.9633C157.676 16.1879 157.807 16.5747 157.807 17.1272C157.807 17.6539 157.625 18.9283 157.26 20.9541C156.738 24.0038 156.479 25.9633 156.479 26.8325C156.479 27.385 156.545 27.7717 156.676 27.9964C156.808 28.2211 157.016 28.3316 157.3 28.3316C157.691 28.3316 158.179 27.9375 158.767 27.1493C159.354 26.3611 159.978 25.164 160.642 23.5581C161.306 21.9559 161.952 19.9817 162.576 17.6428C162.784 16.8546 163.105 16.2874 163.532 15.9485C163.962 15.606 164.604 15.4366 165.465 15.4366C166.063 15.4366 166.479 15.5102 166.716 15.6539C166.95 15.7975 167.067 16.0664 167.067 16.4642C167.067 17.1235 166.742 18.9246 166.089 21.8675C165.359 25.234 164.994 27.3113 164.994 28.0996C164.994 28.6005 165.097 28.9872 165.308 29.2635C165.516 29.5397 165.79 29.676 166.129 29.676C166.651 29.676 167.267 29.3555 167.986 28.711C168.701 28.0664 169.661 27.0204 170.857 25.5765C171.171 25.2082 171.521 25.024 171.912 25.024C172.247 25.0056 172.514 25.164 172.711 25.4808Z" fill="white"/>
<path d="M190.544 22.2064C190.726 22.549 190.817 22.9836 190.817 23.5066C190.817 24.77 190.438 25.5177 189.683 25.7534C188.121 26.3059 186.399 26.6226 184.524 26.7C184.028 28.9099 183.054 30.6779 181.594 32.0039C180.135 33.3335 178.482 33.9965 176.633 33.9965C175.071 33.9965 173.736 33.6171 172.627 32.851C171.521 32.0886 170.679 31.0757 170.106 29.8123C169.533 28.549 169.245 27.1825 169.245 25.7092C169.245 23.7129 169.621 21.9302 170.379 20.3648C171.135 18.7994 172.178 17.5766 173.506 16.6963C174.834 15.816 176.304 15.374 177.921 15.374C179.898 15.374 181.496 16.0628 182.707 17.444C183.918 18.8252 184.626 20.5269 184.838 22.5527C186.064 22.4753 187.519 22.2101 189.212 21.7644C189.42 21.7129 189.602 21.6871 189.759 21.6871C190.102 21.6945 190.361 21.8639 190.544 22.2064ZM179.117 28.7921C179.73 28.107 180.139 27.1236 180.347 25.8344C179.54 25.2819 178.92 24.56 178.49 23.665C178.059 22.77 177.844 21.8234 177.844 20.8252C177.844 20.4053 177.884 19.9854 177.961 19.5619H177.767C176.724 19.5619 175.859 20.0702 175.17 21.0794C174.48 22.0923 174.134 23.5177 174.134 25.3593C174.134 26.8068 174.415 27.9118 174.973 28.6742C175.531 29.4366 176.191 29.8197 176.946 29.8197C177.782 29.8197 178.504 29.4771 179.117 28.7921Z" fill="white"/>
<path d="M188.143 32.4232C187.738 31.3735 187.537 29.6903 187.537 27.3735C187.537 23.9555 188.019 20.7068 188.982 17.6313C189.216 16.8689 189.599 16.309 190.135 15.9555C190.668 15.6019 191.419 15.4214 192.382 15.4214C192.904 15.4214 193.269 15.4877 193.477 15.6203C193.685 15.7529 193.791 16.0033 193.791 16.368C193.791 16.7879 193.597 17.7345 193.203 19.2078C192.944 20.2612 192.736 21.1783 192.579 21.9702C192.422 22.7621 192.291 23.7308 192.189 24.8873C193.05 22.6258 194.013 20.7842 195.078 19.3661C196.147 17.9444 197.194 16.9352 198.223 16.3275C199.252 15.7234 200.197 15.4214 201.054 15.4214C202.747 15.4214 203.594 16.2759 203.594 17.9849C203.594 19.0089 203.305 20.8652 202.733 23.5466C202.236 25.8339 201.992 27.3477 201.992 28.0844C201.992 29.1378 202.368 29.6608 203.127 29.6608C203.648 29.6608 204.265 29.3404 204.984 28.6958C205.699 28.0512 206.658 27.0052 207.855 25.5614C208.169 25.193 208.519 25.0089 208.909 25.0089C209.248 25.0089 209.515 25.1672 209.708 25.484C209.905 25.8008 210 26.2317 210 26.7842C210 27.8376 209.752 28.6516 209.256 29.2299C208.136 30.6221 206.932 31.7676 205.64 32.6626C204.352 33.5577 202.886 34.0033 201.244 34.0033C199.916 34.0033 198.913 33.6166 198.234 32.8394C197.556 32.0623 197.22 30.9389 197.22 29.4656C197.22 28.7289 197.402 27.414 197.767 25.5208C198.107 23.8634 198.274 22.7216 198.274 22.0881C198.274 21.6682 198.132 21.4582 197.844 21.4582C197.505 21.4582 197.03 21.9002 196.417 22.7805C195.804 23.6608 195.181 24.8247 194.542 26.2722C193.904 27.7197 193.389 29.2446 192.999 30.8468C192.711 32.0844 192.379 32.9168 192.003 33.3514C191.623 33.786 191.032 34.0033 190.226 34.0033C189.241 33.9997 188.544 33.473 188.143 32.4232Z" fill="white"/>
<path d="M131.959 14.3394C129.081 13.9858 126.903 15.9968 125.4 17.2933C123.404 19.0171 121.474 23.1865 122.102 26.1884C122.59 28.5346 124.608 30.693 126.925 31.227C130.004 31.9379 132.35 30.763 133.63 29.96C134.601 29.3523 137.818 26.7666 137.804 24.5014C137.731 13.286 135.823 14.8145 131.959 14.3394ZM134.28 19.448C133.429 19.448 132.74 18.5567 132.74 17.4591C132.74 16.3615 133.429 15.4701 134.28 15.4701C135.13 15.4701 135.819 16.3615 135.819 17.4591C135.819 18.5567 135.13 19.448 134.28 19.448Z" fill="white"/>
<path d="M128.311 11.1788C128.646 8.88415 127.136 6.01122 124.549 5.90809C121.54 5.78655 120.401 9.62448 121.069 11.374C122.01 13.8344 124.338 16.5674 124.827 16.4164C125.586 16.1807 128.019 13.1751 128.311 11.1788Z" fill="white"/>
<path d="M121.149 14.2616C119.694 13.9558 117.705 14.3721 117.636 16.5157C117.563 18.8803 120.153 19.1161 121 18.9872C122.207 18.803 123.408 17.8269 124.221 16.8951C124.305 16.7993 124.298 16.6557 124.21 16.5599C123.732 16.0442 122.204 14.4826 121.149 14.2616Z" fill="white"/>
<path d="M125.67 29.6099C123.587 28.1771 122.401 25.9672 122.105 23.9893C122.069 24.1292 122.025 24.2655 121.989 24.4055C121.598 25.9819 121.54 29.3926 122.153 29.9745C122.587 30.3871 125.713 31.4257 127.629 31.481C128.096 31.4957 128.493 31.481 128.869 31.4478C127.873 31.0169 126.99 30.5196 125.67 29.6099Z" fill="white"/>
<path d="M129.675 25.7276C126.946 23.2745 126.439 22.2801 125.95 19.5803C125.743 18.4421 125.954 17.4035 126.082 16.6558C125.272 17.3629 124.579 18.1143 124.01 18.9136C123.904 19.525 122.915 22.3427 125.604 25.7791C128.347 29.2893 131.565 30.1364 132.751 30.4863C133.302 30.188 133.834 29.8454 134.349 29.4366C134.717 29.1456 135.064 28.8436 135.389 28.5379C134.389 28.3353 131.824 27.6613 129.675 25.7276Z" fill="white"/>
<path d="M138.993 20.6486C138.931 19.1237 138.427 17.7499 137.483 16.5344C136.57 15.3595 135.483 14.5934 134.221 14.2398C132.959 13.8862 131.667 13.8935 130.35 14.2619C129.69 14.446 129.055 14.6965 128.442 15.0132C128.3 16.0261 128.037 19.2858 130.069 21.6541C132.16 24.0924 136.082 26.0372 137.242 26.3687C137.486 26.004 137.705 25.632 137.902 25.2527C138.69 23.7094 139.055 22.1735 138.993 20.6486ZM134.962 17.8457C134.659 18.0188 134.298 17.8567 134.017 17.6504C133.615 17.3595 133.265 17.5584 134.341 16.7333C134.506 16.6081 135.031 16.667 135.202 16.9764C135.374 17.2821 135.268 17.6725 134.962 17.8457Z" fill="white"/>
<path d="M139.653 33.8714C139.653 33.8714 137.829 32.1292 138.895 28.1771C139.398 26.3097 141.251 24.8364 141.251 24.8364C141.251 24.8364 139.219 25.3337 137.745 27.3005C136.005 29.621 135.717 31.4036 135.626 31.9156C135.535 32.4276 134.976 32.1145 135.425 30.8438C135.615 30.3024 135.772 29.9082 135.772 29.9082C135.772 29.9082 134.462 30.6081 133.969 31.5031C133.408 32.5233 133.342 32.8659 133.342 33.1937C133.342 33.5215 133.371 32.6117 132.824 31.9745C132.525 31.6246 131.788 31.4515 131.788 31.4515C131.788 31.4515 132.291 31.9893 132.306 32.4828C132.335 33.5252 131.729 33.6578 131.729 33.6578C131.729 33.6578 131.189 33.8567 131.014 33.1606C130.781 32.2287 129.478 32.4276 129.478 32.4276C129.478 32.4276 129.975 32.6154 129.88 33.3152C129.788 34.0151 128.924 33.8162 128.924 33.8162L137.767 33.8677H139.653V33.8714Z" fill="white"/>
<path d="M118.22 33.8714C118.22 33.8714 120.044 32.1292 118.978 28.1771C118.475 26.3097 116.622 24.8364 116.622 24.8364C116.622 24.8364 118.654 25.3337 120.128 27.3005C121.868 29.621 122.156 31.4036 122.247 31.9156C122.338 32.4276 122.897 32.1145 122.448 30.8438C122.258 30.3024 122.101 29.9083 122.101 29.9083C122.101 29.9083 123.411 30.6081 123.904 31.5031C124.465 32.5234 124.531 32.8659 124.531 33.1937C124.531 33.5215 124.502 32.6118 125.049 31.9746C125.348 31.6246 126.085 31.4515 126.085 31.4515C126.085 31.4515 125.582 31.9893 125.567 32.4828C125.538 33.5252 126.144 33.6578 126.144 33.6578C126.144 33.6578 126.684 33.8567 126.859 33.1606C127.092 32.2287 128.395 32.4276 128.395 32.4276C128.395 32.4276 127.899 32.6154 127.993 33.3153C128.085 34.0151 128.949 33.8162 128.949 33.8162L120.106 33.8677H118.22V33.8714Z" fill="white"/>
</g>
<defs>
<clipPath id="clip0_314_2624">
<rect width="210" height="34" fill="white"/>
</clipPath>
</defs>
</svg>
