<svg width="40" height="38" viewBox="0 0 40 38" fill="none" xmlns="http://www.w3.org/2000/svg">
<path fill-rule="evenodd" clip-rule="evenodd" d="M40 17.5C40 27.165 31.045 35 20 35C18.0191 35.0027 16.0465 34.7455 14.1325 34.235C12.6725 34.975 9.32 36.395 3.68 37.32C3.18 37.4 2.8 36.88 2.9975 36.415C3.8825 34.325 4.6825 31.54 4.9225 29C1.86 25.925 0 21.9 0 17.5C0 7.835 8.955 0 20 0C31.045 0 40 7.835 40 17.5ZM17.985 14.415C18.2025 14.725 18.3925 15.065 18.5525 15.4175C19.6225 17.7875 19.535 21.36 16.1975 24.6825C15.9938 24.8811 15.7219 24.9942 15.4375 24.9989C15.153 25.0035 14.8776 24.8993 14.6675 24.7075C14.5651 24.6147 14.4827 24.5019 14.4255 24.3761C14.3683 24.2503 14.3375 24.1141 14.3349 23.9759C14.3323 23.8378 14.3581 23.7005 14.4105 23.5727C14.463 23.4448 14.5411 23.329 14.64 23.2325C15.6875 22.1925 16.32 21.155 16.6625 20.1825C15.99 20.595 15.1925 20.8325 14.3375 20.8325C11.9375 20.8325 10 18.9675 10 16.6675C10 14.3675 11.94 12.5 14.335 12.5C15.0125 12.5 15.655 12.65 16.225 12.915L16.245 12.925C16.6675 13.1 17.0625 13.38 17.4175 13.735C17.63 13.9425 17.82 14.17 17.985 14.415ZM27.5 20.1825C26.8275 20.595 26.03 20.8325 25.175 20.8325C22.78 20.8325 20.8375 18.9675 20.8375 16.6675C20.8375 14.3675 22.78 12.5 25.1725 12.5C25.85 12.5 26.4925 12.65 27.0625 12.915L27.0825 12.925C27.5075 13.1 27.9 13.38 28.255 13.735C28.4675 13.9425 28.6575 14.17 28.8225 14.415C29.04 14.725 29.2325 15.065 29.3925 15.4175C30.4625 17.7875 30.3725 21.36 27.0375 24.6825C26.8337 24.8818 26.5612 24.9954 26.2762 25.0001C25.9912 25.0047 25.7152 24.9 25.505 24.7075C25.4026 24.6147 25.3202 24.5019 25.263 24.3761C25.2058 24.2503 25.175 24.1141 25.1724 23.9759C25.1698 23.8378 25.1956 23.7005 25.248 23.5727C25.3005 23.4448 25.3786 23.329 25.4775 23.2325C26.5275 22.1925 27.1575 21.155 27.5025 20.1825H27.5Z" fill="#222528"/>
</svg>
