<svg width="57" height="57" viewBox="0 0 57 57" fill="none" xmlns="http://www.w3.org/2000/svg">
<path d="M36.882 29.915C39.1587 28.1238 40.8205 25.6675 41.6361 22.8878C42.4518 20.1082 42.3808 17.1434 41.4331 14.406C40.4853 11.6685 38.7079 9.29459 36.348 7.61438C33.9882 5.93416 31.1634 5.03125 28.2665 5.03125C25.3697 5.03125 22.5449 5.93416 20.1851 7.61438C17.8252 9.29459 16.0478 11.6685 15.1 14.406C14.1523 17.1434 14.0813 20.1082 14.897 22.8878C15.7126 25.6675 17.3744 28.1238 19.6511 29.915C15.7499 31.478 12.3461 34.0703 9.80231 37.4156C7.25856 40.7609 5.67031 44.7338 5.20688 48.9108C5.17333 49.2157 5.20018 49.5243 5.28589 49.8189C5.3716 50.1135 5.5145 50.3883 5.70642 50.6277C6.09401 51.1111 6.65776 51.4207 7.27366 51.4885C7.88955 51.5562 8.50713 51.3765 8.99053 50.9889C9.47394 50.6013 9.78358 50.0376 9.85132 49.4217C10.3612 44.8822 12.5258 40.6897 15.9314 37.6452C19.337 34.6007 23.7449 32.9177 28.313 32.9177C32.881 32.9177 37.289 34.6007 40.6946 37.6452C44.1002 40.6897 46.2647 44.8822 46.7747 49.4217C46.8378 49.9923 47.1101 50.5193 47.5389 50.901C47.9678 51.2826 48.5228 51.4919 49.0969 51.4885H49.3523C49.9611 51.4184 50.5174 51.1106 50.9002 50.6321C51.283 50.1537 51.4612 49.5433 51.3959 48.934C50.9303 44.7452 49.3335 40.7621 46.7766 37.4116C44.2198 34.0612 40.7994 31.4697 36.882 29.915ZM28.2665 28.2662C26.4294 28.2662 24.6335 27.7215 23.1059 26.7008C21.5784 25.6801 20.3878 24.2294 19.6847 22.5321C18.9817 20.8347 18.7977 18.967 19.1561 17.1652C19.5146 15.3633 20.3992 13.7082 21.6983 12.4091C22.9974 11.11 24.6525 10.2254 26.4544 9.86694C28.2562 9.50853 30.1239 9.69248 31.8213 10.3955C33.5186 11.0986 34.9693 12.2892 35.99 13.8167C37.0107 15.3443 37.5554 17.1402 37.5554 18.9773C37.5554 21.4409 36.5768 23.8036 34.8348 25.5456C33.0928 27.2876 30.7301 28.2662 28.2665 28.2662Z" fill="#F2B236"/>
</svg>
