<svg width="29" height="29" viewBox="0 0 29 29" fill="none" xmlns="http://www.w3.org/2000/svg">
<path d="M19.7768 15.5547C21.1566 14.4691 22.1638 12.9804 22.6581 11.2958C23.1525 9.61117 23.1094 7.81433 22.535 6.15528C21.9606 4.49624 20.8834 3.05748 19.4532 2.03916C18.023 1.02085 16.311 0.473633 14.5553 0.473633C12.7997 0.473633 11.0876 1.02085 9.65746 2.03916C8.22727 3.05748 7.15004 4.49624 6.57563 6.15528C6.00122 7.81433 5.9582 9.61117 6.45255 11.2958C6.9469 12.9804 7.95404 14.4691 9.33385 15.5547C6.96952 16.5019 4.90655 18.073 3.36489 20.1005C1.82322 22.128 0.860645 24.5358 0.579778 27.0673C0.559448 27.2521 0.57572 27.4391 0.627666 27.6177C0.679612 27.7962 0.766214 27.9628 0.882528 28.1078C1.11743 28.4008 1.4591 28.5885 1.83237 28.6295C2.20564 28.6706 2.57993 28.5617 2.8729 28.3268C3.16588 28.0919 3.35353 27.7502 3.39459 27.3769C3.70364 24.6257 5.01549 22.0848 7.07949 20.2397C9.1435 18.3945 11.815 17.3745 14.5835 17.3745C17.352 17.3745 20.0235 18.3945 22.0875 20.2397C24.1515 22.0848 25.4633 24.6257 25.7724 27.3769C25.8106 27.7227 25.9757 28.0421 26.2356 28.2735C26.4955 28.5048 26.8318 28.6316 27.1798 28.6295H27.3346C27.7035 28.5871 28.0407 28.4005 28.2727 28.1105C28.5047 27.8205 28.6127 27.4506 28.5731 27.0814C28.2909 24.5427 27.3232 22.1287 25.7736 20.0981C24.224 18.0675 22.151 16.4969 19.7768 15.5547ZM14.5553 14.5554C13.4419 14.5554 12.3535 14.2253 11.4277 13.6067C10.5019 12.9881 9.78033 12.1089 9.35423 11.0802C8.92814 10.0515 8.81666 8.91957 9.03388 7.82753C9.2511 6.73549 9.78727 5.73238 10.5746 4.94506C11.3619 4.15774 12.365 3.62157 13.457 3.40435C14.5491 3.18713 15.681 3.29862 16.7097 3.72471C17.7384 4.15081 18.6176 4.87237 19.2362 5.79816C19.8548 6.72395 20.185 7.81238 20.185 8.92581C20.185 10.4189 19.5918 11.8508 18.5361 12.9066C17.4803 13.9623 16.0484 14.5554 14.5553 14.5554Z" fill="#F2B236"/>
</svg>
