<svg width="71" height="70" viewBox="0 0 71 70" fill="none" xmlns="http://www.w3.org/2000/svg">
<path d="M35.3335 70C54.6635 70 70.3335 54.33 70.3335 35C70.3335 15.67 54.6635 0 35.3335 0C16.0035 0 0.333496 15.67 0.333496 35C0.333496 54.33 16.0035 70 35.3335 70Z" fill="#FF6B6B"/>
<path d="M70.3335 35H0.333496C0.333496 54.33 16.0035 70 35.3335 70C54.6635 70 70.3335 54.33 70.3335 35Z" fill="#FF1F3D"/>
<path d="M25.763 54.8242C25.4441 54.8242 25.1242 54.7499 24.8297 54.5993C24.1439 54.2487 23.7124 53.5435 23.7124 52.7734V17.2265C23.7124 16.4564 24.1439 15.7512 24.8295 15.4006C25.5152 15.0501 26.3395 15.1131 26.9638 15.564L51.5732 33.3374C52.1071 33.723 52.4233 34.3415 52.4233 34.9999C52.4233 35.6584 52.1071 36.2769 51.5732 36.6624L26.9638 54.4359C26.6077 54.6932 26.1865 54.8242 25.763 54.8242Z" fill="#F9F9F9"/>
<path d="M23.7124 35V52.7734C23.7124 53.5436 24.1439 54.2488 24.8295 54.5993C25.124 54.75 25.4441 54.8242 25.7629 54.8242C26.1863 54.8242 26.6077 54.6932 26.9638 54.4359L51.5732 36.6625C52.107 36.277 52.4233 35.6584 52.4233 35H23.7124Z" fill="#E2DFF4"/>
</svg>
