<svg width="31" height="32" viewBox="0 0 31 32" fill="none" xmlns="http://www.w3.org/2000/svg">
<g clip-path="url(#clip0_207_2434)">
<path d="M15.3261 31.2875C23.7908 31.2875 30.6529 24.4255 30.6529 15.9607C30.6529 7.49595 23.7908 0.633911 15.3261 0.633911C6.86131 0.633911 -0.000732422 7.49595 -0.000732422 15.9607C-0.000732422 24.4255 6.86131 31.2875 15.3261 31.2875Z" fill="#FF6B6B"/>
<path d="M30.6529 15.9607H-0.000732422C-0.000732422 24.4255 6.8613 31.2875 15.3261 31.2875C23.7908 31.2875 30.6529 24.4255 30.6529 15.9607Z" fill="#FF1F3D"/>
<path d="M11.1351 24.6419C10.9954 24.6419 10.8553 24.6094 10.7263 24.5434C10.426 24.3899 10.2371 24.0811 10.2371 23.7438V8.17757C10.2371 7.84032 10.426 7.53151 10.7263 7.378C11.0265 7.22449 11.3875 7.25209 11.6609 7.44955L22.4376 15.2327C22.6713 15.4015 22.8098 15.6724 22.8098 15.9607C22.8098 16.249 22.6713 16.5199 22.4376 16.6887L11.6609 24.4719C11.5049 24.5845 11.3205 24.6419 11.1351 24.6419Z" fill="#F9F9F9"/>
<path d="M10.2371 15.9607V23.7438C10.2371 24.0811 10.426 24.3899 10.7263 24.5434C10.8552 24.6094 10.9954 24.6419 11.135 24.6419C11.3204 24.6419 11.5049 24.5845 11.6609 24.4719L22.4376 16.6887C22.6713 16.5199 22.8098 16.249 22.8098 15.9607H10.2371Z" fill="#E2DFF4"/>
</g>
<defs>
<clipPath id="clip0_207_2434">
<rect x="-0.000732422" y="0.633911" width="30.6536" height="30.6536" rx="8" fill="white"/>
</clipPath>
</defs>
</svg>
