<svg width="28" height="28" viewBox="0 0 28 28" fill="none" xmlns="http://www.w3.org/2000/svg">
<path d="M27.4208 25.3705L22.346 20.3367C24.3158 17.8806 25.2698 14.763 25.0117 11.6251C24.7536 8.48723 23.303 5.56748 20.9583 3.46624C18.6135 1.36499 15.5528 0.241976 12.4055 0.328097C9.2582 0.414219 6.26349 1.70293 4.03717 3.92926C1.81085 6.15558 0.522129 9.15029 0.436008 12.2976C0.349886 15.4449 1.4729 18.5056 3.57415 20.8504C5.67539 23.1951 8.59514 24.6457 11.733 24.9038C14.8709 25.1619 17.9885 24.2079 20.4446 22.238L25.4784 27.2718C25.6055 27.4 25.7568 27.5018 25.9235 27.5712C26.0902 27.6407 26.269 27.6764 26.4496 27.6764C26.6302 27.6764 26.8089 27.6407 26.9756 27.5712C27.1423 27.5018 27.2936 27.4 27.4208 27.2718C27.6673 27.0168 27.8051 26.6759 27.8051 26.3211C27.8051 25.9664 27.6673 25.6255 27.4208 25.3705ZM12.7708 22.238C10.8771 22.238 9.02582 21.6765 7.4512 20.6243C5.87658 19.5722 4.64931 18.0768 3.92459 16.3272C3.19988 14.5775 3.01026 12.6523 3.37971 10.7949C3.74917 8.93753 4.66111 7.23141 6.00022 5.89231C7.33932 4.5532 9.04544 3.64126 10.9028 3.2718C12.7602 2.90235 14.6855 3.09197 16.4351 3.81668C18.1847 4.5414 19.6801 5.76867 20.7323 7.34329C21.7844 8.9179 22.346 10.7692 22.346 12.6629C22.346 15.2024 21.3372 17.6379 19.5415 19.4336C17.7458 21.2292 15.3103 22.238 12.7708 22.238Z" fill="#A5AAAF"/>
</svg>
