<svg width="18" height="18" viewBox="0 0 18 18" fill="none" xmlns="http://www.w3.org/2000/svg">
<path d="M16.4999 7.25249C16.4525 7.1153 16.3663 6.99481 16.2519 6.90561C16.1374 6.81642 15.9995 6.76236 15.8549 6.74999L11.5874 6.12749L9.67486 2.24999C9.61345 2.12318 9.51756 2.01624 9.39818 1.94142C9.2788 1.86659 9.14075 1.8269 8.99986 1.8269C8.85897 1.8269 8.72092 1.86659 8.60154 1.94142C8.48216 2.01624 8.38627 2.12318 8.32486 2.24999L6.41236 6.11999L2.14486 6.74999C2.00605 6.76972 1.87555 6.82796 1.76817 6.91811C1.66079 7.00825 1.58083 7.12669 1.53736 7.25999C1.49757 7.39024 1.494 7.52887 1.52703 7.66101C1.56006 7.79314 1.62845 7.91378 1.72486 8.00999L4.82236 11.01L4.07236 15.27C4.04208 15.4113 4.05328 15.5584 4.1046 15.6935C4.15592 15.8286 4.24519 15.946 4.36166 16.0315C4.47813 16.1171 4.61684 16.1672 4.76111 16.1758C4.90538 16.1844 5.04905 16.1511 5.17486 16.08L8.99986 14.0775L12.8249 16.08C12.9301 16.1394 13.049 16.1704 13.1699 16.17C13.3287 16.1706 13.4837 16.1207 13.6124 16.0275C13.7287 15.9441 13.8188 15.8292 13.872 15.6963C13.9251 15.5634 13.9391 15.4181 13.9124 15.2775L13.1624 11.0175L16.2599 8.01749C16.3681 7.92575 16.4482 7.80516 16.4907 7.66975C16.5331 7.53433 16.5363 7.38964 16.4999 7.25249ZM11.8874 10.2525C11.8006 10.3368 11.7354 10.4408 11.6976 10.5558C11.6597 10.6707 11.6502 10.7931 11.6699 10.9125L12.2099 14.0625L9.38986 12.5625C9.28026 12.5083 9.15964 12.4801 9.03736 12.4801C8.91509 12.4801 8.79446 12.5083 8.68486 12.5625L5.86486 14.0625L6.40486 10.9125C6.42454 10.7931 6.41504 10.6707 6.37716 10.5558C6.33929 10.4408 6.27417 10.3368 6.18736 10.2525L3.93736 8.00249L7.09486 7.54499C7.21636 7.52809 7.33186 7.48164 7.43123 7.40973C7.53061 7.33781 7.61083 7.24261 7.66486 7.13249L8.99986 4.27499L10.4099 7.13999C10.4639 7.25011 10.5441 7.34531 10.6435 7.41723C10.7429 7.48914 10.8584 7.53559 10.9799 7.55249L14.1374 8.00999L11.8874 10.2525Z" fill="#F2B236"/>
</svg>
