<svg width="26" height="24" viewBox="0 0 26 24" fill="none" xmlns="http://www.w3.org/2000/svg">
<path d="M25.4998 9.08744C25.4209 8.8588 25.2773 8.65797 25.0865 8.50932C24.8957 8.36066 24.6658 8.27056 24.4248 8.24994L17.3123 7.21244L14.1248 0.749937C14.0225 0.538599 13.8627 0.360365 13.6637 0.235654C13.4647 0.110944 13.2347 0.0447998 12.9998 0.0447998C12.765 0.0447998 12.535 0.110944 12.336 0.235654C12.137 0.360365 11.9772 0.538599 11.8748 0.749937L8.68735 7.19994L1.57485 8.24994C1.3435 8.28282 1.126 8.37989 0.947037 8.53014C0.76807 8.68038 0.6348 8.87778 0.56235 9.09994C0.496031 9.31703 0.49008 9.54809 0.545134 9.7683C0.600189 9.98852 0.714172 10.1896 0.87485 10.3499L6.03735 15.3499L4.78735 22.4499C4.73688 22.6855 4.75554 22.9306 4.84108 23.1557C4.92662 23.3809 5.0754 23.5766 5.26951 23.7192C5.46363 23.8618 5.69481 23.9453 5.93526 23.9596C6.17571 23.9739 6.41517 23.9185 6.62485 23.7999L12.9998 20.4624L19.3748 23.7999C19.5503 23.8989 19.7484 23.9506 19.9498 23.9499C20.2146 23.9509 20.4729 23.8677 20.6873 23.7124C20.8813 23.5735 21.0314 23.382 21.12 23.1605C21.2086 22.939 21.232 22.6968 21.1873 22.4624L19.9373 15.3624L25.0998 10.3624C25.2803 10.2095 25.4137 10.0086 25.4845 9.78287C25.5553 9.55718 25.5606 9.31603 25.4998 9.08744ZM17.8123 14.0874C17.6677 14.2279 17.5591 14.4014 17.496 14.5929C17.4329 14.7845 17.417 14.9884 17.4498 15.1874L18.3498 20.4374L13.6498 17.9374C13.4672 17.8471 13.2661 17.8001 13.0623 17.8001C12.8586 17.8001 12.6575 17.8471 12.4748 17.9374L7.77485 20.4374L8.67485 15.1874C8.70765 14.9884 8.69181 14.7845 8.62868 14.5929C8.56556 14.4014 8.45703 14.2279 8.31235 14.0874L4.56235 10.3374L9.82485 9.57494C10.0273 9.54677 10.2198 9.46936 10.3855 9.3495C10.5511 9.22964 10.6848 9.07098 10.7748 8.88744L12.9998 4.12494L15.3498 8.89994C15.4399 9.08349 15.5736 9.24214 15.7392 9.362C15.9049 9.48186 16.0974 9.55927 16.2998 9.58744L21.5623 10.3499L17.8123 14.0874Z" fill="#F2B236"/>
</svg>
