<svg width="17" height="20" viewBox="0 0 17 20" fill="none" xmlns="http://www.w3.org/2000/svg">
<path d="M7.33814 0.4375C6.15894 0.4375 5.1875 1.40894 5.1875 2.58814V3.3125H0.875V4.75H2.3125V16.9688C2.3125 18.1536 3.28394 19.125 4.46875 19.125H13.0938C14.2786 19.125 15.25 18.1536 15.25 16.9688V4.75H16.6875V3.3125H12.375V2.58814C12.375 1.40894 11.4036 0.4375 10.2244 0.4375H7.33814ZM7.33814 1.875H10.2244C10.6287 1.875 10.9375 2.18384 10.9375 2.58814V3.3125H6.625V2.58814C6.625 2.18384 6.93384 1.875 7.33814 1.875ZM3.75 4.75H13.8125V16.9688C13.8125 17.373 13.498 17.6875 13.0938 17.6875H4.46875C4.06445 17.6875 3.75 17.373 3.75 16.9688V4.75ZM5.1875 6.1875V16.25H6.625V6.1875H5.1875ZM8.0625 6.1875V16.25H9.5V6.1875H8.0625ZM10.9375 6.1875V16.25H12.375V6.1875H10.9375Z" fill="#5B636B"/>
</svg>
