<svg width="40" height="40" viewBox="0 0 40 40" fill="none" xmlns="http://www.w3.org/2000/svg">
<path d="M26.1389 0H13.8606C2.65592 0 -0.000244141 2.65617 -0.000244141 13.8608V26.1392C-0.000244141 37.3438 2.65592 40 13.8606 40H26.1389C37.3436 40 39.9998 37.3438 39.9998 26.1392V13.8608C39.9998 2.65617 37.3173 0 26.1389 0ZM32.2912 28.5341H29.3876C28.2876 28.5341 27.9489 27.6616 25.9702 25.6567C24.2515 23.9905 23.4903 23.7693 23.0665 23.7693C22.4678 23.7693 22.2978 23.938 22.2978 24.7592V27.3829C22.2978 28.0866 22.0766 28.5091 20.2141 28.5091C17.1342 28.5091 13.7168 26.6467 11.3207 23.1768C7.70702 18.0919 6.7183 14.2833 6.7183 13.4958C6.7183 13.0721 6.88704 12.6759 7.70077 12.6759H10.6107C11.3469 12.6759 11.6269 13.0146 11.9131 13.8021C13.3518 17.9557 15.748 21.5943 16.7367 21.5943C17.1017 21.5943 17.2705 21.4256 17.2705 20.4944V16.2045C17.1592 14.2258 16.118 14.0558 16.118 13.3533C16.118 13.0146 16.398 12.6759 16.8467 12.6759H21.4228C22.0416 12.6759 22.2691 13.0146 22.2691 13.7433V19.5306C22.2691 20.1556 22.5491 20.3769 22.7178 20.3769C23.0828 20.3769 23.3953 20.1556 24.0715 19.4781C26.1614 17.1345 27.6589 13.5208 27.6589 13.5208C27.8539 13.0971 28.1926 12.7009 28.9289 12.7009H31.8388C32.7112 12.7009 32.9062 13.1496 32.7112 13.7746C32.3462 15.467 28.7851 20.4931 28.7851 20.4931C28.4789 21.0006 28.3614 21.2218 28.7851 21.7881C29.0976 22.2118 30.1138 23.0905 30.79 23.878C32.0338 25.2905 32.99 26.4754 33.245 27.2954C33.5312 28.1091 33.1087 28.5329 32.2875 28.5329L32.2912 28.5341Z" fill="white"/>
</svg>
